<?xml version="1.0" encoding="utf-8" standalone="no"?>
<!DOCTYPE svg PUBLIC "-//W3C//DTD SVG 1.1//EN"
  "http://www.w3.org/Graphics/SVG/1.1/DTD/svg11.dtd">
<!-- Created with matplotlib (http://matplotlib.org/) -->
<svg height="288pt" version="1.1" viewBox="0 0 504 288" width="504pt" xmlns="http://www.w3.org/2000/svg" xmlns:xlink="http://www.w3.org/1999/xlink">
 <defs>
  <style type="text/css">
*{stroke-linecap:butt;stroke-linejoin:round;}
  </style>
 </defs>
 <g id="figure_1">
  <g id="patch_1">
   <path d="M 0 288 
L 504 288 
L 504 0 
L 0 0 
z
" style="fill:#ffffff;"/>
  </g>
  <g id="axes_1">
   <g id="patch_2">
    <path d="M 63 252 
L 453.6 252 
L 453.6 34.56 
L 63 34.56 
z
" style="fill:#ffffff;"/>
   </g>
   <g id="matplotlib.axis_1">
    <g id="xtick_1">
     <g id="line2d_1">
      <defs>
       <path d="M 0 0 
L 0 3.5 
" id="mdb910123ee" style="stroke:#000000;stroke-width:0.8;"/>
      </defs>
      <g>
       <use style="stroke:#000000;stroke-width:0.8;" x="80.754545" xlink:href="#mdb910123ee" y="252"/>
      </g>
     </g>
     <g id="text_1">
      <!-- 0 -->
      <defs>
       <path d="M 31.78125 66.40625 
Q 24.171875 66.40625 20.328125 58.90625 
Q 16.5 51.421875 16.5 36.375 
Q 16.5 21.390625 20.328125 13.890625 
Q 24.171875 6.390625 31.78125 6.390625 
Q 39.453125 6.390625 43.28125 13.890625 
Q 47.125 21.390625 47.125 36.375 
Q 47.125 51.421875 43.28125 58.90625 
Q 39.453125 66.40625 31.78125 66.40625 
z
M 31.78125 74.21875 
Q 44.046875 74.21875 50.515625 64.515625 
Q 56.984375 54.828125 56.984375 36.375 
Q 56.984375 17.96875 50.515625 8.265625 
Q 44.046875 -1.421875 31.78125 -1.421875 
Q 19.53125 -1.421875 13.0625 8.265625 
Q 6.59375 17.96875 6.59375 36.375 
Q 6.59375 54.828125 13.0625 64.515625 
Q 19.53125 74.21875 31.78125 74.21875 
z
" id="DejaVuSans-30"/>
      </defs>
      <g transform="translate(77.573295 266.598437)scale(0.1 -0.1)">
       <use xlink:href="#DejaVuSans-30"/>
      </g>
     </g>
    </g>
    <g id="xtick_2">
     <g id="line2d_2">
      <g>
       <use style="stroke:#000000;stroke-width:0.8;" x="130.908629" xlink:href="#mdb910123ee" y="252"/>
      </g>
     </g>
     <g id="text_2">
      <!-- 25 -->
      <defs>
       <path d="M 19.1875 8.296875 
L 53.609375 8.296875 
L 53.609375 0 
L 7.328125 0 
L 7.328125 8.296875 
Q 12.9375 14.109375 22.625 23.890625 
Q 32.328125 33.6875 34.8125 36.53125 
Q 39.546875 41.84375 41.421875 45.53125 
Q 43.3125 49.21875 43.3125 52.78125 
Q 43.3125 58.59375 39.234375 62.25 
Q 35.15625 65.921875 28.609375 65.921875 
Q 23.96875 65.921875 18.8125 64.3125 
Q 13.671875 62.703125 7.8125 59.421875 
L 7.8125 69.390625 
Q 13.765625 71.78125 18.9375 73 
Q 24.125 74.21875 28.421875 74.21875 
Q 39.75 74.21875 46.484375 68.546875 
Q 53.21875 62.890625 53.21875 53.421875 
Q 53.21875 48.921875 51.53125 44.890625 
Q 49.859375 40.875 45.40625 35.40625 
Q 44.1875 33.984375 37.640625 27.21875 
Q 31.109375 20.453125 19.1875 8.296875 
z
" id="DejaVuSans-32"/>
       <path d="M 10.796875 72.90625 
L 49.515625 72.90625 
L 49.515625 64.59375 
L 19.828125 64.59375 
L 19.828125 46.734375 
Q 21.96875 47.46875 24.109375 47.828125 
Q 26.265625 48.1875 28.421875 48.1875 
Q 40.625 48.1875 47.75 41.5 
Q 54.890625 34.8125 54.890625 23.390625 
Q 54.890625 11.625 47.5625 5.09375 
Q 40.234375 -1.421875 26.90625 -1.421875 
Q 22.3125 -1.421875 17.546875 -0.640625 
Q 12.796875 0.140625 7.71875 1.703125 
L 7.71875 11.625 
Q 12.109375 9.234375 16.796875 8.0625 
Q 21.484375 6.890625 26.703125 6.890625 
Q 35.15625 6.890625 40.078125 11.328125 
Q 45.015625 15.765625 45.015625 23.390625 
Q 45.015625 31 40.078125 35.4375 
Q 35.15625 39.890625 26.703125 39.890625 
Q 22.75 39.890625 18.8125 39.015625 
Q 14.890625 38.140625 10.796875 36.28125 
z
" id="DejaVuSans-35"/>
      </defs>
      <g transform="translate(124.546129 266.598437)scale(0.1 -0.1)">
       <use xlink:href="#DejaVuSans-32"/>
       <use x="63.623047" xlink:href="#DejaVuSans-35"/>
      </g>
     </g>
    </g>
    <g id="xtick_3">
     <g id="line2d_3">
      <g>
       <use style="stroke:#000000;stroke-width:0.8;" x="181.062712" xlink:href="#mdb910123ee" y="252"/>
      </g>
     </g>
     <g id="text_3">
      <!-- 50 -->
      <g transform="translate(174.700212 266.598437)scale(0.1 -0.1)">
       <use xlink:href="#DejaVuSans-35"/>
       <use x="63.623047" xlink:href="#DejaVuSans-30"/>
      </g>
     </g>
    </g>
    <g id="xtick_4">
     <g id="line2d_4">
      <g>
       <use style="stroke:#000000;stroke-width:0.8;" x="231.216795" xlink:href="#mdb910123ee" y="252"/>
      </g>
     </g>
     <g id="text_4">
      <!-- 75 -->
      <defs>
       <path d="M 8.203125 72.90625 
L 55.078125 72.90625 
L 55.078125 68.703125 
L 28.609375 0 
L 18.3125 0 
L 43.21875 64.59375 
L 8.203125 64.59375 
z
" id="DejaVuSans-37"/>
      </defs>
      <g transform="translate(224.854295 266.598437)scale(0.1 -0.1)">
       <use xlink:href="#DejaVuSans-37"/>
       <use x="63.623047" xlink:href="#DejaVuSans-35"/>
      </g>
     </g>
    </g>
    <g id="xtick_5">
     <g id="line2d_5">
      <g>
       <use style="stroke:#000000;stroke-width:0.8;" x="281.370878" xlink:href="#mdb910123ee" y="252"/>
      </g>
     </g>
     <g id="text_5">
      <!-- 100 -->
      <defs>
       <path d="M 12.40625 8.296875 
L 28.515625 8.296875 
L 28.515625 63.921875 
L 10.984375 60.40625 
L 10.984375 69.390625 
L 28.421875 72.90625 
L 38.28125 72.90625 
L 38.28125 8.296875 
L 54.390625 8.296875 
L 54.390625 0 
L 12.40625 0 
z
" id="DejaVuSans-31"/>
      </defs>
      <g transform="translate(271.827128 266.598437)scale(0.1 -0.1)">
       <use xlink:href="#DejaVuSans-31"/>
       <use x="63.623047" xlink:href="#DejaVuSans-30"/>
       <use x="127.246094" xlink:href="#DejaVuSans-30"/>
      </g>
     </g>
    </g>
    <g id="xtick_6">
     <g id="line2d_6">
      <g>
       <use style="stroke:#000000;stroke-width:0.8;" x="331.524961" xlink:href="#mdb910123ee" y="252"/>
      </g>
     </g>
     <g id="text_6">
      <!-- 125 -->
      <g transform="translate(321.981211 266.598437)scale(0.1 -0.1)">
       <use xlink:href="#DejaVuSans-31"/>
       <use x="63.623047" xlink:href="#DejaVuSans-32"/>
       <use x="127.246094" xlink:href="#DejaVuSans-35"/>
      </g>
     </g>
    </g>
    <g id="xtick_7">
     <g id="line2d_7">
      <g>
       <use style="stroke:#000000;stroke-width:0.8;" x="381.679045" xlink:href="#mdb910123ee" y="252"/>
      </g>
     </g>
     <g id="text_7">
      <!-- 150 -->
      <g transform="translate(372.135295 266.598437)scale(0.1 -0.1)">
       <use xlink:href="#DejaVuSans-31"/>
       <use x="63.623047" xlink:href="#DejaVuSans-35"/>
       <use x="127.246094" xlink:href="#DejaVuSans-30"/>
      </g>
     </g>
    </g>
    <g id="xtick_8">
     <g id="line2d_8">
      <g>
       <use style="stroke:#000000;stroke-width:0.8;" x="431.833128" xlink:href="#mdb910123ee" y="252"/>
      </g>
     </g>
     <g id="text_8">
      <!-- 175 -->
      <g transform="translate(422.289378 266.598437)scale(0.1 -0.1)">
       <use xlink:href="#DejaVuSans-31"/>
       <use x="63.623047" xlink:href="#DejaVuSans-37"/>
       <use x="127.246094" xlink:href="#DejaVuSans-35"/>
      </g>
     </g>
    </g>
   </g>
   <g id="matplotlib.axis_2">
    <g id="ytick_1">
     <g id="line2d_9">
      <defs>
       <path d="M 0 0 
L -3.5 0 
" id="m0d40850ff4" style="stroke:#000000;stroke-width:0.8;"/>
      </defs>
      <g>
       <use style="stroke:#000000;stroke-width:0.8;" x="63" xlink:href="#m0d40850ff4" y="246.429223"/>
      </g>
     </g>
     <g id="text_9">
      <!-- −150 -->
      <defs>
       <path d="M 10.59375 35.5 
L 73.1875 35.5 
L 73.1875 27.203125 
L 10.59375 27.203125 
z
" id="DejaVuSans-2212"/>
      </defs>
      <g transform="translate(28.532812 250.228442)scale(0.1 -0.1)">
       <use xlink:href="#DejaVuSans-2212"/>
       <use x="83.789062" xlink:href="#DejaVuSans-31"/>
       <use x="147.412109" xlink:href="#DejaVuSans-35"/>
       <use x="211.035156" xlink:href="#DejaVuSans-30"/>
      </g>
     </g>
    </g>
    <g id="ytick_2">
     <g id="line2d_10">
      <g>
       <use style="stroke:#000000;stroke-width:0.8;" x="63" xlink:href="#m0d40850ff4" y="210.488727"/>
      </g>
     </g>
     <g id="text_10">
      <!-- −100 -->
      <g transform="translate(28.532812 214.287946)scale(0.1 -0.1)">
       <use xlink:href="#DejaVuSans-2212"/>
       <use x="83.789062" xlink:href="#DejaVuSans-31"/>
       <use x="147.412109" xlink:href="#DejaVuSans-30"/>
       <use x="211.035156" xlink:href="#DejaVuSans-30"/>
      </g>
     </g>
    </g>
    <g id="ytick_3">
     <g id="line2d_11">
      <g>
       <use style="stroke:#000000;stroke-width:0.8;" x="63" xlink:href="#m0d40850ff4" y="174.548231"/>
      </g>
     </g>
     <g id="text_11">
      <!-- −50 -->
      <g transform="translate(34.895313 178.34745)scale(0.1 -0.1)">
       <use xlink:href="#DejaVuSans-2212"/>
       <use x="83.789062" xlink:href="#DejaVuSans-35"/>
       <use x="147.412109" xlink:href="#DejaVuSans-30"/>
      </g>
     </g>
    </g>
    <g id="ytick_4">
     <g id="line2d_12">
      <g>
       <use style="stroke:#000000;stroke-width:0.8;" x="63" xlink:href="#m0d40850ff4" y="138.607736"/>
      </g>
     </g>
     <g id="text_12">
      <!-- 0 -->
      <g transform="translate(49.6375 142.406954)scale(0.1 -0.1)">
       <use xlink:href="#DejaVuSans-30"/>
      </g>
     </g>
    </g>
    <g id="ytick_5">
     <g id="line2d_13">
      <g>
       <use style="stroke:#000000;stroke-width:0.8;" x="63" xlink:href="#m0d40850ff4" y="102.66724"/>
      </g>
     </g>
     <g id="text_13">
      <!-- 50 -->
      <g transform="translate(43.275 106.466458)scale(0.1 -0.1)">
       <use xlink:href="#DejaVuSans-35"/>
       <use x="63.623047" xlink:href="#DejaVuSans-30"/>
      </g>
     </g>
    </g>
    <g id="ytick_6">
     <g id="line2d_14">
      <g>
       <use style="stroke:#000000;stroke-width:0.8;" x="63" xlink:href="#m0d40850ff4" y="66.726744"/>
      </g>
     </g>
     <g id="text_14">
      <!-- 100 -->
      <g transform="translate(36.9125 70.525963)scale(0.1 -0.1)">
       <use xlink:href="#DejaVuSans-31"/>
       <use x="63.623047" xlink:href="#DejaVuSans-30"/>
       <use x="127.246094" xlink:href="#DejaVuSans-30"/>
      </g>
     </g>
    </g>
   </g>
   <g id="line2d_15">
    <path clip-path="url(#pe2061d89d6)" d="M 80.754545 127.825587 
L 82.760709 128.544397 
L 84.766872 137.888926 
L 86.773035 148.671074 
L 88.779199 153.702744 
L 90.785362 152.983934 
L 92.791525 144.358215 
L 94.797689 130.700826 
L 96.803852 122.075107 
L 98.810015 115.605818 
L 100.816179 123.512727 
L 102.822342 132.138446 
L 104.828505 149.389884 
L 106.834669 162.328463 
L 108.840832 163.047273 
L 110.846995 162.328463 
L 112.853159 160.172033 
L 114.859322 163.766083 
L 116.865485 162.328463 
L 118.871649 163.047273 
L 120.877812 153.702744 
L 122.883975 142.920595 
L 124.890139 141.482975 
L 126.896302 137.170116 
L 128.902465 135.732496 
L 130.908629 129.982017 
L 132.914792 130.700826 
L 134.920955 132.857256 
L 136.927119 135.732496 
L 138.933282 142.201785 
L 140.939445 153.702744 
L 142.945609 155.859174 
L 144.951772 159.453223 
L 146.957935 159.453223 
L 148.964099 151.546314 
L 150.970262 138.607736 
L 152.976425 122.075107 
L 154.982589 112.011769 
L 156.988752 94.760331 
L 158.994915 89.009851 
L 161.001079 97.63557 
L 163.007242 114.887008 
L 165.013405 126.387967 
L 167.019569 132.857256 
L 169.025732 137.888926 
L 171.031895 145.077025 
L 173.038059 155.859174 
L 175.044222 165.922512 
L 177.050385 175.267041 
L 179.056549 174.548231 
L 181.062712 170.954182 
L 183.068875 160.890843 
L 185.075039 140.045355 
L 187.081202 122.793917 
L 189.087365 114.887008 
L 191.093529 118.481058 
L 193.099692 129.982017 
L 195.105855 148.671074 
L 197.112018 165.922512 
L 199.118182 176.704661 
L 201.124345 191.799669 
L 203.130508 202.581818 
L 205.136672 204.738248 
L 207.142835 193.956099 
L 209.148998 178.861091 
L 211.155162 173.829421 
L 213.161325 164.484893 
L 215.167488 157.296793 
L 217.173652 147.233455 
L 219.179815 131.419636 
L 221.185978 114.168198 
L 223.192142 106.261289 
L 225.198305 109.136529 
L 227.204468 109.855339 
L 229.210632 125.669157 
L 231.216795 145.077025 
L 233.222958 165.922512 
L 235.229122 184.61157 
L 237.235285 208.332298 
L 239.241448 225.583736 
L 241.247612 237.084694 
L 243.253775 242.116364 
L 245.259938 237.803504 
L 247.266102 218.395636 
L 249.272265 178.861091 
L 251.278428 143.639405 
L 253.284592 114.887008 
L 255.290755 93.322711 
L 257.296918 86.134612 
L 259.303082 91.885091 
L 261.309245 101.94843 
L 263.315408 109.855339 
L 265.321572 120.637488 
L 267.327735 125.669157 
L 269.333898 119.918678 
L 271.340062 121.356298 
L 275.352388 142.920595 
L 277.358552 156.577983 
L 279.364715 163.766083 
L 281.370878 158.015603 
L 283.377042 148.671074 
L 285.383205 135.732496 
L 287.389368 120.637488 
L 291.401695 78.227702 
L 293.407858 58.101025 
L 295.414022 49.475306 
L 297.420185 55.944595 
L 299.426348 75.352463 
L 301.432512 104.823669 
L 303.438675 122.075107 
L 305.444838 134.294876 
L 307.451002 143.639405 
L 309.457165 142.920595 
L 311.463328 132.857256 
L 313.469492 119.918678 
L 315.475655 113.449388 
L 317.481818 107.698909 
L 319.487982 109.855339 
L 321.494145 116.324628 
L 323.500308 122.075107 
L 325.506471 121.356298 
L 327.512635 118.481058 
L 331.524961 86.853421 
L 333.531125 86.853421 
L 335.537288 106.980099 
L 337.543451 139.326545 
L 339.549615 157.296793 
L 341.555778 160.890843 
L 343.561941 158.734413 
L 345.568105 150.108694 
L 347.574268 152.983934 
L 349.580431 161.609653 
L 351.586595 171.672992 
L 353.592758 172.391802 
L 355.598921 169.516562 
L 357.605085 155.140364 
L 359.611248 136.451306 
L 361.617411 114.887008 
L 365.629738 79.665322 
L 367.635901 64.570314 
L 369.642065 64.570314 
L 371.648228 76.790083 
L 373.654391 96.91676 
L 375.660555 120.637488 
L 377.666718 147.233455 
L 379.672881 165.203702 
L 381.679045 168.078942 
L 383.685208 173.110612 
L 385.691371 166.641322 
L 387.697535 161.609653 
L 389.703698 157.296793 
L 391.709861 149.389884 
L 393.716025 135.013686 
L 395.722188 109.136529 
L 397.728351 79.665322 
L 399.734515 55.225785 
L 401.740678 44.443636 
L 403.746841 54.506975 
L 407.759168 114.887008 
L 409.765331 129.263207 
L 411.771495 142.201785 
L 413.777658 140.045355 
L 415.783821 143.639405 
L 417.789985 143.639405 
L 419.796148 147.233455 
L 421.802311 135.013686 
L 423.808475 117.762248 
L 425.814638 103.38605 
L 427.820801 100.51081 
L 429.826965 98.35438 
L 431.833128 103.38605 
L 433.839291 115.605818 
L 435.845455 119.199868 
L 435.845455 119.199868 
" style="fill:none;stroke:#1f77b4;stroke-linecap:square;stroke-width:1.5;"/>
   </g>
   <g id="patch_3">
    <path d="M 63 252 
L 63 34.56 
" style="fill:none;stroke:#000000;stroke-linecap:square;stroke-linejoin:miter;stroke-width:0.8;"/>
   </g>
   <g id="patch_4">
    <path d="M 453.6 252 
L 453.6 34.56 
" style="fill:none;stroke:#000000;stroke-linecap:square;stroke-linejoin:miter;stroke-width:0.8;"/>
   </g>
   <g id="patch_5">
    <path d="M 63 252 
L 453.6 252 
" style="fill:none;stroke:#000000;stroke-linecap:square;stroke-linejoin:miter;stroke-width:0.8;"/>
   </g>
   <g id="patch_6">
    <path d="M 63 34.56 
L 453.6 34.56 
" style="fill:none;stroke:#000000;stroke-linecap:square;stroke-linejoin:miter;stroke-width:0.8;"/>
   </g>
  </g>
 </g>
 <defs>
  <clipPath id="pe2061d89d6">
   <rect height="217.44" width="390.6" x="63" y="34.56"/>
  </clipPath>
 </defs>
</svg>
