<?xml version="1.0" encoding="utf-8" standalone="no"?>
<!DOCTYPE svg PUBLIC "-//W3C//DTD SVG 1.1//EN"
  "http://www.w3.org/Graphics/SVG/1.1/DTD/svg11.dtd">
<!-- Created with matplotlib (http://matplotlib.org/) -->
<svg height="288pt" version="1.1" viewBox="0 0 504 288" width="504pt" xmlns="http://www.w3.org/2000/svg" xmlns:xlink="http://www.w3.org/1999/xlink">
 <defs>
  <style type="text/css">
*{stroke-linecap:butt;stroke-linejoin:round;}
  </style>
 </defs>
 <g id="figure_1">
  <g id="patch_1">
   <path d="M 0 288 
L 504 288 
L 504 0 
L 0 0 
z
" style="fill:#ffffff;"/>
  </g>
  <g id="axes_1">
   <g id="patch_2">
    <path d="M 63 252 
L 453.6 252 
L 453.6 34.56 
L 63 34.56 
z
" style="fill:#ffffff;"/>
   </g>
   <g id="matplotlib.axis_1">
    <g id="xtick_1">
     <g id="line2d_1">
      <defs>
       <path d="M 0 0 
L 0 3.5 
" id="m2604acd721" style="stroke:#000000;stroke-width:0.8;"/>
      </defs>
      <g>
       <use style="stroke:#000000;stroke-width:0.8;" x="80.754545" xlink:href="#m2604acd721" y="252"/>
      </g>
     </g>
     <g id="text_1">
      <!-- 0 -->
      <defs>
       <path d="M 31.78125 66.40625 
Q 24.171875 66.40625 20.328125 58.90625 
Q 16.5 51.421875 16.5 36.375 
Q 16.5 21.390625 20.328125 13.890625 
Q 24.171875 6.390625 31.78125 6.390625 
Q 39.453125 6.390625 43.28125 13.890625 
Q 47.125 21.390625 47.125 36.375 
Q 47.125 51.421875 43.28125 58.90625 
Q 39.453125 66.40625 31.78125 66.40625 
z
M 31.78125 74.21875 
Q 44.046875 74.21875 50.515625 64.515625 
Q 56.984375 54.828125 56.984375 36.375 
Q 56.984375 17.96875 50.515625 8.265625 
Q 44.046875 -1.421875 31.78125 -1.421875 
Q 19.53125 -1.421875 13.0625 8.265625 
Q 6.59375 17.96875 6.59375 36.375 
Q 6.59375 54.828125 13.0625 64.515625 
Q 19.53125 74.21875 31.78125 74.21875 
z
" id="DejaVuSans-30"/>
      </defs>
      <g transform="translate(77.573295 266.598437)scale(0.1 -0.1)">
       <use xlink:href="#DejaVuSans-30"/>
      </g>
     </g>
    </g>
    <g id="xtick_2">
     <g id="line2d_2">
      <g>
       <use style="stroke:#000000;stroke-width:0.8;" x="130.908629" xlink:href="#m2604acd721" y="252"/>
      </g>
     </g>
     <g id="text_2">
      <!-- 25 -->
      <defs>
       <path d="M 19.1875 8.296875 
L 53.609375 8.296875 
L 53.609375 0 
L 7.328125 0 
L 7.328125 8.296875 
Q 12.9375 14.109375 22.625 23.890625 
Q 32.328125 33.6875 34.8125 36.53125 
Q 39.546875 41.84375 41.421875 45.53125 
Q 43.3125 49.21875 43.3125 52.78125 
Q 43.3125 58.59375 39.234375 62.25 
Q 35.15625 65.921875 28.609375 65.921875 
Q 23.96875 65.921875 18.8125 64.3125 
Q 13.671875 62.703125 7.8125 59.421875 
L 7.8125 69.390625 
Q 13.765625 71.78125 18.9375 73 
Q 24.125 74.21875 28.421875 74.21875 
Q 39.75 74.21875 46.484375 68.546875 
Q 53.21875 62.890625 53.21875 53.421875 
Q 53.21875 48.921875 51.53125 44.890625 
Q 49.859375 40.875 45.40625 35.40625 
Q 44.1875 33.984375 37.640625 27.21875 
Q 31.109375 20.453125 19.1875 8.296875 
z
" id="DejaVuSans-32"/>
       <path d="M 10.796875 72.90625 
L 49.515625 72.90625 
L 49.515625 64.59375 
L 19.828125 64.59375 
L 19.828125 46.734375 
Q 21.96875 47.46875 24.109375 47.828125 
Q 26.265625 48.1875 28.421875 48.1875 
Q 40.625 48.1875 47.75 41.5 
Q 54.890625 34.8125 54.890625 23.390625 
Q 54.890625 11.625 47.5625 5.09375 
Q 40.234375 -1.421875 26.90625 -1.421875 
Q 22.3125 -1.421875 17.546875 -0.640625 
Q 12.796875 0.140625 7.71875 1.703125 
L 7.71875 11.625 
Q 12.109375 9.234375 16.796875 8.0625 
Q 21.484375 6.890625 26.703125 6.890625 
Q 35.15625 6.890625 40.078125 11.328125 
Q 45.015625 15.765625 45.015625 23.390625 
Q 45.015625 31 40.078125 35.4375 
Q 35.15625 39.890625 26.703125 39.890625 
Q 22.75 39.890625 18.8125 39.015625 
Q 14.890625 38.140625 10.796875 36.28125 
z
" id="DejaVuSans-35"/>
      </defs>
      <g transform="translate(124.546129 266.598437)scale(0.1 -0.1)">
       <use xlink:href="#DejaVuSans-32"/>
       <use x="63.623047" xlink:href="#DejaVuSans-35"/>
      </g>
     </g>
    </g>
    <g id="xtick_3">
     <g id="line2d_3">
      <g>
       <use style="stroke:#000000;stroke-width:0.8;" x="181.062712" xlink:href="#m2604acd721" y="252"/>
      </g>
     </g>
     <g id="text_3">
      <!-- 50 -->
      <g transform="translate(174.700212 266.598437)scale(0.1 -0.1)">
       <use xlink:href="#DejaVuSans-35"/>
       <use x="63.623047" xlink:href="#DejaVuSans-30"/>
      </g>
     </g>
    </g>
    <g id="xtick_4">
     <g id="line2d_4">
      <g>
       <use style="stroke:#000000;stroke-width:0.8;" x="231.216795" xlink:href="#m2604acd721" y="252"/>
      </g>
     </g>
     <g id="text_4">
      <!-- 75 -->
      <defs>
       <path d="M 8.203125 72.90625 
L 55.078125 72.90625 
L 55.078125 68.703125 
L 28.609375 0 
L 18.3125 0 
L 43.21875 64.59375 
L 8.203125 64.59375 
z
" id="DejaVuSans-37"/>
      </defs>
      <g transform="translate(224.854295 266.598437)scale(0.1 -0.1)">
       <use xlink:href="#DejaVuSans-37"/>
       <use x="63.623047" xlink:href="#DejaVuSans-35"/>
      </g>
     </g>
    </g>
    <g id="xtick_5">
     <g id="line2d_5">
      <g>
       <use style="stroke:#000000;stroke-width:0.8;" x="281.370878" xlink:href="#m2604acd721" y="252"/>
      </g>
     </g>
     <g id="text_5">
      <!-- 100 -->
      <defs>
       <path d="M 12.40625 8.296875 
L 28.515625 8.296875 
L 28.515625 63.921875 
L 10.984375 60.40625 
L 10.984375 69.390625 
L 28.421875 72.90625 
L 38.28125 72.90625 
L 38.28125 8.296875 
L 54.390625 8.296875 
L 54.390625 0 
L 12.40625 0 
z
" id="DejaVuSans-31"/>
      </defs>
      <g transform="translate(271.827128 266.598437)scale(0.1 -0.1)">
       <use xlink:href="#DejaVuSans-31"/>
       <use x="63.623047" xlink:href="#DejaVuSans-30"/>
       <use x="127.246094" xlink:href="#DejaVuSans-30"/>
      </g>
     </g>
    </g>
    <g id="xtick_6">
     <g id="line2d_6">
      <g>
       <use style="stroke:#000000;stroke-width:0.8;" x="331.524961" xlink:href="#m2604acd721" y="252"/>
      </g>
     </g>
     <g id="text_6">
      <!-- 125 -->
      <g transform="translate(321.981211 266.598437)scale(0.1 -0.1)">
       <use xlink:href="#DejaVuSans-31"/>
       <use x="63.623047" xlink:href="#DejaVuSans-32"/>
       <use x="127.246094" xlink:href="#DejaVuSans-35"/>
      </g>
     </g>
    </g>
    <g id="xtick_7">
     <g id="line2d_7">
      <g>
       <use style="stroke:#000000;stroke-width:0.8;" x="381.679045" xlink:href="#m2604acd721" y="252"/>
      </g>
     </g>
     <g id="text_7">
      <!-- 150 -->
      <g transform="translate(372.135295 266.598437)scale(0.1 -0.1)">
       <use xlink:href="#DejaVuSans-31"/>
       <use x="63.623047" xlink:href="#DejaVuSans-35"/>
       <use x="127.246094" xlink:href="#DejaVuSans-30"/>
      </g>
     </g>
    </g>
    <g id="xtick_8">
     <g id="line2d_8">
      <g>
       <use style="stroke:#000000;stroke-width:0.8;" x="431.833128" xlink:href="#m2604acd721" y="252"/>
      </g>
     </g>
     <g id="text_8">
      <!-- 175 -->
      <g transform="translate(422.289378 266.598437)scale(0.1 -0.1)">
       <use xlink:href="#DejaVuSans-31"/>
       <use x="63.623047" xlink:href="#DejaVuSans-37"/>
       <use x="127.246094" xlink:href="#DejaVuSans-35"/>
      </g>
     </g>
    </g>
   </g>
   <g id="matplotlib.axis_2">
    <g id="ytick_1">
     <g id="line2d_9">
      <defs>
       <path d="M 0 0 
L -3.5 0 
" id="m14621b6b67" style="stroke:#000000;stroke-width:0.8;"/>
      </defs>
      <g>
       <use style="stroke:#000000;stroke-width:0.8;" x="63" xlink:href="#m14621b6b67" y="243.196542"/>
      </g>
     </g>
     <g id="text_9">
      <!-- −100 -->
      <defs>
       <path d="M 10.59375 35.5 
L 73.1875 35.5 
L 73.1875 27.203125 
L 10.59375 27.203125 
z
" id="DejaVuSans-2212"/>
      </defs>
      <g transform="translate(28.532812 246.995761)scale(0.1 -0.1)">
       <use xlink:href="#DejaVuSans-2212"/>
       <use x="83.789062" xlink:href="#DejaVuSans-31"/>
       <use x="147.412109" xlink:href="#DejaVuSans-30"/>
       <use x="211.035156" xlink:href="#DejaVuSans-30"/>
      </g>
     </g>
    </g>
    <g id="ytick_2">
     <g id="line2d_10">
      <g>
       <use style="stroke:#000000;stroke-width:0.8;" x="63" xlink:href="#m14621b6b67" y="216.192072"/>
      </g>
     </g>
     <g id="text_10">
      <!-- −75 -->
      <g transform="translate(34.895313 219.99129)scale(0.1 -0.1)">
       <use xlink:href="#DejaVuSans-2212"/>
       <use x="83.789062" xlink:href="#DejaVuSans-37"/>
       <use x="147.412109" xlink:href="#DejaVuSans-35"/>
      </g>
     </g>
    </g>
    <g id="ytick_3">
     <g id="line2d_11">
      <g>
       <use style="stroke:#000000;stroke-width:0.8;" x="63" xlink:href="#m14621b6b67" y="189.187601"/>
      </g>
     </g>
     <g id="text_11">
      <!-- −50 -->
      <g transform="translate(34.895313 192.986819)scale(0.1 -0.1)">
       <use xlink:href="#DejaVuSans-2212"/>
       <use x="83.789062" xlink:href="#DejaVuSans-35"/>
       <use x="147.412109" xlink:href="#DejaVuSans-30"/>
      </g>
     </g>
    </g>
    <g id="ytick_4">
     <g id="line2d_12">
      <g>
       <use style="stroke:#000000;stroke-width:0.8;" x="63" xlink:href="#m14621b6b67" y="162.18313"/>
      </g>
     </g>
     <g id="text_12">
      <!-- −25 -->
      <g transform="translate(34.895313 165.982348)scale(0.1 -0.1)">
       <use xlink:href="#DejaVuSans-2212"/>
       <use x="83.789062" xlink:href="#DejaVuSans-32"/>
       <use x="147.412109" xlink:href="#DejaVuSans-35"/>
      </g>
     </g>
    </g>
    <g id="ytick_5">
     <g id="line2d_13">
      <g>
       <use style="stroke:#000000;stroke-width:0.8;" x="63" xlink:href="#m14621b6b67" y="135.178659"/>
      </g>
     </g>
     <g id="text_13">
      <!-- 0 -->
      <g transform="translate(49.6375 138.977877)scale(0.1 -0.1)">
       <use xlink:href="#DejaVuSans-30"/>
      </g>
     </g>
    </g>
    <g id="ytick_6">
     <g id="line2d_14">
      <g>
       <use style="stroke:#000000;stroke-width:0.8;" x="63" xlink:href="#m14621b6b67" y="108.174188"/>
      </g>
     </g>
     <g id="text_14">
      <!-- 25 -->
      <g transform="translate(43.275 111.973407)scale(0.1 -0.1)">
       <use xlink:href="#DejaVuSans-32"/>
       <use x="63.623047" xlink:href="#DejaVuSans-35"/>
      </g>
     </g>
    </g>
    <g id="ytick_7">
     <g id="line2d_15">
      <g>
       <use style="stroke:#000000;stroke-width:0.8;" x="63" xlink:href="#m14621b6b67" y="81.169717"/>
      </g>
     </g>
     <g id="text_15">
      <!-- 50 -->
      <g transform="translate(43.275 84.968936)scale(0.1 -0.1)">
       <use xlink:href="#DejaVuSans-35"/>
       <use x="63.623047" xlink:href="#DejaVuSans-30"/>
      </g>
     </g>
    </g>
    <g id="ytick_8">
     <g id="line2d_16">
      <g>
       <use style="stroke:#000000;stroke-width:0.8;" x="63" xlink:href="#m14621b6b67" y="54.165246"/>
      </g>
     </g>
     <g id="text_16">
      <!-- 75 -->
      <g transform="translate(43.275 57.964465)scale(0.1 -0.1)">
       <use xlink:href="#DejaVuSans-37"/>
       <use x="63.623047" xlink:href="#DejaVuSans-35"/>
      </g>
     </g>
    </g>
   </g>
   <g id="line2d_17">
    <path clip-path="url(#pd655a250cf)" d="M 80.754545 136.258838 
L 82.760709 115.73544 
L 84.766872 97.372399 
L 86.773035 96.292221 
L 88.779199 103.853472 
L 90.785362 116.815618 
L 92.791525 124.37687 
L 94.797689 134.09848 
L 96.803852 138.419195 
L 98.810015 137.339016 
L 100.816179 126.537228 
L 102.822342 111.414724 
L 104.828505 99.532757 
L 108.840832 118.975976 
L 112.853159 131.938122 
L 114.859322 150.301162 
L 116.865485 153.541699 
L 118.871649 144.900268 
L 120.877812 130.857943 
L 122.883975 112.494903 
L 124.890139 87.65079 
L 128.902465 44.443636 
L 132.914792 50.924709 
L 136.927119 109.254367 
L 138.933282 113.575082 
L 140.939445 121.136334 
L 142.945609 115.73544 
L 144.951772 120.056155 
L 146.957935 144.900268 
L 148.964099 164.343487 
L 150.970262 175.145276 
L 152.976425 175.145276 
L 154.982589 167.584024 
L 156.988752 168.664203 
L 158.994915 160.022772 
L 161.001079 141.659732 
L 163.007242 138.419195 
L 165.013405 136.258838 
L 167.019569 140.579553 
L 169.025732 139.499374 
L 171.031895 136.258838 
L 173.038059 135.178659 
L 175.044222 124.37687 
L 177.050385 131.938122 
L 179.056549 125.457049 
L 181.062712 115.73544 
L 183.068875 120.056155 
L 185.075039 129.777765 
L 187.081202 136.258838 
L 189.087365 128.697586 
L 191.093529 129.777765 
L 193.099692 129.777765 
L 195.105855 128.697586 
L 197.112018 130.857943 
L 199.118182 120.056155 
L 201.124345 124.37687 
L 203.130508 124.37687 
L 205.136672 138.419195 
L 207.142835 138.419195 
L 209.148998 143.820089 
L 211.155162 141.659732 
L 213.161325 154.621878 
L 215.167488 154.621878 
L 217.173652 158.942593 
L 219.179815 166.503845 
L 221.185978 169.744382 
L 223.192142 170.82456 
L 225.198305 169.744382 
L 227.204468 171.904739 
L 229.210632 158.942593 
L 231.216795 171.904739 
L 233.222958 183.786706 
L 235.229122 202.149747 
L 237.235285 215.111893 
L 239.241448 224.833502 
L 241.247612 237.795648 
L 243.253775 232.394754 
L 245.259938 231.314575 
L 247.266102 216.192072 
L 249.272265 219.432608 
L 251.278428 203.229925 
L 253.284592 206.470462 
L 255.290755 194.588495 
L 257.296918 187.027243 
L 259.303082 193.508316 
L 261.309245 195.668674 
L 263.315408 205.390283 
L 265.321572 180.54617 
L 267.327735 172.984918 
L 269.333898 166.503845 
L 271.340062 176.225455 
L 273.346225 182.706528 
L 275.352388 197.829031 
L 277.358552 196.748852 
L 279.364715 201.069568 
L 281.370878 212.951535 
L 283.377042 209.710999 
L 285.383205 194.588495 
L 287.389368 194.588495 
L 289.395532 202.149747 
L 291.401695 216.192072 
L 293.407858 210.791177 
L 295.414022 206.470462 
L 297.420185 204.310104 
L 299.426348 215.111893 
L 301.432512 232.394754 
L 303.438675 242.116364 
L 305.444838 237.795648 
L 307.451002 221.592966 
L 309.457165 218.352429 
L 311.463328 210.791177 
L 313.469492 207.550641 
L 315.475655 215.111893 
L 317.481818 226.99386 
L 319.487982 231.314575 
L 321.494145 226.99386 
L 323.500308 216.192072 
L 325.506471 209.710999 
L 327.512635 195.668674 
L 329.518798 180.54617 
L 331.524961 170.82456 
L 333.531125 150.301162 
L 335.537288 135.178659 
L 337.543451 134.09848 
L 339.549615 131.938122 
L 341.555778 135.178659 
L 343.561941 142.739911 
L 345.568105 160.022772 
L 347.574268 168.664203 
L 349.580431 168.664203 
L 351.586595 161.102951 
L 353.592758 141.659732 
L 355.598921 129.777765 
L 357.605085 120.056155 
L 359.611248 116.815618 
L 361.617411 115.73544 
L 363.623575 106.01383 
L 365.629738 112.494903 
L 367.635901 114.655261 
L 369.642065 122.216513 
L 371.648228 125.457049 
L 373.654391 138.419195 
L 375.660555 133.018301 
L 377.666718 125.457049 
L 379.672881 123.296692 
L 381.679045 100.612936 
L 383.685208 100.612936 
L 385.691371 93.051684 
L 387.697535 84.410253 
L 389.703698 77.92918 
L 391.709861 82.249896 
L 393.716025 101.693115 
L 395.722188 115.73544 
L 397.728351 113.575082 
L 399.734515 125.457049 
L 401.740678 125.457049 
L 403.746841 122.216513 
L 405.753005 122.216513 
L 407.759168 128.697586 
L 409.765331 142.739911 
L 411.771495 160.022772 
L 415.783821 164.343487 
L 417.789985 151.381341 
L 419.796148 141.659732 
L 421.802311 154.621878 
L 423.808475 149.220984 
L 425.814638 154.621878 
L 427.820801 158.942593 
L 429.826965 155.702057 
L 431.833128 154.621878 
L 433.839291 141.659732 
L 435.845455 139.499374 
L 435.845455 139.499374 
" style="fill:none;stroke:#1f77b4;stroke-linecap:square;stroke-width:1.5;"/>
   </g>
   <g id="patch_3">
    <path d="M 63 252 
L 63 34.56 
" style="fill:none;stroke:#000000;stroke-linecap:square;stroke-linejoin:miter;stroke-width:0.8;"/>
   </g>
   <g id="patch_4">
    <path d="M 453.6 252 
L 453.6 34.56 
" style="fill:none;stroke:#000000;stroke-linecap:square;stroke-linejoin:miter;stroke-width:0.8;"/>
   </g>
   <g id="patch_5">
    <path d="M 63 252 
L 453.6 252 
" style="fill:none;stroke:#000000;stroke-linecap:square;stroke-linejoin:miter;stroke-width:0.8;"/>
   </g>
   <g id="patch_6">
    <path d="M 63 34.56 
L 453.6 34.56 
" style="fill:none;stroke:#000000;stroke-linecap:square;stroke-linejoin:miter;stroke-width:0.8;"/>
   </g>
  </g>
 </g>
 <defs>
  <clipPath id="pd655a250cf">
   <rect height="217.44" width="390.6" x="63" y="34.56"/>
  </clipPath>
 </defs>
</svg>
