<?xml version="1.0" encoding="utf-8" standalone="no"?>
<!DOCTYPE svg PUBLIC "-//W3C//DTD SVG 1.1//EN"
  "http://www.w3.org/Graphics/SVG/1.1/DTD/svg11.dtd">
<!-- Created with matplotlib (http://matplotlib.org/) -->
<svg height="288pt" version="1.1" viewBox="0 0 504 288" width="504pt" xmlns="http://www.w3.org/2000/svg" xmlns:xlink="http://www.w3.org/1999/xlink">
 <defs>
  <style type="text/css">
*{stroke-linecap:butt;stroke-linejoin:round;}
  </style>
 </defs>
 <g id="figure_1">
  <g id="patch_1">
   <path d="M 0 288 
L 504 288 
L 504 0 
L 0 0 
z
" style="fill:#ffffff;"/>
  </g>
  <g id="axes_1">
   <g id="patch_2">
    <path d="M 63 252 
L 453.6 252 
L 453.6 34.56 
L 63 34.56 
z
" style="fill:#ffffff;"/>
   </g>
   <g id="matplotlib.axis_1">
    <g id="xtick_1">
     <g id="line2d_1">
      <defs>
       <path d="M 0 0 
L 0 3.5 
" id="md3daff161d" style="stroke:#000000;stroke-width:0.8;"/>
      </defs>
      <g>
       <use style="stroke:#000000;stroke-width:0.8;" x="80.754545" xlink:href="#md3daff161d" y="252"/>
      </g>
     </g>
     <g id="text_1">
      <!-- 0 -->
      <defs>
       <path d="M 31.78125 66.40625 
Q 24.171875 66.40625 20.328125 58.90625 
Q 16.5 51.421875 16.5 36.375 
Q 16.5 21.390625 20.328125 13.890625 
Q 24.171875 6.390625 31.78125 6.390625 
Q 39.453125 6.390625 43.28125 13.890625 
Q 47.125 21.390625 47.125 36.375 
Q 47.125 51.421875 43.28125 58.90625 
Q 39.453125 66.40625 31.78125 66.40625 
z
M 31.78125 74.21875 
Q 44.046875 74.21875 50.515625 64.515625 
Q 56.984375 54.828125 56.984375 36.375 
Q 56.984375 17.96875 50.515625 8.265625 
Q 44.046875 -1.421875 31.78125 -1.421875 
Q 19.53125 -1.421875 13.0625 8.265625 
Q 6.59375 17.96875 6.59375 36.375 
Q 6.59375 54.828125 13.0625 64.515625 
Q 19.53125 74.21875 31.78125 74.21875 
z
" id="DejaVuSans-30"/>
      </defs>
      <g transform="translate(77.573295 266.598437)scale(0.1 -0.1)">
       <use xlink:href="#DejaVuSans-30"/>
      </g>
     </g>
    </g>
    <g id="xtick_2">
     <g id="line2d_2">
      <g>
       <use style="stroke:#000000;stroke-width:0.8;" x="130.908629" xlink:href="#md3daff161d" y="252"/>
      </g>
     </g>
     <g id="text_2">
      <!-- 25 -->
      <defs>
       <path d="M 19.1875 8.296875 
L 53.609375 8.296875 
L 53.609375 0 
L 7.328125 0 
L 7.328125 8.296875 
Q 12.9375 14.109375 22.625 23.890625 
Q 32.328125 33.6875 34.8125 36.53125 
Q 39.546875 41.84375 41.421875 45.53125 
Q 43.3125 49.21875 43.3125 52.78125 
Q 43.3125 58.59375 39.234375 62.25 
Q 35.15625 65.921875 28.609375 65.921875 
Q 23.96875 65.921875 18.8125 64.3125 
Q 13.671875 62.703125 7.8125 59.421875 
L 7.8125 69.390625 
Q 13.765625 71.78125 18.9375 73 
Q 24.125 74.21875 28.421875 74.21875 
Q 39.75 74.21875 46.484375 68.546875 
Q 53.21875 62.890625 53.21875 53.421875 
Q 53.21875 48.921875 51.53125 44.890625 
Q 49.859375 40.875 45.40625 35.40625 
Q 44.1875 33.984375 37.640625 27.21875 
Q 31.109375 20.453125 19.1875 8.296875 
z
" id="DejaVuSans-32"/>
       <path d="M 10.796875 72.90625 
L 49.515625 72.90625 
L 49.515625 64.59375 
L 19.828125 64.59375 
L 19.828125 46.734375 
Q 21.96875 47.46875 24.109375 47.828125 
Q 26.265625 48.1875 28.421875 48.1875 
Q 40.625 48.1875 47.75 41.5 
Q 54.890625 34.8125 54.890625 23.390625 
Q 54.890625 11.625 47.5625 5.09375 
Q 40.234375 -1.421875 26.90625 -1.421875 
Q 22.3125 -1.421875 17.546875 -0.640625 
Q 12.796875 0.140625 7.71875 1.703125 
L 7.71875 11.625 
Q 12.109375 9.234375 16.796875 8.0625 
Q 21.484375 6.890625 26.703125 6.890625 
Q 35.15625 6.890625 40.078125 11.328125 
Q 45.015625 15.765625 45.015625 23.390625 
Q 45.015625 31 40.078125 35.4375 
Q 35.15625 39.890625 26.703125 39.890625 
Q 22.75 39.890625 18.8125 39.015625 
Q 14.890625 38.140625 10.796875 36.28125 
z
" id="DejaVuSans-35"/>
      </defs>
      <g transform="translate(124.546129 266.598437)scale(0.1 -0.1)">
       <use xlink:href="#DejaVuSans-32"/>
       <use x="63.623047" xlink:href="#DejaVuSans-35"/>
      </g>
     </g>
    </g>
    <g id="xtick_3">
     <g id="line2d_3">
      <g>
       <use style="stroke:#000000;stroke-width:0.8;" x="181.062712" xlink:href="#md3daff161d" y="252"/>
      </g>
     </g>
     <g id="text_3">
      <!-- 50 -->
      <g transform="translate(174.700212 266.598437)scale(0.1 -0.1)">
       <use xlink:href="#DejaVuSans-35"/>
       <use x="63.623047" xlink:href="#DejaVuSans-30"/>
      </g>
     </g>
    </g>
    <g id="xtick_4">
     <g id="line2d_4">
      <g>
       <use style="stroke:#000000;stroke-width:0.8;" x="231.216795" xlink:href="#md3daff161d" y="252"/>
      </g>
     </g>
     <g id="text_4">
      <!-- 75 -->
      <defs>
       <path d="M 8.203125 72.90625 
L 55.078125 72.90625 
L 55.078125 68.703125 
L 28.609375 0 
L 18.3125 0 
L 43.21875 64.59375 
L 8.203125 64.59375 
z
" id="DejaVuSans-37"/>
      </defs>
      <g transform="translate(224.854295 266.598437)scale(0.1 -0.1)">
       <use xlink:href="#DejaVuSans-37"/>
       <use x="63.623047" xlink:href="#DejaVuSans-35"/>
      </g>
     </g>
    </g>
    <g id="xtick_5">
     <g id="line2d_5">
      <g>
       <use style="stroke:#000000;stroke-width:0.8;" x="281.370878" xlink:href="#md3daff161d" y="252"/>
      </g>
     </g>
     <g id="text_5">
      <!-- 100 -->
      <defs>
       <path d="M 12.40625 8.296875 
L 28.515625 8.296875 
L 28.515625 63.921875 
L 10.984375 60.40625 
L 10.984375 69.390625 
L 28.421875 72.90625 
L 38.28125 72.90625 
L 38.28125 8.296875 
L 54.390625 8.296875 
L 54.390625 0 
L 12.40625 0 
z
" id="DejaVuSans-31"/>
      </defs>
      <g transform="translate(271.827128 266.598437)scale(0.1 -0.1)">
       <use xlink:href="#DejaVuSans-31"/>
       <use x="63.623047" xlink:href="#DejaVuSans-30"/>
       <use x="127.246094" xlink:href="#DejaVuSans-30"/>
      </g>
     </g>
    </g>
    <g id="xtick_6">
     <g id="line2d_6">
      <g>
       <use style="stroke:#000000;stroke-width:0.8;" x="331.524961" xlink:href="#md3daff161d" y="252"/>
      </g>
     </g>
     <g id="text_6">
      <!-- 125 -->
      <g transform="translate(321.981211 266.598437)scale(0.1 -0.1)">
       <use xlink:href="#DejaVuSans-31"/>
       <use x="63.623047" xlink:href="#DejaVuSans-32"/>
       <use x="127.246094" xlink:href="#DejaVuSans-35"/>
      </g>
     </g>
    </g>
    <g id="xtick_7">
     <g id="line2d_7">
      <g>
       <use style="stroke:#000000;stroke-width:0.8;" x="381.679045" xlink:href="#md3daff161d" y="252"/>
      </g>
     </g>
     <g id="text_7">
      <!-- 150 -->
      <g transform="translate(372.135295 266.598437)scale(0.1 -0.1)">
       <use xlink:href="#DejaVuSans-31"/>
       <use x="63.623047" xlink:href="#DejaVuSans-35"/>
       <use x="127.246094" xlink:href="#DejaVuSans-30"/>
      </g>
     </g>
    </g>
    <g id="xtick_8">
     <g id="line2d_8">
      <g>
       <use style="stroke:#000000;stroke-width:0.8;" x="431.833128" xlink:href="#md3daff161d" y="252"/>
      </g>
     </g>
     <g id="text_8">
      <!-- 175 -->
      <g transform="translate(422.289378 266.598437)scale(0.1 -0.1)">
       <use xlink:href="#DejaVuSans-31"/>
       <use x="63.623047" xlink:href="#DejaVuSans-37"/>
       <use x="127.246094" xlink:href="#DejaVuSans-35"/>
      </g>
     </g>
    </g>
   </g>
   <g id="matplotlib.axis_2">
    <g id="ytick_1">
     <g id="line2d_9">
      <defs>
       <path d="M 0 0 
L -3.5 0 
" id="mb5263c4a70" style="stroke:#000000;stroke-width:0.8;"/>
      </defs>
      <g>
       <use style="stroke:#000000;stroke-width:0.8;" x="63" xlink:href="#mb5263c4a70" y="235.056623"/>
      </g>
     </g>
     <g id="text_9">
      <!-- −100 -->
      <defs>
       <path d="M 10.59375 35.5 
L 73.1875 35.5 
L 73.1875 27.203125 
L 10.59375 27.203125 
z
" id="DejaVuSans-2212"/>
      </defs>
      <g transform="translate(28.532812 238.855842)scale(0.1 -0.1)">
       <use xlink:href="#DejaVuSans-2212"/>
       <use x="83.789062" xlink:href="#DejaVuSans-31"/>
       <use x="147.412109" xlink:href="#DejaVuSans-30"/>
       <use x="211.035156" xlink:href="#DejaVuSans-30"/>
      </g>
     </g>
    </g>
    <g id="ytick_2">
     <g id="line2d_10">
      <g>
       <use style="stroke:#000000;stroke-width:0.8;" x="63" xlink:href="#mb5263c4a70" y="209.843265"/>
      </g>
     </g>
     <g id="text_10">
      <!-- −75 -->
      <g transform="translate(34.895313 213.642484)scale(0.1 -0.1)">
       <use xlink:href="#DejaVuSans-2212"/>
       <use x="83.789062" xlink:href="#DejaVuSans-37"/>
       <use x="147.412109" xlink:href="#DejaVuSans-35"/>
      </g>
     </g>
    </g>
    <g id="ytick_3">
     <g id="line2d_11">
      <g>
       <use style="stroke:#000000;stroke-width:0.8;" x="63" xlink:href="#mb5263c4a70" y="184.629907"/>
      </g>
     </g>
     <g id="text_11">
      <!-- −50 -->
      <g transform="translate(34.895313 188.429126)scale(0.1 -0.1)">
       <use xlink:href="#DejaVuSans-2212"/>
       <use x="83.789062" xlink:href="#DejaVuSans-35"/>
       <use x="147.412109" xlink:href="#DejaVuSans-30"/>
      </g>
     </g>
    </g>
    <g id="ytick_4">
     <g id="line2d_12">
      <g>
       <use style="stroke:#000000;stroke-width:0.8;" x="63" xlink:href="#mb5263c4a70" y="159.416549"/>
      </g>
     </g>
     <g id="text_12">
      <!-- −25 -->
      <g transform="translate(34.895313 163.215768)scale(0.1 -0.1)">
       <use xlink:href="#DejaVuSans-2212"/>
       <use x="83.789062" xlink:href="#DejaVuSans-32"/>
       <use x="147.412109" xlink:href="#DejaVuSans-35"/>
      </g>
     </g>
    </g>
    <g id="ytick_5">
     <g id="line2d_13">
      <g>
       <use style="stroke:#000000;stroke-width:0.8;" x="63" xlink:href="#mb5263c4a70" y="134.203191"/>
      </g>
     </g>
     <g id="text_13">
      <!-- 0 -->
      <g transform="translate(49.6375 138.00241)scale(0.1 -0.1)">
       <use xlink:href="#DejaVuSans-30"/>
      </g>
     </g>
    </g>
    <g id="ytick_6">
     <g id="line2d_14">
      <g>
       <use style="stroke:#000000;stroke-width:0.8;" x="63" xlink:href="#mb5263c4a70" y="108.989833"/>
      </g>
     </g>
     <g id="text_14">
      <!-- 25 -->
      <g transform="translate(43.275 112.789052)scale(0.1 -0.1)">
       <use xlink:href="#DejaVuSans-32"/>
       <use x="63.623047" xlink:href="#DejaVuSans-35"/>
      </g>
     </g>
    </g>
    <g id="ytick_7">
     <g id="line2d_15">
      <g>
       <use style="stroke:#000000;stroke-width:0.8;" x="63" xlink:href="#mb5263c4a70" y="83.776475"/>
      </g>
     </g>
     <g id="text_15">
      <!-- 50 -->
      <g transform="translate(43.275 87.575694)scale(0.1 -0.1)">
       <use xlink:href="#DejaVuSans-35"/>
       <use x="63.623047" xlink:href="#DejaVuSans-30"/>
      </g>
     </g>
    </g>
    <g id="ytick_8">
     <g id="line2d_16">
      <g>
       <use style="stroke:#000000;stroke-width:0.8;" x="63" xlink:href="#mb5263c4a70" y="58.563117"/>
      </g>
     </g>
     <g id="text_16">
      <!-- 75 -->
      <g transform="translate(43.275 62.362336)scale(0.1 -0.1)">
       <use xlink:href="#DejaVuSans-37"/>
       <use x="63.623047" xlink:href="#DejaVuSans-35"/>
      </g>
     </g>
    </g>
   </g>
   <g id="line2d_17">
    <path clip-path="url(#p7b0247fb16)" d="M 80.754545 155.382412 
L 82.760709 139.245863 
L 86.773035 127.143451 
L 88.779199 115.041039 
L 90.785362 114.032505 
L 92.791525 121.092245 
L 94.797689 132.186122 
L 96.803852 135.211725 
L 98.810015 137.228794 
L 100.816179 137.228794 
L 102.822342 148.322672 
L 104.828505 152.356809 
L 106.834669 155.382412 
L 110.846995 117.058108 
L 112.853159 94.870353 
L 114.859322 77.725269 
L 116.865485 68.64846 
L 118.871649 75.7082 
L 120.877812 102.938627 
L 124.890139 127.143451 
L 126.896302 135.211725 
L 128.902465 136.22026 
L 130.908629 128.151985 
L 132.914792 114.032505 
L 134.920955 106.972764 
L 136.927119 107.981299 
L 138.933282 125.126382 
L 140.939445 138.237328 
L 142.945609 146.305603 
L 144.951772 133.194657 
L 146.957935 133.194657 
L 148.964099 130.169054 
L 150.970262 128.151985 
L 152.976425 130.169054 
L 154.982589 138.237328 
L 156.988752 149.331206 
L 158.994915 154.373878 
L 161.001079 168.493358 
L 163.007242 180.59577 
L 165.013405 177.570167 
L 173.038059 193.706716 
L 175.044222 204.800594 
L 177.050385 200.766456 
L 179.056549 187.65551 
L 181.062712 160.425083 
L 183.068875 136.22026 
L 185.075039 116.049573 
L 187.081202 98.90449 
L 189.087365 100.921558 
L 191.093529 107.981299 
L 193.099692 125.126382 
L 195.105855 147.314137 
L 197.112018 154.373878 
L 199.118182 155.382412 
L 201.124345 137.228794 
L 203.130508 132.186122 
L 209.148998 66.631391 
L 211.155162 62.597254 
L 213.161325 70.665529 
L 215.167488 84.785009 
L 217.173652 115.041039 
L 219.179815 135.211725 
L 221.185978 142.271466 
L 223.192142 139.245863 
L 225.198305 134.203191 
L 229.210632 93.861818 
L 231.216795 79.742338 
L 233.222958 75.7082 
L 235.229122 81.759406 
L 237.235285 96.887421 
L 239.241448 120.083711 
L 241.247612 136.22026 
L 243.253775 143.28 
L 245.259938 132.186122 
L 247.266102 111.006902 
L 249.272265 92.853284 
L 251.278428 91.84475 
L 253.284592 103.947161 
L 255.290755 106.972764 
L 257.296918 116.049573 
L 259.303082 132.186122 
L 261.309245 135.211725 
L 263.315408 122.100779 
L 267.327735 78.733803 
L 269.333898 53.520445 
L 271.340062 44.443636 
L 273.346225 46.460705 
L 275.352388 56.546048 
L 277.358552 76.716735 
L 279.364715 115.041039 
L 281.370878 164.459221 
L 283.377042 207.826197 
L 285.383205 238.082226 
L 287.389368 242.116364 
L 289.395532 225.979814 
L 293.407858 170.510427 
L 297.420185 102.938627 
L 299.426348 86.802078 
L 301.432512 92.853284 
L 303.438675 107.981299 
L 307.451002 136.22026 
L 309.457165 145.297069 
L 311.463328 152.356809 
L 313.469492 168.493358 
L 315.475655 186.646976 
L 317.481818 190.681113 
L 319.487982 172.527495 
L 321.494145 150.33974 
L 323.500308 125.126382 
L 325.506471 115.041039 
L 327.512635 126.134917 
L 329.518798 153.365343 
L 331.524961 169.501892 
L 333.531125 163.450686 
L 335.537288 149.331206 
L 337.543451 130.169054 
L 339.549615 113.02397 
L 341.555778 104.955696 
L 343.561941 108.989833 
L 345.568105 117.058108 
L 347.574268 132.186122 
L 349.580431 157.399481 
L 351.586595 174.544564 
L 353.592758 175.553098 
L 355.598921 157.399481 
L 357.605085 134.203191 
L 359.611248 108.989833 
L 361.617411 93.861818 
L 363.623575 96.887421 
L 365.629738 104.955696 
L 369.642065 137.228794 
L 371.648228 145.297069 
L 373.654391 141.262931 
L 375.660555 133.194657 
L 377.666718 124.117848 
L 379.672881 125.126382 
L 381.679045 131.177588 
L 383.685208 133.194657 
L 385.691371 139.245863 
L 387.697535 130.169054 
L 389.703698 113.02397 
L 391.709861 96.887421 
L 393.716025 92.853284 
L 395.722188 79.742338 
L 397.728351 81.759406 
L 399.734515 94.870353 
L 401.740678 105.96423 
L 403.746841 128.151985 
L 405.753005 142.271466 
L 407.759168 138.237328 
L 409.765331 126.134917 
L 411.771495 106.972764 
L 413.777658 93.861818 
L 415.783821 79.742338 
L 417.789985 79.742338 
L 419.796148 90.836215 
L 421.802311 105.96423 
L 423.808475 108.989833 
L 425.814638 115.041039 
L 427.820801 103.947161 
L 429.826965 98.90449 
L 431.833128 107.981299 
L 433.839291 129.160519 
L 435.845455 147.314137 
L 435.845455 147.314137 
" style="fill:none;stroke:#1f77b4;stroke-linecap:square;stroke-width:1.5;"/>
   </g>
   <g id="patch_3">
    <path d="M 63 252 
L 63 34.56 
" style="fill:none;stroke:#000000;stroke-linecap:square;stroke-linejoin:miter;stroke-width:0.8;"/>
   </g>
   <g id="patch_4">
    <path d="M 453.6 252 
L 453.6 34.56 
" style="fill:none;stroke:#000000;stroke-linecap:square;stroke-linejoin:miter;stroke-width:0.8;"/>
   </g>
   <g id="patch_5">
    <path d="M 63 252 
L 453.6 252 
" style="fill:none;stroke:#000000;stroke-linecap:square;stroke-linejoin:miter;stroke-width:0.8;"/>
   </g>
   <g id="patch_6">
    <path d="M 63 34.56 
L 453.6 34.56 
" style="fill:none;stroke:#000000;stroke-linecap:square;stroke-linejoin:miter;stroke-width:0.8;"/>
   </g>
  </g>
 </g>
 <defs>
  <clipPath id="p7b0247fb16">
   <rect height="217.44" width="390.6" x="63" y="34.56"/>
  </clipPath>
 </defs>
</svg>
