<?xml version="1.0" encoding="utf-8" standalone="no"?>
<!DOCTYPE svg PUBLIC "-//W3C//DTD SVG 1.1//EN"
  "http://www.w3.org/Graphics/SVG/1.1/DTD/svg11.dtd">
<!-- Created with matplotlib (http://matplotlib.org/) -->
<svg height="288pt" version="1.1" viewBox="0 0 504 288" width="504pt" xmlns="http://www.w3.org/2000/svg" xmlns:xlink="http://www.w3.org/1999/xlink">
 <defs>
  <style type="text/css">
*{stroke-linecap:butt;stroke-linejoin:round;}
  </style>
 </defs>
 <g id="figure_1">
  <g id="patch_1">
   <path d="M 0 288 
L 504 288 
L 504 0 
L 0 0 
z
" style="fill:#ffffff;"/>
  </g>
  <g id="axes_1">
   <g id="patch_2">
    <path d="M 63 252 
L 453.6 252 
L 453.6 34.56 
L 63 34.56 
z
" style="fill:#ffffff;"/>
   </g>
   <g id="matplotlib.axis_1">
    <g id="xtick_1">
     <g id="line2d_1">
      <defs>
       <path d="M 0 0 
L 0 3.5 
" id="me9611b829d" style="stroke:#000000;stroke-width:0.8;"/>
      </defs>
      <g>
       <use style="stroke:#000000;stroke-width:0.8;" x="80.754545" xlink:href="#me9611b829d" y="252"/>
      </g>
     </g>
     <g id="text_1">
      <!-- 0 -->
      <defs>
       <path d="M 31.78125 66.40625 
Q 24.171875 66.40625 20.328125 58.90625 
Q 16.5 51.421875 16.5 36.375 
Q 16.5 21.390625 20.328125 13.890625 
Q 24.171875 6.390625 31.78125 6.390625 
Q 39.453125 6.390625 43.28125 13.890625 
Q 47.125 21.390625 47.125 36.375 
Q 47.125 51.421875 43.28125 58.90625 
Q 39.453125 66.40625 31.78125 66.40625 
z
M 31.78125 74.21875 
Q 44.046875 74.21875 50.515625 64.515625 
Q 56.984375 54.828125 56.984375 36.375 
Q 56.984375 17.96875 50.515625 8.265625 
Q 44.046875 -1.421875 31.78125 -1.421875 
Q 19.53125 -1.421875 13.0625 8.265625 
Q 6.59375 17.96875 6.59375 36.375 
Q 6.59375 54.828125 13.0625 64.515625 
Q 19.53125 74.21875 31.78125 74.21875 
z
" id="DejaVuSans-30"/>
      </defs>
      <g transform="translate(77.573295 266.598437)scale(0.1 -0.1)">
       <use xlink:href="#DejaVuSans-30"/>
      </g>
     </g>
    </g>
    <g id="xtick_2">
     <g id="line2d_2">
      <g>
       <use style="stroke:#000000;stroke-width:0.8;" x="130.908629" xlink:href="#me9611b829d" y="252"/>
      </g>
     </g>
     <g id="text_2">
      <!-- 25 -->
      <defs>
       <path d="M 19.1875 8.296875 
L 53.609375 8.296875 
L 53.609375 0 
L 7.328125 0 
L 7.328125 8.296875 
Q 12.9375 14.109375 22.625 23.890625 
Q 32.328125 33.6875 34.8125 36.53125 
Q 39.546875 41.84375 41.421875 45.53125 
Q 43.3125 49.21875 43.3125 52.78125 
Q 43.3125 58.59375 39.234375 62.25 
Q 35.15625 65.921875 28.609375 65.921875 
Q 23.96875 65.921875 18.8125 64.3125 
Q 13.671875 62.703125 7.8125 59.421875 
L 7.8125 69.390625 
Q 13.765625 71.78125 18.9375 73 
Q 24.125 74.21875 28.421875 74.21875 
Q 39.75 74.21875 46.484375 68.546875 
Q 53.21875 62.890625 53.21875 53.421875 
Q 53.21875 48.921875 51.53125 44.890625 
Q 49.859375 40.875 45.40625 35.40625 
Q 44.1875 33.984375 37.640625 27.21875 
Q 31.109375 20.453125 19.1875 8.296875 
z
" id="DejaVuSans-32"/>
       <path d="M 10.796875 72.90625 
L 49.515625 72.90625 
L 49.515625 64.59375 
L 19.828125 64.59375 
L 19.828125 46.734375 
Q 21.96875 47.46875 24.109375 47.828125 
Q 26.265625 48.1875 28.421875 48.1875 
Q 40.625 48.1875 47.75 41.5 
Q 54.890625 34.8125 54.890625 23.390625 
Q 54.890625 11.625 47.5625 5.09375 
Q 40.234375 -1.421875 26.90625 -1.421875 
Q 22.3125 -1.421875 17.546875 -0.640625 
Q 12.796875 0.140625 7.71875 1.703125 
L 7.71875 11.625 
Q 12.109375 9.234375 16.796875 8.0625 
Q 21.484375 6.890625 26.703125 6.890625 
Q 35.15625 6.890625 40.078125 11.328125 
Q 45.015625 15.765625 45.015625 23.390625 
Q 45.015625 31 40.078125 35.4375 
Q 35.15625 39.890625 26.703125 39.890625 
Q 22.75 39.890625 18.8125 39.015625 
Q 14.890625 38.140625 10.796875 36.28125 
z
" id="DejaVuSans-35"/>
      </defs>
      <g transform="translate(124.546129 266.598437)scale(0.1 -0.1)">
       <use xlink:href="#DejaVuSans-32"/>
       <use x="63.623047" xlink:href="#DejaVuSans-35"/>
      </g>
     </g>
    </g>
    <g id="xtick_3">
     <g id="line2d_3">
      <g>
       <use style="stroke:#000000;stroke-width:0.8;" x="181.062712" xlink:href="#me9611b829d" y="252"/>
      </g>
     </g>
     <g id="text_3">
      <!-- 50 -->
      <g transform="translate(174.700212 266.598437)scale(0.1 -0.1)">
       <use xlink:href="#DejaVuSans-35"/>
       <use x="63.623047" xlink:href="#DejaVuSans-30"/>
      </g>
     </g>
    </g>
    <g id="xtick_4">
     <g id="line2d_4">
      <g>
       <use style="stroke:#000000;stroke-width:0.8;" x="231.216795" xlink:href="#me9611b829d" y="252"/>
      </g>
     </g>
     <g id="text_4">
      <!-- 75 -->
      <defs>
       <path d="M 8.203125 72.90625 
L 55.078125 72.90625 
L 55.078125 68.703125 
L 28.609375 0 
L 18.3125 0 
L 43.21875 64.59375 
L 8.203125 64.59375 
z
" id="DejaVuSans-37"/>
      </defs>
      <g transform="translate(224.854295 266.598437)scale(0.1 -0.1)">
       <use xlink:href="#DejaVuSans-37"/>
       <use x="63.623047" xlink:href="#DejaVuSans-35"/>
      </g>
     </g>
    </g>
    <g id="xtick_5">
     <g id="line2d_5">
      <g>
       <use style="stroke:#000000;stroke-width:0.8;" x="281.370878" xlink:href="#me9611b829d" y="252"/>
      </g>
     </g>
     <g id="text_5">
      <!-- 100 -->
      <defs>
       <path d="M 12.40625 8.296875 
L 28.515625 8.296875 
L 28.515625 63.921875 
L 10.984375 60.40625 
L 10.984375 69.390625 
L 28.421875 72.90625 
L 38.28125 72.90625 
L 38.28125 8.296875 
L 54.390625 8.296875 
L 54.390625 0 
L 12.40625 0 
z
" id="DejaVuSans-31"/>
      </defs>
      <g transform="translate(271.827128 266.598437)scale(0.1 -0.1)">
       <use xlink:href="#DejaVuSans-31"/>
       <use x="63.623047" xlink:href="#DejaVuSans-30"/>
       <use x="127.246094" xlink:href="#DejaVuSans-30"/>
      </g>
     </g>
    </g>
    <g id="xtick_6">
     <g id="line2d_6">
      <g>
       <use style="stroke:#000000;stroke-width:0.8;" x="331.524961" xlink:href="#me9611b829d" y="252"/>
      </g>
     </g>
     <g id="text_6">
      <!-- 125 -->
      <g transform="translate(321.981211 266.598437)scale(0.1 -0.1)">
       <use xlink:href="#DejaVuSans-31"/>
       <use x="63.623047" xlink:href="#DejaVuSans-32"/>
       <use x="127.246094" xlink:href="#DejaVuSans-35"/>
      </g>
     </g>
    </g>
    <g id="xtick_7">
     <g id="line2d_7">
      <g>
       <use style="stroke:#000000;stroke-width:0.8;" x="381.679045" xlink:href="#me9611b829d" y="252"/>
      </g>
     </g>
     <g id="text_7">
      <!-- 150 -->
      <g transform="translate(372.135295 266.598437)scale(0.1 -0.1)">
       <use xlink:href="#DejaVuSans-31"/>
       <use x="63.623047" xlink:href="#DejaVuSans-35"/>
       <use x="127.246094" xlink:href="#DejaVuSans-30"/>
      </g>
     </g>
    </g>
    <g id="xtick_8">
     <g id="line2d_8">
      <g>
       <use style="stroke:#000000;stroke-width:0.8;" x="431.833128" xlink:href="#me9611b829d" y="252"/>
      </g>
     </g>
     <g id="text_8">
      <!-- 175 -->
      <g transform="translate(422.289378 266.598437)scale(0.1 -0.1)">
       <use xlink:href="#DejaVuSans-31"/>
       <use x="63.623047" xlink:href="#DejaVuSans-37"/>
       <use x="127.246094" xlink:href="#DejaVuSans-35"/>
      </g>
     </g>
    </g>
   </g>
   <g id="matplotlib.axis_2">
    <g id="ytick_1">
     <g id="line2d_9">
      <defs>
       <path d="M 0 0 
L -3.5 0 
" id="m59ee9ecc1d" style="stroke:#000000;stroke-width:0.8;"/>
      </defs>
      <g>
       <use style="stroke:#000000;stroke-width:0.8;" x="63" xlink:href="#m59ee9ecc1d" y="240.754356"/>
      </g>
     </g>
     <g id="text_9">
      <!-- −1000 -->
      <defs>
       <path d="M 10.59375 35.5 
L 73.1875 35.5 
L 73.1875 27.203125 
L 10.59375 27.203125 
z
" id="DejaVuSans-2212"/>
      </defs>
      <g transform="translate(22.170313 244.553575)scale(0.1 -0.1)">
       <use xlink:href="#DejaVuSans-2212"/>
       <use x="83.789062" xlink:href="#DejaVuSans-31"/>
       <use x="147.412109" xlink:href="#DejaVuSans-30"/>
       <use x="211.035156" xlink:href="#DejaVuSans-30"/>
       <use x="274.658203" xlink:href="#DejaVuSans-30"/>
      </g>
     </g>
    </g>
    <g id="ytick_2">
     <g id="line2d_10">
      <g>
       <use style="stroke:#000000;stroke-width:0.8;" x="63" xlink:href="#m59ee9ecc1d" y="195.354097"/>
      </g>
     </g>
     <g id="text_10">
      <!-- −500 -->
      <g transform="translate(28.532812 199.153316)scale(0.1 -0.1)">
       <use xlink:href="#DejaVuSans-2212"/>
       <use x="83.789062" xlink:href="#DejaVuSans-35"/>
       <use x="147.412109" xlink:href="#DejaVuSans-30"/>
       <use x="211.035156" xlink:href="#DejaVuSans-30"/>
      </g>
     </g>
    </g>
    <g id="ytick_3">
     <g id="line2d_11">
      <g>
       <use style="stroke:#000000;stroke-width:0.8;" x="63" xlink:href="#m59ee9ecc1d" y="149.953838"/>
      </g>
     </g>
     <g id="text_11">
      <!-- 0 -->
      <g transform="translate(49.6375 153.753057)scale(0.1 -0.1)">
       <use xlink:href="#DejaVuSans-30"/>
      </g>
     </g>
    </g>
    <g id="ytick_4">
     <g id="line2d_12">
      <g>
       <use style="stroke:#000000;stroke-width:0.8;" x="63" xlink:href="#m59ee9ecc1d" y="104.553579"/>
      </g>
     </g>
     <g id="text_12">
      <!-- 500 -->
      <g transform="translate(36.9125 108.352798)scale(0.1 -0.1)">
       <use xlink:href="#DejaVuSans-35"/>
       <use x="63.623047" xlink:href="#DejaVuSans-30"/>
       <use x="127.246094" xlink:href="#DejaVuSans-30"/>
      </g>
     </g>
    </g>
    <g id="ytick_5">
     <g id="line2d_13">
      <g>
       <use style="stroke:#000000;stroke-width:0.8;" x="63" xlink:href="#m59ee9ecc1d" y="59.15332"/>
      </g>
     </g>
     <g id="text_13">
      <!-- 1000 -->
      <g transform="translate(30.55 62.952539)scale(0.1 -0.1)">
       <use xlink:href="#DejaVuSans-31"/>
       <use x="63.623047" xlink:href="#DejaVuSans-30"/>
       <use x="127.246094" xlink:href="#DejaVuSans-30"/>
       <use x="190.869141" xlink:href="#DejaVuSans-30"/>
      </g>
     </g>
    </g>
   </g>
   <g id="line2d_14">
    <path clip-path="url(#p8b73b11210)" d="M 80.754545 96.109131 
L 82.760709 120.171268 
L 84.766872 141.963392 
L 86.773035 159.578693 
L 88.779199 191.358874 
L 90.785362 216.419817 
L 92.791525 233.581115 
L 94.797689 220.959843 
L 98.810015 172.472366 
L 100.816179 156.128273 
L 102.822342 141.872592 
L 104.828505 129.886924 
L 106.834669 118.900061 
L 108.840832 119.444864 
L 110.846995 130.068525 
L 112.853159 142.508196 
L 114.859322 152.859455 
L 116.865485 157.490281 
L 118.871649 160.305097 
L 120.877812 162.121107 
L 122.883975 162.121107 
L 124.890139 160.214297 
L 126.896302 159.12469 
L 128.902465 159.851095 
L 130.908629 160.123496 
L 132.914792 160.577499 
L 134.920955 159.306291 
L 136.927119 157.490281 
L 138.933282 151.769848 
L 140.939445 129.977724 
L 142.945609 98.742346 
L 144.951772 63.057743 
L 146.957935 44.443636 
L 148.964099 47.803256 
L 150.970262 61.423333 
L 152.976425 76.67782 
L 154.982589 85.031468 
L 156.988752 88.481888 
L 158.994915 111.363618 
L 161.001079 146.321817 
L 163.007242 200.166524 
L 165.013405 236.21433 
L 167.019569 240.118752 
L 169.025732 200.257325 
L 171.031895 145.504613 
L 173.038059 97.834341 
L 175.044222 75.860616 
L 177.050385 83.487859 
L 179.056549 105.007582 
L 181.062712 144.415006 
L 183.068875 178.2836 
L 185.075039 195.081695 
L 187.081202 191.994478 
L 189.087365 173.380372 
L 191.093529 156.582276 
L 193.099692 146.77582 
L 195.105855 143.3254 
L 197.112018 143.961004 
L 201.124345 151.679048 
L 203.130508 153.949061 
L 207.142835 154.675465 
L 209.148998 154.312263 
L 211.155162 151.679048 
L 213.161325 146.957421 
L 215.167488 141.418589 
L 217.173652 136.515361 
L 219.179815 133.246543 
L 221.185978 131.248931 
L 223.192142 130.431727 
L 225.198305 128.797317 
L 227.204468 129.25132 
L 231.216795 128.797317 
L 233.222958 129.432921 
L 235.229122 128.252514 
L 237.235285 127.980113 
L 239.241448 125.891701 
L 241.247612 126.073302 
L 243.253775 131.521333 
L 245.259938 143.961004 
L 247.266102 159.760294 
L 249.272265 174.651579 
L 251.278428 183.822431 
L 253.284592 188.271657 
L 255.290755 186.818848 
L 257.296918 182.914426 
L 261.309245 173.289571 
L 263.315408 168.749545 
L 267.327735 163.664716 
L 269.333898 162.121107 
L 271.340062 156.219074 
L 273.346225 131.06733 
L 275.352388 96.109131 
L 277.358552 66.598963 
L 279.364715 71.229789 
L 281.370878 95.291926 
L 287.389368 200.166524 
L 289.395532 230.584698 
L 291.401695 242.116364 
L 293.407858 229.858294 
L 295.414022 201.528532 
L 297.420185 169.56675 
L 299.426348 143.052999 
L 301.432512 123.803289 
L 303.438675 117.265652 
L 305.444838 124.166491 
L 307.451002 139.420978 
L 309.457165 158.398286 
L 311.463328 172.926369 
L 313.469492 178.465201 
L 315.475655 177.920398 
L 317.481818 174.651579 
L 319.487982 172.381566 
L 321.494145 172.744768 
L 323.500308 172.563167 
L 325.506471 171.655162 
L 327.512635 170.383955 
L 329.518798 170.111553 
L 331.524961 171.473561 
L 333.531125 174.379177 
L 335.537288 176.013587 
L 337.543451 173.471172 
L 339.549615 168.295543 
L 341.555778 154.584664 
L 343.561941 126.527304 
L 345.568105 94.565522 
L 347.574268 59.788924 
L 349.580431 50.436471 
L 351.586595 57.700512 
L 353.592758 72.228595 
L 355.598921 84.486665 
L 357.605085 86.847478 
L 359.611248 88.391087 
L 361.617411 106.641991 
L 363.623575 140.601385 
L 365.629738 192.720882 
L 367.635901 225.409068 
L 369.642065 230.675498 
L 371.648228 199.076918 
L 373.654391 158.489087 
L 375.660555 124.166491 
L 377.666718 110.364812 
L 379.672881 120.806872 
L 381.679045 138.331372 
L 383.685208 161.848706 
L 385.691371 180.09961 
L 387.697535 182.460423 
L 389.703698 179.010004 
L 393.716025 157.217879 
L 395.722188 147.865426 
L 397.728351 140.601385 
L 399.734515 136.24296 
L 401.740678 134.608551 
L 405.753005 133.972947 
L 407.759168 134.245348 
L 409.765331 134.336149 
L 411.771495 132.610939 
L 413.777658 130.250126 
L 415.783821 127.43531 
L 417.789985 125.346898 
L 419.796148 121.624077 
L 421.802311 117.265652 
L 423.808475 111.72682 
L 425.814638 109.547608 
L 427.820801 112.453224 
L 429.826965 121.805678 
L 433.839291 146.231017 
L 435.845455 156.400675 
L 435.845455 156.400675 
" style="fill:none;stroke:#1f77b4;stroke-linecap:square;stroke-width:1.5;"/>
   </g>
   <g id="patch_3">
    <path d="M 63 252 
L 63 34.56 
" style="fill:none;stroke:#000000;stroke-linecap:square;stroke-linejoin:miter;stroke-width:0.8;"/>
   </g>
   <g id="patch_4">
    <path d="M 453.6 252 
L 453.6 34.56 
" style="fill:none;stroke:#000000;stroke-linecap:square;stroke-linejoin:miter;stroke-width:0.8;"/>
   </g>
   <g id="patch_5">
    <path d="M 63 252 
L 453.6 252 
" style="fill:none;stroke:#000000;stroke-linecap:square;stroke-linejoin:miter;stroke-width:0.8;"/>
   </g>
   <g id="patch_6">
    <path d="M 63 34.56 
L 453.6 34.56 
" style="fill:none;stroke:#000000;stroke-linecap:square;stroke-linejoin:miter;stroke-width:0.8;"/>
   </g>
  </g>
 </g>
 <defs>
  <clipPath id="p8b73b11210">
   <rect height="217.44" width="390.6" x="63" y="34.56"/>
  </clipPath>
 </defs>
</svg>
