<?xml version="1.0" encoding="utf-8" standalone="no"?>
<!DOCTYPE svg PUBLIC "-//W3C//DTD SVG 1.1//EN"
  "http://www.w3.org/Graphics/SVG/1.1/DTD/svg11.dtd">
<!-- Created with matplotlib (http://matplotlib.org/) -->
<svg height="288pt" version="1.1" viewBox="0 0 504 288" width="504pt" xmlns="http://www.w3.org/2000/svg" xmlns:xlink="http://www.w3.org/1999/xlink">
 <defs>
  <style type="text/css">
*{stroke-linecap:butt;stroke-linejoin:round;}
  </style>
 </defs>
 <g id="figure_1">
  <g id="patch_1">
   <path d="M 0 288 
L 504 288 
L 504 0 
L 0 0 
z
" style="fill:#ffffff;"/>
  </g>
  <g id="axes_1">
   <g id="patch_2">
    <path d="M 63 252 
L 453.6 252 
L 453.6 34.56 
L 63 34.56 
z
" style="fill:#ffffff;"/>
   </g>
   <g id="matplotlib.axis_1">
    <g id="xtick_1">
     <g id="line2d_1">
      <defs>
       <path d="M 0 0 
L 0 3.5 
" id="m03ee325941" style="stroke:#000000;stroke-width:0.8;"/>
      </defs>
      <g>
       <use style="stroke:#000000;stroke-width:0.8;" x="80.754545" xlink:href="#m03ee325941" y="252"/>
      </g>
     </g>
     <g id="text_1">
      <!-- 0 -->
      <defs>
       <path d="M 31.78125 66.40625 
Q 24.171875 66.40625 20.328125 58.90625 
Q 16.5 51.421875 16.5 36.375 
Q 16.5 21.390625 20.328125 13.890625 
Q 24.171875 6.390625 31.78125 6.390625 
Q 39.453125 6.390625 43.28125 13.890625 
Q 47.125 21.390625 47.125 36.375 
Q 47.125 51.421875 43.28125 58.90625 
Q 39.453125 66.40625 31.78125 66.40625 
z
M 31.78125 74.21875 
Q 44.046875 74.21875 50.515625 64.515625 
Q 56.984375 54.828125 56.984375 36.375 
Q 56.984375 17.96875 50.515625 8.265625 
Q 44.046875 -1.421875 31.78125 -1.421875 
Q 19.53125 -1.421875 13.0625 8.265625 
Q 6.59375 17.96875 6.59375 36.375 
Q 6.59375 54.828125 13.0625 64.515625 
Q 19.53125 74.21875 31.78125 74.21875 
z
" id="DejaVuSans-30"/>
      </defs>
      <g transform="translate(77.573295 266.598437)scale(0.1 -0.1)">
       <use xlink:href="#DejaVuSans-30"/>
      </g>
     </g>
    </g>
    <g id="xtick_2">
     <g id="line2d_2">
      <g>
       <use style="stroke:#000000;stroke-width:0.8;" x="130.908629" xlink:href="#m03ee325941" y="252"/>
      </g>
     </g>
     <g id="text_2">
      <!-- 25 -->
      <defs>
       <path d="M 19.1875 8.296875 
L 53.609375 8.296875 
L 53.609375 0 
L 7.328125 0 
L 7.328125 8.296875 
Q 12.9375 14.109375 22.625 23.890625 
Q 32.328125 33.6875 34.8125 36.53125 
Q 39.546875 41.84375 41.421875 45.53125 
Q 43.3125 49.21875 43.3125 52.78125 
Q 43.3125 58.59375 39.234375 62.25 
Q 35.15625 65.921875 28.609375 65.921875 
Q 23.96875 65.921875 18.8125 64.3125 
Q 13.671875 62.703125 7.8125 59.421875 
L 7.8125 69.390625 
Q 13.765625 71.78125 18.9375 73 
Q 24.125 74.21875 28.421875 74.21875 
Q 39.75 74.21875 46.484375 68.546875 
Q 53.21875 62.890625 53.21875 53.421875 
Q 53.21875 48.921875 51.53125 44.890625 
Q 49.859375 40.875 45.40625 35.40625 
Q 44.1875 33.984375 37.640625 27.21875 
Q 31.109375 20.453125 19.1875 8.296875 
z
" id="DejaVuSans-32"/>
       <path d="M 10.796875 72.90625 
L 49.515625 72.90625 
L 49.515625 64.59375 
L 19.828125 64.59375 
L 19.828125 46.734375 
Q 21.96875 47.46875 24.109375 47.828125 
Q 26.265625 48.1875 28.421875 48.1875 
Q 40.625 48.1875 47.75 41.5 
Q 54.890625 34.8125 54.890625 23.390625 
Q 54.890625 11.625 47.5625 5.09375 
Q 40.234375 -1.421875 26.90625 -1.421875 
Q 22.3125 -1.421875 17.546875 -0.640625 
Q 12.796875 0.140625 7.71875 1.703125 
L 7.71875 11.625 
Q 12.109375 9.234375 16.796875 8.0625 
Q 21.484375 6.890625 26.703125 6.890625 
Q 35.15625 6.890625 40.078125 11.328125 
Q 45.015625 15.765625 45.015625 23.390625 
Q 45.015625 31 40.078125 35.4375 
Q 35.15625 39.890625 26.703125 39.890625 
Q 22.75 39.890625 18.8125 39.015625 
Q 14.890625 38.140625 10.796875 36.28125 
z
" id="DejaVuSans-35"/>
      </defs>
      <g transform="translate(124.546129 266.598437)scale(0.1 -0.1)">
       <use xlink:href="#DejaVuSans-32"/>
       <use x="63.623047" xlink:href="#DejaVuSans-35"/>
      </g>
     </g>
    </g>
    <g id="xtick_3">
     <g id="line2d_3">
      <g>
       <use style="stroke:#000000;stroke-width:0.8;" x="181.062712" xlink:href="#m03ee325941" y="252"/>
      </g>
     </g>
     <g id="text_3">
      <!-- 50 -->
      <g transform="translate(174.700212 266.598437)scale(0.1 -0.1)">
       <use xlink:href="#DejaVuSans-35"/>
       <use x="63.623047" xlink:href="#DejaVuSans-30"/>
      </g>
     </g>
    </g>
    <g id="xtick_4">
     <g id="line2d_4">
      <g>
       <use style="stroke:#000000;stroke-width:0.8;" x="231.216795" xlink:href="#m03ee325941" y="252"/>
      </g>
     </g>
     <g id="text_4">
      <!-- 75 -->
      <defs>
       <path d="M 8.203125 72.90625 
L 55.078125 72.90625 
L 55.078125 68.703125 
L 28.609375 0 
L 18.3125 0 
L 43.21875 64.59375 
L 8.203125 64.59375 
z
" id="DejaVuSans-37"/>
      </defs>
      <g transform="translate(224.854295 266.598437)scale(0.1 -0.1)">
       <use xlink:href="#DejaVuSans-37"/>
       <use x="63.623047" xlink:href="#DejaVuSans-35"/>
      </g>
     </g>
    </g>
    <g id="xtick_5">
     <g id="line2d_5">
      <g>
       <use style="stroke:#000000;stroke-width:0.8;" x="281.370878" xlink:href="#m03ee325941" y="252"/>
      </g>
     </g>
     <g id="text_5">
      <!-- 100 -->
      <defs>
       <path d="M 12.40625 8.296875 
L 28.515625 8.296875 
L 28.515625 63.921875 
L 10.984375 60.40625 
L 10.984375 69.390625 
L 28.421875 72.90625 
L 38.28125 72.90625 
L 38.28125 8.296875 
L 54.390625 8.296875 
L 54.390625 0 
L 12.40625 0 
z
" id="DejaVuSans-31"/>
      </defs>
      <g transform="translate(271.827128 266.598437)scale(0.1 -0.1)">
       <use xlink:href="#DejaVuSans-31"/>
       <use x="63.623047" xlink:href="#DejaVuSans-30"/>
       <use x="127.246094" xlink:href="#DejaVuSans-30"/>
      </g>
     </g>
    </g>
    <g id="xtick_6">
     <g id="line2d_6">
      <g>
       <use style="stroke:#000000;stroke-width:0.8;" x="331.524961" xlink:href="#m03ee325941" y="252"/>
      </g>
     </g>
     <g id="text_6">
      <!-- 125 -->
      <g transform="translate(321.981211 266.598437)scale(0.1 -0.1)">
       <use xlink:href="#DejaVuSans-31"/>
       <use x="63.623047" xlink:href="#DejaVuSans-32"/>
       <use x="127.246094" xlink:href="#DejaVuSans-35"/>
      </g>
     </g>
    </g>
    <g id="xtick_7">
     <g id="line2d_7">
      <g>
       <use style="stroke:#000000;stroke-width:0.8;" x="381.679045" xlink:href="#m03ee325941" y="252"/>
      </g>
     </g>
     <g id="text_7">
      <!-- 150 -->
      <g transform="translate(372.135295 266.598437)scale(0.1 -0.1)">
       <use xlink:href="#DejaVuSans-31"/>
       <use x="63.623047" xlink:href="#DejaVuSans-35"/>
       <use x="127.246094" xlink:href="#DejaVuSans-30"/>
      </g>
     </g>
    </g>
    <g id="xtick_8">
     <g id="line2d_8">
      <g>
       <use style="stroke:#000000;stroke-width:0.8;" x="431.833128" xlink:href="#m03ee325941" y="252"/>
      </g>
     </g>
     <g id="text_8">
      <!-- 175 -->
      <g transform="translate(422.289378 266.598437)scale(0.1 -0.1)">
       <use xlink:href="#DejaVuSans-31"/>
       <use x="63.623047" xlink:href="#DejaVuSans-37"/>
       <use x="127.246094" xlink:href="#DejaVuSans-35"/>
      </g>
     </g>
    </g>
   </g>
   <g id="matplotlib.axis_2">
    <g id="ytick_1">
     <g id="line2d_9">
      <defs>
       <path d="M 0 0 
L -3.5 0 
" id="m90e1a6e47e" style="stroke:#000000;stroke-width:0.8;"/>
      </defs>
      <g>
       <use style="stroke:#000000;stroke-width:0.8;" x="63" xlink:href="#m90e1a6e47e" y="233.379448"/>
      </g>
     </g>
     <g id="text_9">
      <!-- −200 -->
      <defs>
       <path d="M 10.59375 35.5 
L 73.1875 35.5 
L 73.1875 27.203125 
L 10.59375 27.203125 
z
" id="DejaVuSans-2212"/>
      </defs>
      <g transform="translate(28.532812 237.178666)scale(0.1 -0.1)">
       <use xlink:href="#DejaVuSans-2212"/>
       <use x="83.789062" xlink:href="#DejaVuSans-32"/>
       <use x="147.412109" xlink:href="#DejaVuSans-30"/>
       <use x="211.035156" xlink:href="#DejaVuSans-30"/>
      </g>
     </g>
    </g>
    <g id="ytick_2">
     <g id="line2d_10">
      <g>
       <use style="stroke:#000000;stroke-width:0.8;" x="63" xlink:href="#m90e1a6e47e" y="206.076585"/>
      </g>
     </g>
     <g id="text_10">
      <!-- −150 -->
      <g transform="translate(28.532812 209.875803)scale(0.1 -0.1)">
       <use xlink:href="#DejaVuSans-2212"/>
       <use x="83.789062" xlink:href="#DejaVuSans-31"/>
       <use x="147.412109" xlink:href="#DejaVuSans-35"/>
       <use x="211.035156" xlink:href="#DejaVuSans-30"/>
      </g>
     </g>
    </g>
    <g id="ytick_3">
     <g id="line2d_11">
      <g>
       <use style="stroke:#000000;stroke-width:0.8;" x="63" xlink:href="#m90e1a6e47e" y="178.773722"/>
      </g>
     </g>
     <g id="text_11">
      <!-- −100 -->
      <g transform="translate(28.532812 182.57294)scale(0.1 -0.1)">
       <use xlink:href="#DejaVuSans-2212"/>
       <use x="83.789062" xlink:href="#DejaVuSans-31"/>
       <use x="147.412109" xlink:href="#DejaVuSans-30"/>
       <use x="211.035156" xlink:href="#DejaVuSans-30"/>
      </g>
     </g>
    </g>
    <g id="ytick_4">
     <g id="line2d_12">
      <g>
       <use style="stroke:#000000;stroke-width:0.8;" x="63" xlink:href="#m90e1a6e47e" y="151.470859"/>
      </g>
     </g>
     <g id="text_12">
      <!-- −50 -->
      <g transform="translate(34.895313 155.270078)scale(0.1 -0.1)">
       <use xlink:href="#DejaVuSans-2212"/>
       <use x="83.789062" xlink:href="#DejaVuSans-35"/>
       <use x="147.412109" xlink:href="#DejaVuSans-30"/>
      </g>
     </g>
    </g>
    <g id="ytick_5">
     <g id="line2d_13">
      <g>
       <use style="stroke:#000000;stroke-width:0.8;" x="63" xlink:href="#m90e1a6e47e" y="124.167996"/>
      </g>
     </g>
     <g id="text_13">
      <!-- 0 -->
      <g transform="translate(49.6375 127.967215)scale(0.1 -0.1)">
       <use xlink:href="#DejaVuSans-30"/>
      </g>
     </g>
    </g>
    <g id="ytick_6">
     <g id="line2d_14">
      <g>
       <use style="stroke:#000000;stroke-width:0.8;" x="63" xlink:href="#m90e1a6e47e" y="96.865133"/>
      </g>
     </g>
     <g id="text_14">
      <!-- 50 -->
      <g transform="translate(43.275 100.664352)scale(0.1 -0.1)">
       <use xlink:href="#DejaVuSans-35"/>
       <use x="63.623047" xlink:href="#DejaVuSans-30"/>
      </g>
     </g>
    </g>
    <g id="ytick_7">
     <g id="line2d_15">
      <g>
       <use style="stroke:#000000;stroke-width:0.8;" x="63" xlink:href="#m90e1a6e47e" y="69.56227"/>
      </g>
     </g>
     <g id="text_15">
      <!-- 100 -->
      <g transform="translate(36.9125 73.361489)scale(0.1 -0.1)">
       <use xlink:href="#DejaVuSans-31"/>
       <use x="63.623047" xlink:href="#DejaVuSans-30"/>
       <use x="127.246094" xlink:href="#DejaVuSans-30"/>
      </g>
     </g>
    </g>
    <g id="ytick_8">
     <g id="line2d_16">
      <g>
       <use style="stroke:#000000;stroke-width:0.8;" x="63" xlink:href="#m90e1a6e47e" y="42.259407"/>
      </g>
     </g>
     <g id="text_16">
      <!-- 150 -->
      <g transform="translate(36.9125 46.058626)scale(0.1 -0.1)">
       <use xlink:href="#DejaVuSans-31"/>
       <use x="63.623047" xlink:href="#DejaVuSans-35"/>
       <use x="127.246094" xlink:href="#DejaVuSans-30"/>
      </g>
     </g>
    </g>
   </g>
   <g id="line2d_17">
    <path clip-path="url(#p2865f87fd8)" d="M 80.754545 113.246851 
L 82.760709 77.207072 
L 84.766872 53.180552 
L 86.773035 44.443636 
L 88.779199 50.450266 
L 90.785362 65.193812 
L 94.797689 119.253481 
L 96.803852 147.648458 
L 98.810015 182.050065 
L 100.816179 220.274073 
L 102.822342 242.116364 
L 104.828505 235.563677 
L 106.834669 203.346298 
L 110.846995 101.233591 
L 112.853159 59.73324 
L 114.859322 48.266037 
L 116.865485 50.450266 
L 118.871649 70.654385 
L 120.877812 83.213702 
L 122.883975 78.845244 
L 124.890139 65.739869 
L 126.896302 66.831984 
L 128.902465 99.049362 
L 130.908629 153.655088 
L 132.914792 197.339669 
L 134.920955 220.274073 
L 136.927119 202.800241 
L 138.933282 158.023546 
L 140.939445 110.516565 
L 142.945609 72.838614 
L 144.951772 55.910839 
L 146.957935 58.641125 
L 148.964099 71.746499 
L 150.970262 83.213702 
L 152.976425 91.404561 
L 154.982589 102.871763 
L 156.988752 124.714053 
L 158.994915 148.740573 
L 161.001079 176.589493 
L 163.007242 196.793611 
L 165.013405 208.806871 
L 167.019569 213.721386 
L 169.025732 211.537157 
L 171.031895 196.247554 
L 173.038059 159.11566 
L 175.044222 113.246851 
L 177.050385 78.845244 
L 179.056549 61.917469 
L 181.062712 65.193812 
L 183.068875 77.207072 
L 185.075039 91.404561 
L 187.081202 103.41782 
L 189.087365 129.082511 
L 193.099692 201.708127 
L 195.105855 222.458302 
L 197.112018 232.287333 
L 199.118182 225.734646 
L 201.124345 214.813501 
L 203.130508 204.98447 
L 205.136672 191.879096 
L 207.142835 164.030176 
L 209.148998 125.806168 
L 211.155162 102.325706 
L 213.161325 97.41119 
L 215.167488 104.509935 
L 217.173652 116.523194 
L 219.179815 129.628569 
L 221.185978 147.648458 
L 223.192142 164.576233 
L 225.198305 179.319779 
L 227.204468 186.964581 
L 229.210632 189.14881 
L 231.216795 181.504008 
L 233.222958 164.030176 
L 235.229122 142.187885 
L 237.235285 122.529824 
L 239.241448 126.352225 
L 241.247612 129.628569 
L 243.253775 132.358855 
L 245.259938 119.799538 
L 247.266102 113.792908 
L 249.272265 117.615309 
L 251.278428 131.812798 
L 253.284592 147.102401 
L 255.290755 151.470859 
L 257.296918 152.562973 
L 259.303082 156.385374 
L 261.309245 167.306519 
L 263.315408 170.582863 
L 265.321572 167.306519 
L 267.327735 162.938061 
L 269.333898 157.477489 
L 271.340062 148.194515 
L 273.346225 142.187885 
L 275.352388 143.28 
L 277.358552 139.457599 
L 279.364715 146.010286 
L 281.370878 154.747202 
L 283.377042 165.668348 
L 285.383205 174.951321 
L 287.389368 181.504008 
L 289.395532 180.411894 
L 291.401695 170.036806 
L 293.407858 164.030176 
L 295.414022 155.29326 
L 297.420185 141.095771 
L 299.426348 125.26011 
L 301.432512 106.694164 
L 303.438675 102.325706 
L 305.444838 101.233591 
L 307.451002 105.602049 
L 311.463328 125.26011 
L 313.469492 136.181256 
L 315.475655 146.010286 
L 317.481818 158.023546 
L 319.487982 160.753832 
L 323.500308 158.569603 
L 325.506471 150.378744 
L 327.512635 141.095771 
L 329.518798 134.543084 
L 331.524961 125.806168 
L 333.531125 120.891652 
L 337.543451 124.167996 
L 339.549615 127.990397 
L 341.555778 132.904912 
L 343.561941 134.543084 
L 345.568105 134.543084 
L 347.574268 126.898282 
L 349.580431 124.167996 
L 351.586595 123.075881 
L 353.592758 122.529824 
L 355.598921 120.345595 
L 357.605085 117.615309 
L 359.611248 114.338965 
L 363.623575 89.766389 
L 365.629738 85.943988 
L 367.635901 90.858503 
L 369.642065 102.871763 
L 371.648228 119.253481 
L 373.654391 137.819427 
L 375.660555 152.016916 
L 377.666718 162.938061 
L 379.672881 167.852577 
L 381.679045 154.747202 
L 383.685208 137.27337 
L 385.691371 117.069252 
L 387.697535 100.141477 
L 389.703698 88.674274 
L 391.709861 79.391301 
L 393.716025 83.759759 
L 395.722188 87.58216 
L 397.728351 100.141477 
L 399.734515 109.970507 
L 401.740678 124.167996 
L 403.746841 135.089141 
L 405.753005 152.562973 
L 409.765331 199.523898 
L 411.771495 220.274073 
L 413.777658 216.99773 
L 415.783821 197.885726 
L 417.789985 160.207775 
L 419.796148 124.714053 
L 421.802311 98.503305 
L 423.808475 74.476786 
L 425.814638 75.5689 
L 427.820801 93.58879 
L 429.826965 117.615309 
L 431.833128 136.727313 
L 433.839291 159.661718 
L 435.845455 178.773722 
L 435.845455 178.773722 
" style="fill:none;stroke:#1f77b4;stroke-linecap:square;stroke-width:1.5;"/>
   </g>
   <g id="patch_3">
    <path d="M 63 252 
L 63 34.56 
" style="fill:none;stroke:#000000;stroke-linecap:square;stroke-linejoin:miter;stroke-width:0.8;"/>
   </g>
   <g id="patch_4">
    <path d="M 453.6 252 
L 453.6 34.56 
" style="fill:none;stroke:#000000;stroke-linecap:square;stroke-linejoin:miter;stroke-width:0.8;"/>
   </g>
   <g id="patch_5">
    <path d="M 63 252 
L 453.6 252 
" style="fill:none;stroke:#000000;stroke-linecap:square;stroke-linejoin:miter;stroke-width:0.8;"/>
   </g>
   <g id="patch_6">
    <path d="M 63 34.56 
L 453.6 34.56 
" style="fill:none;stroke:#000000;stroke-linecap:square;stroke-linejoin:miter;stroke-width:0.8;"/>
   </g>
  </g>
 </g>
 <defs>
  <clipPath id="p2865f87fd8">
   <rect height="217.44" width="390.6" x="63" y="34.56"/>
  </clipPath>
 </defs>
</svg>
