<?xml version="1.0" encoding="utf-8" standalone="no"?>
<!DOCTYPE svg PUBLIC "-//W3C//DTD SVG 1.1//EN"
  "http://www.w3.org/Graphics/SVG/1.1/DTD/svg11.dtd">
<!-- Created with matplotlib (http://matplotlib.org/) -->
<svg height="288pt" version="1.1" viewBox="0 0 504 288" width="504pt" xmlns="http://www.w3.org/2000/svg" xmlns:xlink="http://www.w3.org/1999/xlink">
 <defs>
  <style type="text/css">
*{stroke-linecap:butt;stroke-linejoin:round;}
  </style>
 </defs>
 <g id="figure_1">
  <g id="patch_1">
   <path d="M 0 288 
L 504 288 
L 504 0 
L 0 0 
z
" style="fill:#ffffff;"/>
  </g>
  <g id="axes_1">
   <g id="patch_2">
    <path d="M 63 252 
L 453.6 252 
L 453.6 34.56 
L 63 34.56 
z
" style="fill:#ffffff;"/>
   </g>
   <g id="matplotlib.axis_1">
    <g id="xtick_1">
     <g id="line2d_1">
      <defs>
       <path d="M 0 0 
L 0 3.5 
" id="m0d8836266f" style="stroke:#000000;stroke-width:0.8;"/>
      </defs>
      <g>
       <use style="stroke:#000000;stroke-width:0.8;" x="80.754545" xlink:href="#m0d8836266f" y="252"/>
      </g>
     </g>
     <g id="text_1">
      <!-- 0 -->
      <defs>
       <path d="M 31.78125 66.40625 
Q 24.171875 66.40625 20.328125 58.90625 
Q 16.5 51.421875 16.5 36.375 
Q 16.5 21.390625 20.328125 13.890625 
Q 24.171875 6.390625 31.78125 6.390625 
Q 39.453125 6.390625 43.28125 13.890625 
Q 47.125 21.390625 47.125 36.375 
Q 47.125 51.421875 43.28125 58.90625 
Q 39.453125 66.40625 31.78125 66.40625 
z
M 31.78125 74.21875 
Q 44.046875 74.21875 50.515625 64.515625 
Q 56.984375 54.828125 56.984375 36.375 
Q 56.984375 17.96875 50.515625 8.265625 
Q 44.046875 -1.421875 31.78125 -1.421875 
Q 19.53125 -1.421875 13.0625 8.265625 
Q 6.59375 17.96875 6.59375 36.375 
Q 6.59375 54.828125 13.0625 64.515625 
Q 19.53125 74.21875 31.78125 74.21875 
z
" id="DejaVuSans-30"/>
      </defs>
      <g transform="translate(77.573295 266.598437)scale(0.1 -0.1)">
       <use xlink:href="#DejaVuSans-30"/>
      </g>
     </g>
    </g>
    <g id="xtick_2">
     <g id="line2d_2">
      <g>
       <use style="stroke:#000000;stroke-width:0.8;" x="130.908629" xlink:href="#m0d8836266f" y="252"/>
      </g>
     </g>
     <g id="text_2">
      <!-- 25 -->
      <defs>
       <path d="M 19.1875 8.296875 
L 53.609375 8.296875 
L 53.609375 0 
L 7.328125 0 
L 7.328125 8.296875 
Q 12.9375 14.109375 22.625 23.890625 
Q 32.328125 33.6875 34.8125 36.53125 
Q 39.546875 41.84375 41.421875 45.53125 
Q 43.3125 49.21875 43.3125 52.78125 
Q 43.3125 58.59375 39.234375 62.25 
Q 35.15625 65.921875 28.609375 65.921875 
Q 23.96875 65.921875 18.8125 64.3125 
Q 13.671875 62.703125 7.8125 59.421875 
L 7.8125 69.390625 
Q 13.765625 71.78125 18.9375 73 
Q 24.125 74.21875 28.421875 74.21875 
Q 39.75 74.21875 46.484375 68.546875 
Q 53.21875 62.890625 53.21875 53.421875 
Q 53.21875 48.921875 51.53125 44.890625 
Q 49.859375 40.875 45.40625 35.40625 
Q 44.1875 33.984375 37.640625 27.21875 
Q 31.109375 20.453125 19.1875 8.296875 
z
" id="DejaVuSans-32"/>
       <path d="M 10.796875 72.90625 
L 49.515625 72.90625 
L 49.515625 64.59375 
L 19.828125 64.59375 
L 19.828125 46.734375 
Q 21.96875 47.46875 24.109375 47.828125 
Q 26.265625 48.1875 28.421875 48.1875 
Q 40.625 48.1875 47.75 41.5 
Q 54.890625 34.8125 54.890625 23.390625 
Q 54.890625 11.625 47.5625 5.09375 
Q 40.234375 -1.421875 26.90625 -1.421875 
Q 22.3125 -1.421875 17.546875 -0.640625 
Q 12.796875 0.140625 7.71875 1.703125 
L 7.71875 11.625 
Q 12.109375 9.234375 16.796875 8.0625 
Q 21.484375 6.890625 26.703125 6.890625 
Q 35.15625 6.890625 40.078125 11.328125 
Q 45.015625 15.765625 45.015625 23.390625 
Q 45.015625 31 40.078125 35.4375 
Q 35.15625 39.890625 26.703125 39.890625 
Q 22.75 39.890625 18.8125 39.015625 
Q 14.890625 38.140625 10.796875 36.28125 
z
" id="DejaVuSans-35"/>
      </defs>
      <g transform="translate(124.546129 266.598437)scale(0.1 -0.1)">
       <use xlink:href="#DejaVuSans-32"/>
       <use x="63.623047" xlink:href="#DejaVuSans-35"/>
      </g>
     </g>
    </g>
    <g id="xtick_3">
     <g id="line2d_3">
      <g>
       <use style="stroke:#000000;stroke-width:0.8;" x="181.062712" xlink:href="#m0d8836266f" y="252"/>
      </g>
     </g>
     <g id="text_3">
      <!-- 50 -->
      <g transform="translate(174.700212 266.598437)scale(0.1 -0.1)">
       <use xlink:href="#DejaVuSans-35"/>
       <use x="63.623047" xlink:href="#DejaVuSans-30"/>
      </g>
     </g>
    </g>
    <g id="xtick_4">
     <g id="line2d_4">
      <g>
       <use style="stroke:#000000;stroke-width:0.8;" x="231.216795" xlink:href="#m0d8836266f" y="252"/>
      </g>
     </g>
     <g id="text_4">
      <!-- 75 -->
      <defs>
       <path d="M 8.203125 72.90625 
L 55.078125 72.90625 
L 55.078125 68.703125 
L 28.609375 0 
L 18.3125 0 
L 43.21875 64.59375 
L 8.203125 64.59375 
z
" id="DejaVuSans-37"/>
      </defs>
      <g transform="translate(224.854295 266.598437)scale(0.1 -0.1)">
       <use xlink:href="#DejaVuSans-37"/>
       <use x="63.623047" xlink:href="#DejaVuSans-35"/>
      </g>
     </g>
    </g>
    <g id="xtick_5">
     <g id="line2d_5">
      <g>
       <use style="stroke:#000000;stroke-width:0.8;" x="281.370878" xlink:href="#m0d8836266f" y="252"/>
      </g>
     </g>
     <g id="text_5">
      <!-- 100 -->
      <defs>
       <path d="M 12.40625 8.296875 
L 28.515625 8.296875 
L 28.515625 63.921875 
L 10.984375 60.40625 
L 10.984375 69.390625 
L 28.421875 72.90625 
L 38.28125 72.90625 
L 38.28125 8.296875 
L 54.390625 8.296875 
L 54.390625 0 
L 12.40625 0 
z
" id="DejaVuSans-31"/>
      </defs>
      <g transform="translate(271.827128 266.598437)scale(0.1 -0.1)">
       <use xlink:href="#DejaVuSans-31"/>
       <use x="63.623047" xlink:href="#DejaVuSans-30"/>
       <use x="127.246094" xlink:href="#DejaVuSans-30"/>
      </g>
     </g>
    </g>
    <g id="xtick_6">
     <g id="line2d_6">
      <g>
       <use style="stroke:#000000;stroke-width:0.8;" x="331.524961" xlink:href="#m0d8836266f" y="252"/>
      </g>
     </g>
     <g id="text_6">
      <!-- 125 -->
      <g transform="translate(321.981211 266.598437)scale(0.1 -0.1)">
       <use xlink:href="#DejaVuSans-31"/>
       <use x="63.623047" xlink:href="#DejaVuSans-32"/>
       <use x="127.246094" xlink:href="#DejaVuSans-35"/>
      </g>
     </g>
    </g>
    <g id="xtick_7">
     <g id="line2d_7">
      <g>
       <use style="stroke:#000000;stroke-width:0.8;" x="381.679045" xlink:href="#m0d8836266f" y="252"/>
      </g>
     </g>
     <g id="text_7">
      <!-- 150 -->
      <g transform="translate(372.135295 266.598437)scale(0.1 -0.1)">
       <use xlink:href="#DejaVuSans-31"/>
       <use x="63.623047" xlink:href="#DejaVuSans-35"/>
       <use x="127.246094" xlink:href="#DejaVuSans-30"/>
      </g>
     </g>
    </g>
    <g id="xtick_8">
     <g id="line2d_8">
      <g>
       <use style="stroke:#000000;stroke-width:0.8;" x="431.833128" xlink:href="#m0d8836266f" y="252"/>
      </g>
     </g>
     <g id="text_8">
      <!-- 175 -->
      <g transform="translate(422.289378 266.598437)scale(0.1 -0.1)">
       <use xlink:href="#DejaVuSans-31"/>
       <use x="63.623047" xlink:href="#DejaVuSans-37"/>
       <use x="127.246094" xlink:href="#DejaVuSans-35"/>
      </g>
     </g>
    </g>
   </g>
   <g id="matplotlib.axis_2">
    <g id="ytick_1">
     <g id="line2d_9">
      <defs>
       <path d="M 0 0 
L -3.5 0 
" id="mdeac09f67c" style="stroke:#000000;stroke-width:0.8;"/>
      </defs>
      <g>
       <use style="stroke:#000000;stroke-width:0.8;" x="63" xlink:href="#mdeac09f67c" y="250.184638"/>
      </g>
     </g>
     <g id="text_9">
      <!-- −250 -->
      <defs>
       <path d="M 10.59375 35.5 
L 73.1875 35.5 
L 73.1875 27.203125 
L 10.59375 27.203125 
z
" id="DejaVuSans-2212"/>
      </defs>
      <g transform="translate(28.532812 253.983857)scale(0.1 -0.1)">
       <use xlink:href="#DejaVuSans-2212"/>
       <use x="83.789062" xlink:href="#DejaVuSans-32"/>
       <use x="147.412109" xlink:href="#DejaVuSans-35"/>
       <use x="211.035156" xlink:href="#DejaVuSans-30"/>
      </g>
     </g>
    </g>
    <g id="ytick_2">
     <g id="line2d_10">
      <g>
       <use style="stroke:#000000;stroke-width:0.8;" x="63" xlink:href="#mdeac09f67c" y="221.369372"/>
      </g>
     </g>
     <g id="text_10">
      <!-- −200 -->
      <g transform="translate(28.532812 225.168591)scale(0.1 -0.1)">
       <use xlink:href="#DejaVuSans-2212"/>
       <use x="83.789062" xlink:href="#DejaVuSans-32"/>
       <use x="147.412109" xlink:href="#DejaVuSans-30"/>
       <use x="211.035156" xlink:href="#DejaVuSans-30"/>
      </g>
     </g>
    </g>
    <g id="ytick_3">
     <g id="line2d_11">
      <g>
       <use style="stroke:#000000;stroke-width:0.8;" x="63" xlink:href="#mdeac09f67c" y="192.554105"/>
      </g>
     </g>
     <g id="text_11">
      <!-- −150 -->
      <g transform="translate(28.532812 196.353324)scale(0.1 -0.1)">
       <use xlink:href="#DejaVuSans-2212"/>
       <use x="83.789062" xlink:href="#DejaVuSans-31"/>
       <use x="147.412109" xlink:href="#DejaVuSans-35"/>
       <use x="211.035156" xlink:href="#DejaVuSans-30"/>
      </g>
     </g>
    </g>
    <g id="ytick_4">
     <g id="line2d_12">
      <g>
       <use style="stroke:#000000;stroke-width:0.8;" x="63" xlink:href="#mdeac09f67c" y="163.738839"/>
      </g>
     </g>
     <g id="text_12">
      <!-- −100 -->
      <g transform="translate(28.532812 167.538058)scale(0.1 -0.1)">
       <use xlink:href="#DejaVuSans-2212"/>
       <use x="83.789062" xlink:href="#DejaVuSans-31"/>
       <use x="147.412109" xlink:href="#DejaVuSans-30"/>
       <use x="211.035156" xlink:href="#DejaVuSans-30"/>
      </g>
     </g>
    </g>
    <g id="ytick_5">
     <g id="line2d_13">
      <g>
       <use style="stroke:#000000;stroke-width:0.8;" x="63" xlink:href="#mdeac09f67c" y="134.923573"/>
      </g>
     </g>
     <g id="text_13">
      <!-- −50 -->
      <g transform="translate(34.895313 138.722792)scale(0.1 -0.1)">
       <use xlink:href="#DejaVuSans-2212"/>
       <use x="83.789062" xlink:href="#DejaVuSans-35"/>
       <use x="147.412109" xlink:href="#DejaVuSans-30"/>
      </g>
     </g>
    </g>
    <g id="ytick_6">
     <g id="line2d_14">
      <g>
       <use style="stroke:#000000;stroke-width:0.8;" x="63" xlink:href="#mdeac09f67c" y="106.108306"/>
      </g>
     </g>
     <g id="text_14">
      <!-- 0 -->
      <g transform="translate(49.6375 109.907525)scale(0.1 -0.1)">
       <use xlink:href="#DejaVuSans-30"/>
      </g>
     </g>
    </g>
    <g id="ytick_7">
     <g id="line2d_15">
      <g>
       <use style="stroke:#000000;stroke-width:0.8;" x="63" xlink:href="#mdeac09f67c" y="77.29304"/>
      </g>
     </g>
     <g id="text_15">
      <!-- 50 -->
      <g transform="translate(43.275 81.092259)scale(0.1 -0.1)">
       <use xlink:href="#DejaVuSans-35"/>
       <use x="63.623047" xlink:href="#DejaVuSans-30"/>
      </g>
     </g>
    </g>
    <g id="ytick_8">
     <g id="line2d_16">
      <g>
       <use style="stroke:#000000;stroke-width:0.8;" x="63" xlink:href="#mdeac09f67c" y="48.477774"/>
      </g>
     </g>
     <g id="text_16">
      <!-- 100 -->
      <g transform="translate(36.9125 52.276992)scale(0.1 -0.1)">
       <use xlink:href="#DejaVuSans-31"/>
       <use x="63.623047" xlink:href="#DejaVuSans-30"/>
       <use x="127.246094" xlink:href="#DejaVuSans-30"/>
      </g>
     </g>
    </g>
   </g>
   <g id="line2d_17">
    <path clip-path="url(#p3bf47d68dd)" d="M 80.754545 103.803085 
L 82.760709 92.276979 
L 84.766872 76.716735 
L 86.773035 62.309102 
L 88.779199 53.088216 
L 90.785362 47.325163 
L 92.791525 46.172552 
L 94.797689 47.901468 
L 96.803852 54.240827 
L 98.810015 60.00388 
L 100.816179 75.564124 
L 102.822342 87.666536 
L 104.828505 100.921558 
L 106.834669 103.22678 
L 108.840832 96.311116 
L 110.846995 81.903483 
L 112.853159 64.614323 
L 114.859322 51.935606 
L 116.865485 46.748858 
L 118.871649 45.019942 
L 120.877812 44.443636 
L 122.883975 45.019942 
L 124.890139 52.511911 
L 126.896302 58.274964 
L 128.902465 61.732796 
L 130.908629 60.580186 
L 132.914792 57.698659 
L 134.920955 55.393438 
L 136.927119 51.3593 
L 138.933282 48.477774 
L 140.939445 50.782995 
L 142.945609 53.664522 
L 144.951772 61.732796 
L 146.957935 70.953681 
L 148.964099 82.479788 
L 150.970262 96.311116 
L 156.988752 132.618351 
L 158.994915 145.873374 
L 161.001079 157.399481 
L 163.007242 170.078198 
L 165.013405 194.283021 
L 167.019569 215.606319 
L 169.025732 232.895478 
L 171.031895 241.540058 
L 173.038059 242.116364 
L 175.044222 233.471784 
L 177.050385 212.148487 
L 181.062712 150.483817 
L 183.068875 126.855298 
L 185.075039 107.260917 
L 187.081202 100.345253 
L 189.087365 101.497864 
L 191.093529 106.108306 
L 193.099692 112.447665 
L 195.105855 118.210718 
L 199.118182 125.126382 
L 203.130508 133.194657 
L 205.136672 140.110321 
L 209.148998 145.873374 
L 213.161325 144.720763 
L 215.167488 145.297069 
L 217.173652 144.720763 
L 219.179815 147.025985 
L 223.192142 157.399481 
L 225.198305 161.433618 
L 227.204468 162.009923 
L 229.210632 161.433618 
L 231.216795 159.128397 
L 233.222958 155.094259 
L 235.229122 143.568153 
L 237.235285 130.889435 
L 239.241448 115.329192 
L 241.247612 106.108306 
L 243.253775 103.22678 
L 245.259938 100.921558 
L 247.266102 98.040032 
L 249.272265 98.616337 
L 251.278428 95.158505 
L 253.284592 99.768948 
L 255.290755 94.5822 
L 257.296918 95.158505 
L 259.303082 93.429589 
L 261.309245 92.276979 
L 263.315408 92.853284 
L 265.321572 94.5822 
L 267.327735 97.463726 
L 269.333898 99.768948 
L 271.340062 99.768948 
L 273.346225 96.887421 
L 275.352388 93.429589 
L 277.358552 88.242841 
L 279.364715 84.785009 
L 281.370878 81.903483 
L 283.377042 81.327177 
L 285.383205 83.056093 
L 287.389368 82.479788 
L 289.395532 83.632399 
L 291.401695 82.479788 
L 293.407858 83.632399 
L 295.414022 83.056093 
L 297.420185 84.208704 
L 301.432512 91.124368 
L 303.438675 96.887421 
L 305.444838 103.22678 
L 307.451002 108.989833 
L 309.457165 113.02397 
L 311.463328 119.363329 
L 313.469492 123.397466 
L 315.475655 129.160519 
L 317.481818 138.381405 
L 319.487982 150.483817 
L 323.500308 185.638442 
L 325.506471 204.080212 
L 327.512635 220.216761 
L 329.518798 232.895478 
L 331.524961 240.963753 
L 333.531125 239.811142 
L 335.537288 232.895478 
L 337.543451 218.487845 
L 339.549615 205.809128 
L 343.561941 176.417556 
L 345.568105 165.467755 
L 347.574268 155.670565 
L 349.580431 149.907511 
L 353.592758 134.923573 
L 355.598921 123.397466 
L 357.605085 114.752886 
L 359.611248 108.413528 
L 361.617411 106.108306 
L 363.623575 113.02397 
L 365.629738 115.329192 
L 367.635901 123.973772 
L 369.642065 126.855298 
L 371.648228 127.431603 
L 373.654391 126.855298 
L 375.660555 127.431603 
L 377.666718 123.397466 
L 379.672881 123.397466 
L 383.685208 124.550077 
L 385.691371 131.465741 
L 387.697535 133.770962 
L 389.703698 140.110321 
L 391.709861 141.839237 
L 393.716025 141.839237 
L 395.722188 133.194657 
L 397.728351 122.821161 
L 399.734515 113.600276 
L 401.740678 103.803085 
L 403.746841 103.22678 
L 405.753005 98.616337 
L 407.759168 98.616337 
L 409.765331 98.040032 
L 411.771495 96.311116 
L 413.777658 99.768948 
L 415.783821 102.074169 
L 417.789985 104.955696 
L 419.796148 104.37939 
L 421.802311 103.22678 
L 423.808475 100.345253 
L 425.814638 95.158505 
L 427.820801 88.242841 
L 429.826965 85.361315 
L 431.833128 83.056093 
L 433.839291 81.327177 
L 435.845455 85.361315 
L 435.845455 85.361315 
" style="fill:none;stroke:#1f77b4;stroke-linecap:square;stroke-width:1.5;"/>
   </g>
   <g id="patch_3">
    <path d="M 63 252 
L 63 34.56 
" style="fill:none;stroke:#000000;stroke-linecap:square;stroke-linejoin:miter;stroke-width:0.8;"/>
   </g>
   <g id="patch_4">
    <path d="M 453.6 252 
L 453.6 34.56 
" style="fill:none;stroke:#000000;stroke-linecap:square;stroke-linejoin:miter;stroke-width:0.8;"/>
   </g>
   <g id="patch_5">
    <path d="M 63 252 
L 453.6 252 
" style="fill:none;stroke:#000000;stroke-linecap:square;stroke-linejoin:miter;stroke-width:0.8;"/>
   </g>
   <g id="patch_6">
    <path d="M 63 34.56 
L 453.6 34.56 
" style="fill:none;stroke:#000000;stroke-linecap:square;stroke-linejoin:miter;stroke-width:0.8;"/>
   </g>
  </g>
 </g>
 <defs>
  <clipPath id="p3bf47d68dd">
   <rect height="217.44" width="390.6" x="63" y="34.56"/>
  </clipPath>
 </defs>
</svg>
