<?xml version="1.0" encoding="utf-8" standalone="no"?>
<!DOCTYPE svg PUBLIC "-//W3C//DTD SVG 1.1//EN"
  "http://www.w3.org/Graphics/SVG/1.1/DTD/svg11.dtd">
<!-- Created with matplotlib (http://matplotlib.org/) -->
<svg height="288pt" version="1.1" viewBox="0 0 504 288" width="504pt" xmlns="http://www.w3.org/2000/svg" xmlns:xlink="http://www.w3.org/1999/xlink">
 <defs>
  <style type="text/css">
*{stroke-linecap:butt;stroke-linejoin:round;}
  </style>
 </defs>
 <g id="figure_1">
  <g id="patch_1">
   <path d="M 0 288 
L 504 288 
L 504 0 
L 0 0 
z
" style="fill:#ffffff;"/>
  </g>
  <g id="axes_1">
   <g id="patch_2">
    <path d="M 63 252 
L 453.6 252 
L 453.6 34.56 
L 63 34.56 
z
" style="fill:#ffffff;"/>
   </g>
   <g id="matplotlib.axis_1">
    <g id="xtick_1">
     <g id="line2d_1">
      <defs>
       <path d="M 0 0 
L 0 3.5 
" id="m20d4f61df6" style="stroke:#000000;stroke-width:0.8;"/>
      </defs>
      <g>
       <use style="stroke:#000000;stroke-width:0.8;" x="80.754545" xlink:href="#m20d4f61df6" y="252"/>
      </g>
     </g>
     <g id="text_1">
      <!-- 0 -->
      <defs>
       <path d="M 31.78125 66.40625 
Q 24.171875 66.40625 20.328125 58.90625 
Q 16.5 51.421875 16.5 36.375 
Q 16.5 21.390625 20.328125 13.890625 
Q 24.171875 6.390625 31.78125 6.390625 
Q 39.453125 6.390625 43.28125 13.890625 
Q 47.125 21.390625 47.125 36.375 
Q 47.125 51.421875 43.28125 58.90625 
Q 39.453125 66.40625 31.78125 66.40625 
z
M 31.78125 74.21875 
Q 44.046875 74.21875 50.515625 64.515625 
Q 56.984375 54.828125 56.984375 36.375 
Q 56.984375 17.96875 50.515625 8.265625 
Q 44.046875 -1.421875 31.78125 -1.421875 
Q 19.53125 -1.421875 13.0625 8.265625 
Q 6.59375 17.96875 6.59375 36.375 
Q 6.59375 54.828125 13.0625 64.515625 
Q 19.53125 74.21875 31.78125 74.21875 
z
" id="DejaVuSans-30"/>
      </defs>
      <g transform="translate(77.573295 266.598437)scale(0.1 -0.1)">
       <use xlink:href="#DejaVuSans-30"/>
      </g>
     </g>
    </g>
    <g id="xtick_2">
     <g id="line2d_2">
      <g>
       <use style="stroke:#000000;stroke-width:0.8;" x="130.908629" xlink:href="#m20d4f61df6" y="252"/>
      </g>
     </g>
     <g id="text_2">
      <!-- 25 -->
      <defs>
       <path d="M 19.1875 8.296875 
L 53.609375 8.296875 
L 53.609375 0 
L 7.328125 0 
L 7.328125 8.296875 
Q 12.9375 14.109375 22.625 23.890625 
Q 32.328125 33.6875 34.8125 36.53125 
Q 39.546875 41.84375 41.421875 45.53125 
Q 43.3125 49.21875 43.3125 52.78125 
Q 43.3125 58.59375 39.234375 62.25 
Q 35.15625 65.921875 28.609375 65.921875 
Q 23.96875 65.921875 18.8125 64.3125 
Q 13.671875 62.703125 7.8125 59.421875 
L 7.8125 69.390625 
Q 13.765625 71.78125 18.9375 73 
Q 24.125 74.21875 28.421875 74.21875 
Q 39.75 74.21875 46.484375 68.546875 
Q 53.21875 62.890625 53.21875 53.421875 
Q 53.21875 48.921875 51.53125 44.890625 
Q 49.859375 40.875 45.40625 35.40625 
Q 44.1875 33.984375 37.640625 27.21875 
Q 31.109375 20.453125 19.1875 8.296875 
z
" id="DejaVuSans-32"/>
       <path d="M 10.796875 72.90625 
L 49.515625 72.90625 
L 49.515625 64.59375 
L 19.828125 64.59375 
L 19.828125 46.734375 
Q 21.96875 47.46875 24.109375 47.828125 
Q 26.265625 48.1875 28.421875 48.1875 
Q 40.625 48.1875 47.75 41.5 
Q 54.890625 34.8125 54.890625 23.390625 
Q 54.890625 11.625 47.5625 5.09375 
Q 40.234375 -1.421875 26.90625 -1.421875 
Q 22.3125 -1.421875 17.546875 -0.640625 
Q 12.796875 0.140625 7.71875 1.703125 
L 7.71875 11.625 
Q 12.109375 9.234375 16.796875 8.0625 
Q 21.484375 6.890625 26.703125 6.890625 
Q 35.15625 6.890625 40.078125 11.328125 
Q 45.015625 15.765625 45.015625 23.390625 
Q 45.015625 31 40.078125 35.4375 
Q 35.15625 39.890625 26.703125 39.890625 
Q 22.75 39.890625 18.8125 39.015625 
Q 14.890625 38.140625 10.796875 36.28125 
z
" id="DejaVuSans-35"/>
      </defs>
      <g transform="translate(124.546129 266.598437)scale(0.1 -0.1)">
       <use xlink:href="#DejaVuSans-32"/>
       <use x="63.623047" xlink:href="#DejaVuSans-35"/>
      </g>
     </g>
    </g>
    <g id="xtick_3">
     <g id="line2d_3">
      <g>
       <use style="stroke:#000000;stroke-width:0.8;" x="181.062712" xlink:href="#m20d4f61df6" y="252"/>
      </g>
     </g>
     <g id="text_3">
      <!-- 50 -->
      <g transform="translate(174.700212 266.598437)scale(0.1 -0.1)">
       <use xlink:href="#DejaVuSans-35"/>
       <use x="63.623047" xlink:href="#DejaVuSans-30"/>
      </g>
     </g>
    </g>
    <g id="xtick_4">
     <g id="line2d_4">
      <g>
       <use style="stroke:#000000;stroke-width:0.8;" x="231.216795" xlink:href="#m20d4f61df6" y="252"/>
      </g>
     </g>
     <g id="text_4">
      <!-- 75 -->
      <defs>
       <path d="M 8.203125 72.90625 
L 55.078125 72.90625 
L 55.078125 68.703125 
L 28.609375 0 
L 18.3125 0 
L 43.21875 64.59375 
L 8.203125 64.59375 
z
" id="DejaVuSans-37"/>
      </defs>
      <g transform="translate(224.854295 266.598437)scale(0.1 -0.1)">
       <use xlink:href="#DejaVuSans-37"/>
       <use x="63.623047" xlink:href="#DejaVuSans-35"/>
      </g>
     </g>
    </g>
    <g id="xtick_5">
     <g id="line2d_5">
      <g>
       <use style="stroke:#000000;stroke-width:0.8;" x="281.370878" xlink:href="#m20d4f61df6" y="252"/>
      </g>
     </g>
     <g id="text_5">
      <!-- 100 -->
      <defs>
       <path d="M 12.40625 8.296875 
L 28.515625 8.296875 
L 28.515625 63.921875 
L 10.984375 60.40625 
L 10.984375 69.390625 
L 28.421875 72.90625 
L 38.28125 72.90625 
L 38.28125 8.296875 
L 54.390625 8.296875 
L 54.390625 0 
L 12.40625 0 
z
" id="DejaVuSans-31"/>
      </defs>
      <g transform="translate(271.827128 266.598437)scale(0.1 -0.1)">
       <use xlink:href="#DejaVuSans-31"/>
       <use x="63.623047" xlink:href="#DejaVuSans-30"/>
       <use x="127.246094" xlink:href="#DejaVuSans-30"/>
      </g>
     </g>
    </g>
    <g id="xtick_6">
     <g id="line2d_6">
      <g>
       <use style="stroke:#000000;stroke-width:0.8;" x="331.524961" xlink:href="#m20d4f61df6" y="252"/>
      </g>
     </g>
     <g id="text_6">
      <!-- 125 -->
      <g transform="translate(321.981211 266.598437)scale(0.1 -0.1)">
       <use xlink:href="#DejaVuSans-31"/>
       <use x="63.623047" xlink:href="#DejaVuSans-32"/>
       <use x="127.246094" xlink:href="#DejaVuSans-35"/>
      </g>
     </g>
    </g>
    <g id="xtick_7">
     <g id="line2d_7">
      <g>
       <use style="stroke:#000000;stroke-width:0.8;" x="381.679045" xlink:href="#m20d4f61df6" y="252"/>
      </g>
     </g>
     <g id="text_7">
      <!-- 150 -->
      <g transform="translate(372.135295 266.598437)scale(0.1 -0.1)">
       <use xlink:href="#DejaVuSans-31"/>
       <use x="63.623047" xlink:href="#DejaVuSans-35"/>
       <use x="127.246094" xlink:href="#DejaVuSans-30"/>
      </g>
     </g>
    </g>
    <g id="xtick_8">
     <g id="line2d_8">
      <g>
       <use style="stroke:#000000;stroke-width:0.8;" x="431.833128" xlink:href="#m20d4f61df6" y="252"/>
      </g>
     </g>
     <g id="text_8">
      <!-- 175 -->
      <g transform="translate(422.289378 266.598437)scale(0.1 -0.1)">
       <use xlink:href="#DejaVuSans-31"/>
       <use x="63.623047" xlink:href="#DejaVuSans-37"/>
       <use x="127.246094" xlink:href="#DejaVuSans-35"/>
      </g>
     </g>
    </g>
   </g>
   <g id="matplotlib.axis_2">
    <g id="ytick_1">
     <g id="line2d_9">
      <defs>
       <path d="M 0 0 
L -3.5 0 
" id="m830a636a9d" style="stroke:#000000;stroke-width:0.8;"/>
      </defs>
      <g>
       <use style="stroke:#000000;stroke-width:0.8;" x="63" xlink:href="#m830a636a9d" y="239.870083"/>
      </g>
     </g>
     <g id="text_9">
      <!-- −400 -->
      <defs>
       <path d="M 10.59375 35.5 
L 73.1875 35.5 
L 73.1875 27.203125 
L 10.59375 27.203125 
z
" id="DejaVuSans-2212"/>
       <path d="M 37.796875 64.3125 
L 12.890625 25.390625 
L 37.796875 25.390625 
z
M 35.203125 72.90625 
L 47.609375 72.90625 
L 47.609375 25.390625 
L 58.015625 25.390625 
L 58.015625 17.1875 
L 47.609375 17.1875 
L 47.609375 0 
L 37.796875 0 
L 37.796875 17.1875 
L 4.890625 17.1875 
L 4.890625 26.703125 
z
" id="DejaVuSans-34"/>
      </defs>
      <g transform="translate(28.532812 243.669301)scale(0.1 -0.1)">
       <use xlink:href="#DejaVuSans-2212"/>
       <use x="83.789062" xlink:href="#DejaVuSans-34"/>
       <use x="147.412109" xlink:href="#DejaVuSans-30"/>
       <use x="211.035156" xlink:href="#DejaVuSans-30"/>
      </g>
     </g>
    </g>
    <g id="ytick_2">
     <g id="line2d_10">
      <g>
       <use style="stroke:#000000;stroke-width:0.8;" x="63" xlink:href="#m830a636a9d" y="202.432066"/>
      </g>
     </g>
     <g id="text_10">
      <!-- −200 -->
      <g transform="translate(28.532812 206.231285)scale(0.1 -0.1)">
       <use xlink:href="#DejaVuSans-2212"/>
       <use x="83.789062" xlink:href="#DejaVuSans-32"/>
       <use x="147.412109" xlink:href="#DejaVuSans-30"/>
       <use x="211.035156" xlink:href="#DejaVuSans-30"/>
      </g>
     </g>
    </g>
    <g id="ytick_3">
     <g id="line2d_11">
      <g>
       <use style="stroke:#000000;stroke-width:0.8;" x="63" xlink:href="#m830a636a9d" y="164.99405"/>
      </g>
     </g>
     <g id="text_11">
      <!-- 0 -->
      <g transform="translate(49.6375 168.793268)scale(0.1 -0.1)">
       <use xlink:href="#DejaVuSans-30"/>
      </g>
     </g>
    </g>
    <g id="ytick_4">
     <g id="line2d_12">
      <g>
       <use style="stroke:#000000;stroke-width:0.8;" x="63" xlink:href="#m830a636a9d" y="127.556033"/>
      </g>
     </g>
     <g id="text_12">
      <!-- 200 -->
      <g transform="translate(36.9125 131.355252)scale(0.1 -0.1)">
       <use xlink:href="#DejaVuSans-32"/>
       <use x="63.623047" xlink:href="#DejaVuSans-30"/>
       <use x="127.246094" xlink:href="#DejaVuSans-30"/>
      </g>
     </g>
    </g>
    <g id="ytick_5">
     <g id="line2d_13">
      <g>
       <use style="stroke:#000000;stroke-width:0.8;" x="63" xlink:href="#m830a636a9d" y="90.118017"/>
      </g>
     </g>
     <g id="text_13">
      <!-- 400 -->
      <g transform="translate(36.9125 93.917235)scale(0.1 -0.1)">
       <use xlink:href="#DejaVuSans-34"/>
       <use x="63.623047" xlink:href="#DejaVuSans-30"/>
       <use x="127.246094" xlink:href="#DejaVuSans-30"/>
      </g>
     </g>
    </g>
    <g id="ytick_6">
     <g id="line2d_14">
      <g>
       <use style="stroke:#000000;stroke-width:0.8;" x="63" xlink:href="#m830a636a9d" y="52.68"/>
      </g>
     </g>
     <g id="text_14">
      <!-- 600 -->
      <defs>
       <path d="M 33.015625 40.375 
Q 26.375 40.375 22.484375 35.828125 
Q 18.609375 31.296875 18.609375 23.390625 
Q 18.609375 15.53125 22.484375 10.953125 
Q 26.375 6.390625 33.015625 6.390625 
Q 39.65625 6.390625 43.53125 10.953125 
Q 47.40625 15.53125 47.40625 23.390625 
Q 47.40625 31.296875 43.53125 35.828125 
Q 39.65625 40.375 33.015625 40.375 
z
M 52.59375 71.296875 
L 52.59375 62.3125 
Q 48.875 64.0625 45.09375 64.984375 
Q 41.3125 65.921875 37.59375 65.921875 
Q 27.828125 65.921875 22.671875 59.328125 
Q 17.53125 52.734375 16.796875 39.40625 
Q 19.671875 43.65625 24.015625 45.921875 
Q 28.375 48.1875 33.59375 48.1875 
Q 44.578125 48.1875 50.953125 41.515625 
Q 57.328125 34.859375 57.328125 23.390625 
Q 57.328125 12.15625 50.6875 5.359375 
Q 44.046875 -1.421875 33.015625 -1.421875 
Q 20.359375 -1.421875 13.671875 8.265625 
Q 6.984375 17.96875 6.984375 36.375 
Q 6.984375 53.65625 15.1875 63.9375 
Q 23.390625 74.21875 37.203125 74.21875 
Q 40.921875 74.21875 44.703125 73.484375 
Q 48.484375 72.75 52.59375 71.296875 
z
" id="DejaVuSans-36"/>
      </defs>
      <g transform="translate(36.9125 56.479219)scale(0.1 -0.1)">
       <use xlink:href="#DejaVuSans-36"/>
       <use x="63.623047" xlink:href="#DejaVuSans-30"/>
       <use x="127.246094" xlink:href="#DejaVuSans-30"/>
      </g>
     </g>
    </g>
   </g>
   <g id="line2d_15">
    <path clip-path="url(#p0bbe1c695c)" d="M 80.754545 170.796942 
L 82.760709 166.86595 
L 84.766872 164.058099 
L 86.773035 163.309339 
L 88.779199 163.309339 
L 90.785362 164.619669 
L 92.791525 167.427521 
L 94.797689 172.856033 
L 96.803852 179.407686 
L 98.810015 183.151488 
L 100.816179 185.397769 
L 102.822342 183.900248 
L 104.828505 181.092397 
L 106.834669 176.038264 
L 108.840832 167.801901 
L 110.846995 160.875868 
L 112.853159 156.383306 
L 114.859322 152.452314 
L 116.865485 149.644463 
L 118.871649 139.723388 
L 122.883975 125.122562 
L 124.890139 126.994463 
L 126.896302 132.422975 
L 130.908629 146.649421 
L 134.920955 167.801901 
L 136.927119 178.284545 
L 138.933282 186.146529 
L 140.939445 191.762231 
L 142.945609 193.634132 
L 144.951772 193.446942 
L 146.957935 193.446942 
L 148.964099 193.821322 
L 150.970262 192.885372 
L 152.976425 194.195702 
L 154.982589 194.382893 
L 156.988752 197.377934 
L 158.994915 199.437025 
L 161.001079 203.555207 
L 163.007242 205.988678 
L 165.013405 207.486198 
L 167.019569 208.047769 
L 169.025732 205.988678 
L 171.031895 202.244876 
L 173.038059 194.757273 
L 175.044222 189.890331 
L 177.050385 190.639091 
L 179.056549 194.944463 
L 183.068875 216.284132 
L 185.075039 232.569669 
L 187.081202 240.806033 
L 189.087365 242.116364 
L 191.093529 225.830826 
L 195.105855 170.235372 
L 197.112018 140.659339 
L 199.118182 123.625041 
L 201.124345 112.768017 
L 203.130508 115.201488 
L 205.136672 118.196529 
L 207.142835 127.181653 
L 209.148998 134.669256 
L 211.155162 144.02876 
L 213.161325 150.954793 
L 215.167488 156.570496 
L 217.173652 160.875868 
L 219.179815 161.999008 
L 221.185978 162.373388 
L 223.192142 164.432479 
L 225.198305 164.058099 
L 227.204468 164.99405 
L 229.210632 164.619669 
L 231.216795 164.80686 
L 233.222958 165.93 
L 235.229122 169.299421 
L 241.247612 177.722975 
L 243.253775 180.156446 
L 245.259938 182.402727 
L 247.266102 183.525868 
L 249.272265 184.087438 
L 251.278428 185.023388 
L 253.284592 185.584959 
L 255.290755 185.772149 
L 257.296918 185.397769 
L 259.303082 185.584959 
L 261.309245 185.210579 
L 263.315408 185.772149 
L 265.321572 187.45686 
L 267.327735 188.58 
L 269.333898 188.20562 
L 271.340062 186.895289 
L 273.346225 184.836198 
L 275.352388 183.525868 
L 277.358552 182.964298 
L 279.364715 183.338678 
L 281.370878 183.338678 
L 283.377042 182.964298 
L 285.383205 185.023388 
L 287.389368 186.708099 
L 289.395532 189.51595 
L 291.401695 190.639091 
L 293.407858 191.949421 
L 295.414022 191.575041 
L 297.420185 190.639091 
L 299.426348 190.639091 
L 301.432512 190.451901 
L 303.438675 190.077521 
L 305.444838 189.32876 
L 307.451002 189.70314 
L 309.457165 188.76719 
L 311.463328 187.64405 
L 313.469492 187.269669 
L 315.475655 185.210579 
L 317.481818 183.900248 
L 319.487982 181.092397 
L 321.494145 178.846116 
L 323.500308 175.289504 
L 325.506471 173.604793 
L 327.512635 171.545702 
L 329.518798 170.796942 
L 331.524961 168.737851 
L 333.531125 165.18124 
L 335.537288 165.36843 
L 337.543451 164.80686 
L 339.549615 163.496529 
L 341.555778 161.811818 
L 343.561941 160.875868 
L 345.568105 158.442397 
L 347.574268 157.132066 
L 351.586595 152.639504 
L 353.592758 150.954793 
L 355.598921 149.644463 
L 357.605085 148.521322 
L 359.611248 146.275041 
L 361.617411 144.21595 
L 363.623575 138.974628 
L 365.629738 130.363884 
L 367.635901 117.822149 
L 369.642065 111.083306 
L 371.648228 113.329587 
L 373.654391 124.935372 
L 375.660555 145.151901 
L 377.666718 168.925041 
L 379.672881 182.777107 
L 381.679045 184.461818 
L 383.685208 172.107273 
L 387.697535 118.196529 
L 391.709861 74.95562 
L 393.716025 62.788264 
L 395.722188 49.123388 
L 397.728351 44.443636 
L 399.734515 47.625868 
L 401.740678 63.162645 
L 403.746841 86.187025 
L 405.753005 110.896116 
L 407.759168 129.427934 
L 409.765331 144.02876 
L 411.771495 154.885785 
L 413.777658 163.122149 
L 415.783821 166.49157 
L 417.789985 168.363471 
L 419.796148 166.49157 
L 421.802311 162.560579 
L 423.808475 157.693636 
L 425.814638 156.570496 
L 429.826965 156.570496 
L 431.833128 157.880826 
L 433.839291 158.442397 
L 435.845455 162.186198 
L 435.845455 162.186198 
" style="fill:none;stroke:#1f77b4;stroke-linecap:square;stroke-width:1.5;"/>
   </g>
   <g id="patch_3">
    <path d="M 63 252 
L 63 34.56 
" style="fill:none;stroke:#000000;stroke-linecap:square;stroke-linejoin:miter;stroke-width:0.8;"/>
   </g>
   <g id="patch_4">
    <path d="M 453.6 252 
L 453.6 34.56 
" style="fill:none;stroke:#000000;stroke-linecap:square;stroke-linejoin:miter;stroke-width:0.8;"/>
   </g>
   <g id="patch_5">
    <path d="M 63 252 
L 453.6 252 
" style="fill:none;stroke:#000000;stroke-linecap:square;stroke-linejoin:miter;stroke-width:0.8;"/>
   </g>
   <g id="patch_6">
    <path d="M 63 34.56 
L 453.6 34.56 
" style="fill:none;stroke:#000000;stroke-linecap:square;stroke-linejoin:miter;stroke-width:0.8;"/>
   </g>
  </g>
 </g>
 <defs>
  <clipPath id="p0bbe1c695c">
   <rect height="217.44" width="390.6" x="63" y="34.56"/>
  </clipPath>
 </defs>
</svg>
