<?xml version="1.0" encoding="utf-8" standalone="no"?>
<!DOCTYPE svg PUBLIC "-//W3C//DTD SVG 1.1//EN"
  "http://www.w3.org/Graphics/SVG/1.1/DTD/svg11.dtd">
<!-- Created with matplotlib (http://matplotlib.org/) -->
<svg height="288pt" version="1.1" viewBox="0 0 504 288" width="504pt" xmlns="http://www.w3.org/2000/svg" xmlns:xlink="http://www.w3.org/1999/xlink">
 <defs>
  <style type="text/css">
*{stroke-linecap:butt;stroke-linejoin:round;}
  </style>
 </defs>
 <g id="figure_1">
  <g id="patch_1">
   <path d="M 0 288 
L 504 288 
L 504 0 
L 0 0 
z
" style="fill:#ffffff;"/>
  </g>
  <g id="axes_1">
   <g id="patch_2">
    <path d="M 63 252 
L 453.6 252 
L 453.6 34.56 
L 63 34.56 
z
" style="fill:#ffffff;"/>
   </g>
   <g id="matplotlib.axis_1">
    <g id="xtick_1">
     <g id="line2d_1">
      <defs>
       <path d="M 0 0 
L 0 3.5 
" id="m08819f65ca" style="stroke:#000000;stroke-width:0.8;"/>
      </defs>
      <g>
       <use style="stroke:#000000;stroke-width:0.8;" x="80.754545" xlink:href="#m08819f65ca" y="252"/>
      </g>
     </g>
     <g id="text_1">
      <!-- 0 -->
      <defs>
       <path d="M 31.78125 66.40625 
Q 24.171875 66.40625 20.328125 58.90625 
Q 16.5 51.421875 16.5 36.375 
Q 16.5 21.390625 20.328125 13.890625 
Q 24.171875 6.390625 31.78125 6.390625 
Q 39.453125 6.390625 43.28125 13.890625 
Q 47.125 21.390625 47.125 36.375 
Q 47.125 51.421875 43.28125 58.90625 
Q 39.453125 66.40625 31.78125 66.40625 
z
M 31.78125 74.21875 
Q 44.046875 74.21875 50.515625 64.515625 
Q 56.984375 54.828125 56.984375 36.375 
Q 56.984375 17.96875 50.515625 8.265625 
Q 44.046875 -1.421875 31.78125 -1.421875 
Q 19.53125 -1.421875 13.0625 8.265625 
Q 6.59375 17.96875 6.59375 36.375 
Q 6.59375 54.828125 13.0625 64.515625 
Q 19.53125 74.21875 31.78125 74.21875 
z
" id="DejaVuSans-30"/>
      </defs>
      <g transform="translate(77.573295 266.598437)scale(0.1 -0.1)">
       <use xlink:href="#DejaVuSans-30"/>
      </g>
     </g>
    </g>
    <g id="xtick_2">
     <g id="line2d_2">
      <g>
       <use style="stroke:#000000;stroke-width:0.8;" x="130.908629" xlink:href="#m08819f65ca" y="252"/>
      </g>
     </g>
     <g id="text_2">
      <!-- 25 -->
      <defs>
       <path d="M 19.1875 8.296875 
L 53.609375 8.296875 
L 53.609375 0 
L 7.328125 0 
L 7.328125 8.296875 
Q 12.9375 14.109375 22.625 23.890625 
Q 32.328125 33.6875 34.8125 36.53125 
Q 39.546875 41.84375 41.421875 45.53125 
Q 43.3125 49.21875 43.3125 52.78125 
Q 43.3125 58.59375 39.234375 62.25 
Q 35.15625 65.921875 28.609375 65.921875 
Q 23.96875 65.921875 18.8125 64.3125 
Q 13.671875 62.703125 7.8125 59.421875 
L 7.8125 69.390625 
Q 13.765625 71.78125 18.9375 73 
Q 24.125 74.21875 28.421875 74.21875 
Q 39.75 74.21875 46.484375 68.546875 
Q 53.21875 62.890625 53.21875 53.421875 
Q 53.21875 48.921875 51.53125 44.890625 
Q 49.859375 40.875 45.40625 35.40625 
Q 44.1875 33.984375 37.640625 27.21875 
Q 31.109375 20.453125 19.1875 8.296875 
z
" id="DejaVuSans-32"/>
       <path d="M 10.796875 72.90625 
L 49.515625 72.90625 
L 49.515625 64.59375 
L 19.828125 64.59375 
L 19.828125 46.734375 
Q 21.96875 47.46875 24.109375 47.828125 
Q 26.265625 48.1875 28.421875 48.1875 
Q 40.625 48.1875 47.75 41.5 
Q 54.890625 34.8125 54.890625 23.390625 
Q 54.890625 11.625 47.5625 5.09375 
Q 40.234375 -1.421875 26.90625 -1.421875 
Q 22.3125 -1.421875 17.546875 -0.640625 
Q 12.796875 0.140625 7.71875 1.703125 
L 7.71875 11.625 
Q 12.109375 9.234375 16.796875 8.0625 
Q 21.484375 6.890625 26.703125 6.890625 
Q 35.15625 6.890625 40.078125 11.328125 
Q 45.015625 15.765625 45.015625 23.390625 
Q 45.015625 31 40.078125 35.4375 
Q 35.15625 39.890625 26.703125 39.890625 
Q 22.75 39.890625 18.8125 39.015625 
Q 14.890625 38.140625 10.796875 36.28125 
z
" id="DejaVuSans-35"/>
      </defs>
      <g transform="translate(124.546129 266.598437)scale(0.1 -0.1)">
       <use xlink:href="#DejaVuSans-32"/>
       <use x="63.623047" xlink:href="#DejaVuSans-35"/>
      </g>
     </g>
    </g>
    <g id="xtick_3">
     <g id="line2d_3">
      <g>
       <use style="stroke:#000000;stroke-width:0.8;" x="181.062712" xlink:href="#m08819f65ca" y="252"/>
      </g>
     </g>
     <g id="text_3">
      <!-- 50 -->
      <g transform="translate(174.700212 266.598437)scale(0.1 -0.1)">
       <use xlink:href="#DejaVuSans-35"/>
       <use x="63.623047" xlink:href="#DejaVuSans-30"/>
      </g>
     </g>
    </g>
    <g id="xtick_4">
     <g id="line2d_4">
      <g>
       <use style="stroke:#000000;stroke-width:0.8;" x="231.216795" xlink:href="#m08819f65ca" y="252"/>
      </g>
     </g>
     <g id="text_4">
      <!-- 75 -->
      <defs>
       <path d="M 8.203125 72.90625 
L 55.078125 72.90625 
L 55.078125 68.703125 
L 28.609375 0 
L 18.3125 0 
L 43.21875 64.59375 
L 8.203125 64.59375 
z
" id="DejaVuSans-37"/>
      </defs>
      <g transform="translate(224.854295 266.598437)scale(0.1 -0.1)">
       <use xlink:href="#DejaVuSans-37"/>
       <use x="63.623047" xlink:href="#DejaVuSans-35"/>
      </g>
     </g>
    </g>
    <g id="xtick_5">
     <g id="line2d_5">
      <g>
       <use style="stroke:#000000;stroke-width:0.8;" x="281.370878" xlink:href="#m08819f65ca" y="252"/>
      </g>
     </g>
     <g id="text_5">
      <!-- 100 -->
      <defs>
       <path d="M 12.40625 8.296875 
L 28.515625 8.296875 
L 28.515625 63.921875 
L 10.984375 60.40625 
L 10.984375 69.390625 
L 28.421875 72.90625 
L 38.28125 72.90625 
L 38.28125 8.296875 
L 54.390625 8.296875 
L 54.390625 0 
L 12.40625 0 
z
" id="DejaVuSans-31"/>
      </defs>
      <g transform="translate(271.827128 266.598437)scale(0.1 -0.1)">
       <use xlink:href="#DejaVuSans-31"/>
       <use x="63.623047" xlink:href="#DejaVuSans-30"/>
       <use x="127.246094" xlink:href="#DejaVuSans-30"/>
      </g>
     </g>
    </g>
    <g id="xtick_6">
     <g id="line2d_6">
      <g>
       <use style="stroke:#000000;stroke-width:0.8;" x="331.524961" xlink:href="#m08819f65ca" y="252"/>
      </g>
     </g>
     <g id="text_6">
      <!-- 125 -->
      <g transform="translate(321.981211 266.598437)scale(0.1 -0.1)">
       <use xlink:href="#DejaVuSans-31"/>
       <use x="63.623047" xlink:href="#DejaVuSans-32"/>
       <use x="127.246094" xlink:href="#DejaVuSans-35"/>
      </g>
     </g>
    </g>
    <g id="xtick_7">
     <g id="line2d_7">
      <g>
       <use style="stroke:#000000;stroke-width:0.8;" x="381.679045" xlink:href="#m08819f65ca" y="252"/>
      </g>
     </g>
     <g id="text_7">
      <!-- 150 -->
      <g transform="translate(372.135295 266.598437)scale(0.1 -0.1)">
       <use xlink:href="#DejaVuSans-31"/>
       <use x="63.623047" xlink:href="#DejaVuSans-35"/>
       <use x="127.246094" xlink:href="#DejaVuSans-30"/>
      </g>
     </g>
    </g>
    <g id="xtick_8">
     <g id="line2d_8">
      <g>
       <use style="stroke:#000000;stroke-width:0.8;" x="431.833128" xlink:href="#m08819f65ca" y="252"/>
      </g>
     </g>
     <g id="text_8">
      <!-- 175 -->
      <g transform="translate(422.289378 266.598437)scale(0.1 -0.1)">
       <use xlink:href="#DejaVuSans-31"/>
       <use x="63.623047" xlink:href="#DejaVuSans-37"/>
       <use x="127.246094" xlink:href="#DejaVuSans-35"/>
      </g>
     </g>
    </g>
   </g>
   <g id="matplotlib.axis_2">
    <g id="ytick_1">
     <g id="line2d_9">
      <defs>
       <path d="M 0 0 
L -3.5 0 
" id="m0b39f05715" style="stroke:#000000;stroke-width:0.8;"/>
      </defs>
      <g>
       <use style="stroke:#000000;stroke-width:0.8;" x="63" xlink:href="#m0b39f05715" y="239.223592"/>
      </g>
     </g>
     <g id="text_9">
      <!-- −100 -->
      <defs>
       <path d="M 10.59375 35.5 
L 73.1875 35.5 
L 73.1875 27.203125 
L 10.59375 27.203125 
z
" id="DejaVuSans-2212"/>
      </defs>
      <g transform="translate(28.532812 243.022811)scale(0.1 -0.1)">
       <use xlink:href="#DejaVuSans-2212"/>
       <use x="83.789062" xlink:href="#DejaVuSans-31"/>
       <use x="147.412109" xlink:href="#DejaVuSans-30"/>
       <use x="211.035156" xlink:href="#DejaVuSans-30"/>
      </g>
     </g>
    </g>
    <g id="ytick_2">
     <g id="line2d_10">
      <g>
       <use style="stroke:#000000;stroke-width:0.8;" x="63" xlink:href="#m0b39f05715" y="191.010732"/>
      </g>
     </g>
     <g id="text_10">
      <!-- −50 -->
      <g transform="translate(34.895313 194.80995)scale(0.1 -0.1)">
       <use xlink:href="#DejaVuSans-2212"/>
       <use x="83.789062" xlink:href="#DejaVuSans-35"/>
       <use x="147.412109" xlink:href="#DejaVuSans-30"/>
      </g>
     </g>
    </g>
    <g id="ytick_3">
     <g id="line2d_11">
      <g>
       <use style="stroke:#000000;stroke-width:0.8;" x="63" xlink:href="#m0b39f05715" y="142.797871"/>
      </g>
     </g>
     <g id="text_11">
      <!-- 0 -->
      <g transform="translate(49.6375 146.59709)scale(0.1 -0.1)">
       <use xlink:href="#DejaVuSans-30"/>
      </g>
     </g>
    </g>
    <g id="ytick_4">
     <g id="line2d_12">
      <g>
       <use style="stroke:#000000;stroke-width:0.8;" x="63" xlink:href="#m0b39f05715" y="94.585011"/>
      </g>
     </g>
     <g id="text_12">
      <!-- 50 -->
      <g transform="translate(43.275 98.38423)scale(0.1 -0.1)">
       <use xlink:href="#DejaVuSans-35"/>
       <use x="63.623047" xlink:href="#DejaVuSans-30"/>
      </g>
     </g>
    </g>
    <g id="ytick_5">
     <g id="line2d_13">
      <g>
       <use style="stroke:#000000;stroke-width:0.8;" x="63" xlink:href="#m0b39f05715" y="46.372151"/>
      </g>
     </g>
     <g id="text_13">
      <!-- 100 -->
      <g transform="translate(36.9125 50.17137)scale(0.1 -0.1)">
       <use xlink:href="#DejaVuSans-31"/>
       <use x="63.623047" xlink:href="#DejaVuSans-30"/>
       <use x="127.246094" xlink:href="#DejaVuSans-30"/>
      </g>
     </g>
    </g>
   </g>
   <g id="line2d_14">
    <path clip-path="url(#p9dd2d2dfdb)" d="M 80.754545 166.904302 
L 82.760709 170.76133 
L 84.766872 157.261729 
L 86.773035 151.476186 
L 88.779199 140.869357 
L 90.785362 135.083814 
L 92.791525 143.762129 
L 94.797689 158.225987 
L 96.803852 152.440443 
L 98.810015 135.083814 
L 100.816179 99.406297 
L 102.822342 82.049667 
L 104.828505 83.978182 
L 106.834669 107.120355 
L 108.840832 117.727184 
L 110.846995 122.54847 
L 112.853159 114.834412 
L 114.859322 111.941641 
L 116.865485 110.977384 
L 118.871649 116.762927 
L 120.877812 138.940843 
L 122.883975 141.833614 
L 124.890139 127.369756 
L 126.896302 113.870155 
L 128.902465 110.013126 
L 130.908629 105.19184 
L 132.914792 116.762927 
L 134.920955 133.155299 
L 138.933282 150.511929 
L 140.939445 162.083016 
L 142.945609 175.582616 
L 144.951772 184.260931 
L 146.957935 178.475388 
L 148.964099 174.618359 
L 150.970262 164.01153 
L 154.982589 125.441242 
L 156.988752 130.262528 
L 158.994915 138.940843 
L 161.001079 159.190244 
L 163.007242 186.189446 
L 165.013405 191.974989 
L 167.019569 196.796275 
L 169.025732 193.903503 
L 171.031895 188.11796 
L 173.038059 176.546874 
L 175.044222 171.725588 
L 177.050385 183.296674 
L 179.056549 203.546075 
L 181.062712 225.723991 
L 183.068875 238.259335 
L 185.075039 239.223592 
L 189.087365 208.367361 
L 191.093529 191.010732 
L 193.099692 181.36816 
L 195.105855 188.11796 
L 197.112018 186.189446 
L 199.118182 190.046475 
L 201.124345 171.725588 
L 203.130508 161.118758 
L 205.136672 160.154501 
L 207.142835 162.083016 
L 209.148998 169.797073 
L 211.155162 172.689845 
L 213.161325 160.154501 
L 215.167488 133.155299 
L 217.173652 100.370554 
L 219.179815 78.192639 
L 221.185978 69.514324 
L 223.192142 70.478581 
L 225.198305 85.906696 
L 227.204468 100.370554 
L 229.210632 116.762927 
L 231.216795 143.762129 
L 233.222958 164.01153 
L 235.229122 186.189446 
L 237.235285 176.546874 
L 239.241448 164.01153 
L 241.247612 147.619157 
L 243.253775 126.405499 
L 245.259938 112.905898 
L 247.266102 106.156098 
L 249.272265 84.942439 
L 251.278428 56.97898 
L 253.284592 48.300665 
L 255.290755 44.443636 
L 257.296918 62.764523 
L 259.303082 83.978182 
L 261.309245 126.405499 
L 263.315408 155.333215 
L 265.321572 198.724789 
L 267.327735 194.867761 
L 269.333898 183.296674 
L 271.340062 158.225987 
L 273.346225 145.690643 
L 275.352388 160.154501 
L 277.358552 148.583415 
L 279.364715 136.048071 
L 281.370878 125.441242 
L 283.377042 96.513525 
L 285.383205 87.835211 
L 287.389368 74.33561 
L 289.395532 83.013925 
L 291.401695 90.727982 
L 293.407858 118.691441 
L 295.414022 162.083016 
L 297.420185 191.010732 
L 299.426348 205.47459 
L 301.432512 202.581818 
L 303.438675 202.581818 
L 305.444838 194.867761 
L 307.451002 178.475388 
L 309.457165 165.940044 
L 311.463328 150.511929 
L 313.469492 144.726386 
L 315.475655 156.297472 
L 317.481818 150.511929 
L 319.487982 148.583415 
L 321.494145 150.511929 
L 323.500308 165.940044 
L 325.506471 188.11796 
L 327.512635 194.867761 
L 329.518798 212.22439 
L 331.524961 215.117162 
L 333.531125 204.510333 
L 335.537288 189.082217 
L 337.543451 158.225987 
L 339.549615 133.155299 
L 341.555778 103.263326 
L 345.568105 78.192639 
L 347.574268 83.013925 
L 349.580431 110.013126 
L 351.586595 160.154501 
L 353.592758 207.403104 
L 355.598921 231.509534 
L 357.605085 242.116364 
L 359.611248 237.295078 
L 363.623575 204.510333 
L 365.629738 192.939246 
L 367.635901 184.260931 
L 369.642065 193.903503 
L 371.648228 214.152905 
L 373.654391 205.47459 
L 375.660555 193.903503 
L 377.666718 157.261729 
L 379.672881 151.476186 
L 381.679045 152.440443 
L 383.685208 160.154501 
L 385.691371 164.01153 
L 387.697535 165.940044 
L 389.703698 164.975787 
L 391.709861 157.261729 
L 393.716025 165.940044 
L 395.722188 163.047273 
L 397.728351 169.797073 
L 399.734515 166.904302 
L 401.740678 145.690643 
L 403.746841 122.54847 
L 405.753005 119.655698 
L 409.765331 138.940843 
L 411.771495 139.9051 
L 413.777658 159.190244 
L 417.789985 204.510333 
L 419.796148 218.009933 
L 421.802311 223.795477 
L 423.808475 220.902705 
L 425.814638 214.152905 
L 427.820801 197.760532 
L 429.826965 192.939246 
L 431.833128 190.046475 
L 433.839291 207.403104 
L 435.845455 199.689047 
L 435.845455 199.689047 
" style="fill:none;stroke:#1f77b4;stroke-linecap:square;stroke-width:1.5;"/>
   </g>
   <g id="patch_3">
    <path d="M 63 252 
L 63 34.56 
" style="fill:none;stroke:#000000;stroke-linecap:square;stroke-linejoin:miter;stroke-width:0.8;"/>
   </g>
   <g id="patch_4">
    <path d="M 453.6 252 
L 453.6 34.56 
" style="fill:none;stroke:#000000;stroke-linecap:square;stroke-linejoin:miter;stroke-width:0.8;"/>
   </g>
   <g id="patch_5">
    <path d="M 63 252 
L 453.6 252 
" style="fill:none;stroke:#000000;stroke-linecap:square;stroke-linejoin:miter;stroke-width:0.8;"/>
   </g>
   <g id="patch_6">
    <path d="M 63 34.56 
L 453.6 34.56 
" style="fill:none;stroke:#000000;stroke-linecap:square;stroke-linejoin:miter;stroke-width:0.8;"/>
   </g>
  </g>
 </g>
 <defs>
  <clipPath id="p9dd2d2dfdb">
   <rect height="217.44" width="390.6" x="63" y="34.56"/>
  </clipPath>
 </defs>
</svg>
