<?xml version="1.0" encoding="utf-8" standalone="no"?>
<!DOCTYPE svg PUBLIC "-//W3C//DTD SVG 1.1//EN"
  "http://www.w3.org/Graphics/SVG/1.1/DTD/svg11.dtd">
<!-- Created with matplotlib (http://matplotlib.org/) -->
<svg height="432pt" version="1.1" viewBox="0 0 864 432" width="864pt" xmlns="http://www.w3.org/2000/svg" xmlns:xlink="http://www.w3.org/1999/xlink">
 <defs>
  <style type="text/css">
*{stroke-linecap:butt;stroke-linejoin:round;}
  </style>
 </defs>
 <g id="figure_1">
  <g id="patch_1">
   <path d="M 0 432 
L 864 432 
L 864 0 
L 0 0 
z
" style="fill:#ffffff;"/>
  </g>
  <g id="axes_1">
   <g id="patch_2">
    <path d="M 108 378 
L 777.6 378 
L 777.6 51.84 
L 108 51.84 
z
" style="fill:#ffffff;"/>
   </g>
   <g id="matplotlib.axis_1">
    <g id="xtick_1">
     <g id="line2d_1">
      <defs>
       <path d="M 0 0 
L 0 3.5 
" id="m825fad7df9" style="stroke:#000000;stroke-width:0.8;"/>
      </defs>
      <g>
       <use style="stroke:#000000;stroke-width:0.8;" x="138.436364" xlink:href="#m825fad7df9" y="378"/>
      </g>
     </g>
     <g id="text_1">
      <!-- 0 -->
      <defs>
       <path d="M 31.78125 66.40625 
Q 24.171875 66.40625 20.328125 58.90625 
Q 16.5 51.421875 16.5 36.375 
Q 16.5 21.390625 20.328125 13.890625 
Q 24.171875 6.390625 31.78125 6.390625 
Q 39.453125 6.390625 43.28125 13.890625 
Q 47.125 21.390625 47.125 36.375 
Q 47.125 51.421875 43.28125 58.90625 
Q 39.453125 66.40625 31.78125 66.40625 
z
M 31.78125 74.21875 
Q 44.046875 74.21875 50.515625 64.515625 
Q 56.984375 54.828125 56.984375 36.375 
Q 56.984375 17.96875 50.515625 8.265625 
Q 44.046875 -1.421875 31.78125 -1.421875 
Q 19.53125 -1.421875 13.0625 8.265625 
Q 6.59375 17.96875 6.59375 36.375 
Q 6.59375 54.828125 13.0625 64.515625 
Q 19.53125 74.21875 31.78125 74.21875 
z
" id="DejaVuSans-30"/>
      </defs>
      <g transform="translate(135.255114 392.598437)scale(0.1 -0.1)">
       <use xlink:href="#DejaVuSans-30"/>
      </g>
     </g>
    </g>
    <g id="xtick_2">
     <g id="line2d_2">
      <g>
       <use style="stroke:#000000;stroke-width:0.8;" x="224.414792" xlink:href="#m825fad7df9" y="378"/>
      </g>
     </g>
     <g id="text_2">
      <!-- 25 -->
      <defs>
       <path d="M 19.1875 8.296875 
L 53.609375 8.296875 
L 53.609375 0 
L 7.328125 0 
L 7.328125 8.296875 
Q 12.9375 14.109375 22.625 23.890625 
Q 32.328125 33.6875 34.8125 36.53125 
Q 39.546875 41.84375 41.421875 45.53125 
Q 43.3125 49.21875 43.3125 52.78125 
Q 43.3125 58.59375 39.234375 62.25 
Q 35.15625 65.921875 28.609375 65.921875 
Q 23.96875 65.921875 18.8125 64.3125 
Q 13.671875 62.703125 7.8125 59.421875 
L 7.8125 69.390625 
Q 13.765625 71.78125 18.9375 73 
Q 24.125 74.21875 28.421875 74.21875 
Q 39.75 74.21875 46.484375 68.546875 
Q 53.21875 62.890625 53.21875 53.421875 
Q 53.21875 48.921875 51.53125 44.890625 
Q 49.859375 40.875 45.40625 35.40625 
Q 44.1875 33.984375 37.640625 27.21875 
Q 31.109375 20.453125 19.1875 8.296875 
z
" id="DejaVuSans-32"/>
       <path d="M 10.796875 72.90625 
L 49.515625 72.90625 
L 49.515625 64.59375 
L 19.828125 64.59375 
L 19.828125 46.734375 
Q 21.96875 47.46875 24.109375 47.828125 
Q 26.265625 48.1875 28.421875 48.1875 
Q 40.625 48.1875 47.75 41.5 
Q 54.890625 34.8125 54.890625 23.390625 
Q 54.890625 11.625 47.5625 5.09375 
Q 40.234375 -1.421875 26.90625 -1.421875 
Q 22.3125 -1.421875 17.546875 -0.640625 
Q 12.796875 0.140625 7.71875 1.703125 
L 7.71875 11.625 
Q 12.109375 9.234375 16.796875 8.0625 
Q 21.484375 6.890625 26.703125 6.890625 
Q 35.15625 6.890625 40.078125 11.328125 
Q 45.015625 15.765625 45.015625 23.390625 
Q 45.015625 31 40.078125 35.4375 
Q 35.15625 39.890625 26.703125 39.890625 
Q 22.75 39.890625 18.8125 39.015625 
Q 14.890625 38.140625 10.796875 36.28125 
z
" id="DejaVuSans-35"/>
      </defs>
      <g transform="translate(218.052292 392.598437)scale(0.1 -0.1)">
       <use xlink:href="#DejaVuSans-32"/>
       <use x="63.623047" xlink:href="#DejaVuSans-35"/>
      </g>
     </g>
    </g>
    <g id="xtick_3">
     <g id="line2d_3">
      <g>
       <use style="stroke:#000000;stroke-width:0.8;" x="310.39322" xlink:href="#m825fad7df9" y="378"/>
      </g>
     </g>
     <g id="text_3">
      <!-- 50 -->
      <g transform="translate(304.03072 392.598437)scale(0.1 -0.1)">
       <use xlink:href="#DejaVuSans-35"/>
       <use x="63.623047" xlink:href="#DejaVuSans-30"/>
      </g>
     </g>
    </g>
    <g id="xtick_4">
     <g id="line2d_4">
      <g>
       <use style="stroke:#000000;stroke-width:0.8;" x="396.371649" xlink:href="#m825fad7df9" y="378"/>
      </g>
     </g>
     <g id="text_4">
      <!-- 75 -->
      <defs>
       <path d="M 8.203125 72.90625 
L 55.078125 72.90625 
L 55.078125 68.703125 
L 28.609375 0 
L 18.3125 0 
L 43.21875 64.59375 
L 8.203125 64.59375 
z
" id="DejaVuSans-37"/>
      </defs>
      <g transform="translate(390.009149 392.598437)scale(0.1 -0.1)">
       <use xlink:href="#DejaVuSans-37"/>
       <use x="63.623047" xlink:href="#DejaVuSans-35"/>
      </g>
     </g>
    </g>
    <g id="xtick_5">
     <g id="line2d_5">
      <g>
       <use style="stroke:#000000;stroke-width:0.8;" x="482.350077" xlink:href="#m825fad7df9" y="378"/>
      </g>
     </g>
     <g id="text_5">
      <!-- 100 -->
      <defs>
       <path d="M 12.40625 8.296875 
L 28.515625 8.296875 
L 28.515625 63.921875 
L 10.984375 60.40625 
L 10.984375 69.390625 
L 28.421875 72.90625 
L 38.28125 72.90625 
L 38.28125 8.296875 
L 54.390625 8.296875 
L 54.390625 0 
L 12.40625 0 
z
" id="DejaVuSans-31"/>
      </defs>
      <g transform="translate(472.806327 392.598437)scale(0.1 -0.1)">
       <use xlink:href="#DejaVuSans-31"/>
       <use x="63.623047" xlink:href="#DejaVuSans-30"/>
       <use x="127.246094" xlink:href="#DejaVuSans-30"/>
      </g>
     </g>
    </g>
    <g id="xtick_6">
     <g id="line2d_6">
      <g>
       <use style="stroke:#000000;stroke-width:0.8;" x="568.328505" xlink:href="#m825fad7df9" y="378"/>
      </g>
     </g>
     <g id="text_6">
      <!-- 125 -->
      <g transform="translate(558.784755 392.598437)scale(0.1 -0.1)">
       <use xlink:href="#DejaVuSans-31"/>
       <use x="63.623047" xlink:href="#DejaVuSans-32"/>
       <use x="127.246094" xlink:href="#DejaVuSans-35"/>
      </g>
     </g>
    </g>
    <g id="xtick_7">
     <g id="line2d_7">
      <g>
       <use style="stroke:#000000;stroke-width:0.8;" x="654.306934" xlink:href="#m825fad7df9" y="378"/>
      </g>
     </g>
     <g id="text_7">
      <!-- 150 -->
      <g transform="translate(644.763184 392.598437)scale(0.1 -0.1)">
       <use xlink:href="#DejaVuSans-31"/>
       <use x="63.623047" xlink:href="#DejaVuSans-35"/>
       <use x="127.246094" xlink:href="#DejaVuSans-30"/>
      </g>
     </g>
    </g>
    <g id="xtick_8">
     <g id="line2d_8">
      <g>
       <use style="stroke:#000000;stroke-width:0.8;" x="740.285362" xlink:href="#m825fad7df9" y="378"/>
      </g>
     </g>
     <g id="text_8">
      <!-- 175 -->
      <g transform="translate(730.741612 392.598437)scale(0.1 -0.1)">
       <use xlink:href="#DejaVuSans-31"/>
       <use x="63.623047" xlink:href="#DejaVuSans-37"/>
       <use x="127.246094" xlink:href="#DejaVuSans-35"/>
      </g>
     </g>
    </g>
   </g>
   <g id="matplotlib.axis_2">
    <g id="ytick_1">
     <g id="line2d_9">
      <defs>
       <path d="M 0 0 
L -3.5 0 
" id="m1b26f61dd4" style="stroke:#000000;stroke-width:0.8;"/>
      </defs>
      <g>
       <use style="stroke:#000000;stroke-width:0.8;" x="108" xlink:href="#m1b26f61dd4" y="338.518822"/>
      </g>
     </g>
     <g id="text_9">
      <!-- −500 -->
      <defs>
       <path d="M 10.59375 35.5 
L 73.1875 35.5 
L 73.1875 27.203125 
L 10.59375 27.203125 
z
" id="DejaVuSans-2212"/>
      </defs>
      <g transform="translate(73.532813 342.318041)scale(0.1 -0.1)">
       <use xlink:href="#DejaVuSans-2212"/>
       <use x="83.789062" xlink:href="#DejaVuSans-35"/>
       <use x="147.412109" xlink:href="#DejaVuSans-30"/>
       <use x="211.035156" xlink:href="#DejaVuSans-30"/>
      </g>
     </g>
    </g>
    <g id="ytick_2">
     <g id="line2d_10">
      <g>
       <use style="stroke:#000000;stroke-width:0.8;" x="108" xlink:href="#m1b26f61dd4" y="285.151455"/>
      </g>
     </g>
     <g id="text_10">
      <!-- 0 -->
      <g transform="translate(94.6375 288.950674)scale(0.1 -0.1)">
       <use xlink:href="#DejaVuSans-30"/>
      </g>
     </g>
    </g>
    <g id="ytick_3">
     <g id="line2d_11">
      <g>
       <use style="stroke:#000000;stroke-width:0.8;" x="108" xlink:href="#m1b26f61dd4" y="231.784088"/>
      </g>
     </g>
     <g id="text_11">
      <!-- 500 -->
      <g transform="translate(81.9125 235.583307)scale(0.1 -0.1)">
       <use xlink:href="#DejaVuSans-35"/>
       <use x="63.623047" xlink:href="#DejaVuSans-30"/>
       <use x="127.246094" xlink:href="#DejaVuSans-30"/>
      </g>
     </g>
    </g>
    <g id="ytick_4">
     <g id="line2d_12">
      <g>
       <use style="stroke:#000000;stroke-width:0.8;" x="108" xlink:href="#m1b26f61dd4" y="178.416721"/>
      </g>
     </g>
     <g id="text_12">
      <!-- 1000 -->
      <g transform="translate(75.55 182.21594)scale(0.1 -0.1)">
       <use xlink:href="#DejaVuSans-31"/>
       <use x="63.623047" xlink:href="#DejaVuSans-30"/>
       <use x="127.246094" xlink:href="#DejaVuSans-30"/>
       <use x="190.869141" xlink:href="#DejaVuSans-30"/>
      </g>
     </g>
    </g>
    <g id="ytick_5">
     <g id="line2d_13">
      <g>
       <use style="stroke:#000000;stroke-width:0.8;" x="108" xlink:href="#m1b26f61dd4" y="125.049354"/>
      </g>
     </g>
     <g id="text_13">
      <!-- 1500 -->
      <g transform="translate(75.55 128.848573)scale(0.1 -0.1)">
       <use xlink:href="#DejaVuSans-31"/>
       <use x="63.623047" xlink:href="#DejaVuSans-35"/>
       <use x="127.246094" xlink:href="#DejaVuSans-30"/>
       <use x="190.869141" xlink:href="#DejaVuSans-30"/>
      </g>
     </g>
    </g>
    <g id="ytick_6">
     <g id="line2d_14">
      <g>
       <use style="stroke:#000000;stroke-width:0.8;" x="108" xlink:href="#m1b26f61dd4" y="71.681987"/>
      </g>
     </g>
     <g id="text_14">
      <!-- 2000 -->
      <g transform="translate(75.55 75.481206)scale(0.1 -0.1)">
       <use xlink:href="#DejaVuSans-32"/>
       <use x="63.623047" xlink:href="#DejaVuSans-30"/>
       <use x="127.246094" xlink:href="#DejaVuSans-30"/>
       <use x="190.869141" xlink:href="#DejaVuSans-30"/>
      </g>
     </g>
    </g>
   </g>
   <g id="line2d_15">
    <path clip-path="url(#p727ed706dc)" d="M 138.436364 242.8845 
L 141.875501 248.541441 
L 145.314638 252.917565 
L 148.753775 257.613894 
L 152.192912 262.523691 
L 159.071186 269.781653 
L 165.949461 275.011655 
L 169.388598 277.14635 
L 176.266872 283.123495 
L 179.706009 285.151455 
L 186.584284 288.353497 
L 190.023421 292.516152 
L 193.462558 296.358602 
L 196.901695 302.122278 
L 200.340832 304.577177 
L 203.779969 307.245545 
L 207.219106 307.672484 
L 214.097381 311.408199 
L 217.536518 313.00922 
L 220.975655 315.997793 
L 224.414792 317.812284 
L 231.293066 320.053713 
L 234.732203 321.547999 
L 238.171341 324.002898 
L 241.610478 323.36249 
L 245.049615 323.575959 
L 248.488752 321.974938 
L 251.927889 321.441264 
L 255.367026 317.598814 
L 258.806163 314.823711 
L 262.2453 311.621669 
L 265.684438 309.807178 
L 269.123575 308.739831 
L 272.562712 306.711871 
L 276.001849 303.830033 
L 279.440986 300.521257 
L 282.880123 298.493297 
L 286.31926 296.678806 
L 289.758398 295.931663 
L 293.197535 296.251867 
L 296.636672 296.785541 
L 300.075809 296.145133 
L 303.514946 295.077785 
L 306.954083 294.757581 
L 310.39322 294.223907 
L 313.832357 294.223907 
L 317.271495 294.544112 
L 320.710632 294.437377 
L 327.588906 293.049825 
L 331.028043 292.409417 
L 334.46718 291.555539 
L 337.906317 292.409417 
L 341.345455 292.943091 
L 344.784592 295.18452 
L 351.662866 297.639419 
L 355.102003 297.319215 
L 358.54114 296.038398 
L 361.980277 295.611459 
L 365.419414 296.892276 
L 368.858552 300.521257 
L 372.297689 303.830033 
L 375.736826 307.885953 
L 379.175963 311.19473 
L 386.054237 316.638201 
L 389.493374 319.840243 
L 392.932512 324.109633 
L 399.810786 330.086778 
L 403.249923 332.541677 
L 406.68906 334.035963 
L 410.128197 334.889841 
L 413.567334 337.34474 
L 417.006471 340.119843 
L 420.445609 341.40066 
L 423.884746 341.293925 
L 430.76302 337.985148 
L 434.202157 337.985148 
L 437.641294 335.743719 
L 441.080431 332.755146 
L 444.519569 330.940656 
L 447.958706 330.727186 
L 451.397843 332.861881 
L 454.83698 331.047391 
L 458.276117 328.272287 
L 461.715254 324.963511 
L 465.154391 323.682694 
L 468.593529 323.042285 
L 472.032666 320.480652 
L 475.471803 317.27861 
L 478.91094 312.155343 
L 482.350077 309.807178 
L 485.789214 308.526362 
L 489.228351 304.577177 
L 492.667488 299.667379 
L 496.106626 295.077785 
L 499.545763 291.555539 
L 502.9849 289.10064 
L 506.424037 286.965945 
L 509.863174 285.25819 
L 513.302311 282.269617 
L 516.741448 280.348392 
L 523.619723 277.786758 
L 527.05886 275.545329 
L 530.497997 272.663491 
L 533.937134 271.27594 
L 537.376271 269.24798 
L 544.254545 268.394102 
L 547.693683 270.101857 
L 551.13282 270.422062 
L 554.571957 270.955735 
L 558.011094 270.422062 
L 561.450231 269.354714 
L 568.328505 269.24798 
L 571.767643 269.674919 
L 575.20678 268.180632 
L 582.085054 267.433489 
L 585.524191 266.472876 
L 588.963328 267.22002 
L 592.402465 269.24798 
L 595.841602 271.596144 
L 602.719877 274.798186 
L 606.159014 274.798186 
L 609.598151 274.051043 
L 613.037288 273.730838 
L 616.476425 274.051043 
L 619.915562 275.225125 
L 623.3547 277.039615 
L 626.793837 279.281045 
L 630.232974 280.455127 
L 633.672111 281.415739 
L 637.111248 281.949413 
L 640.550385 284.724516 
L 647.428659 289.527579 
L 650.867797 291.555539 
L 654.306934 292.516152 
L 657.746071 292.943091 
L 661.185208 294.437377 
L 668.063482 302.549217 
L 671.502619 307.885953 
L 674.941757 313.00922 
L 678.380894 319.840243 
L 681.820031 327.845349 
L 685.259168 332.968616 
L 688.698305 335.423515 
L 692.137442 333.502289 
L 695.576579 332.114738 
L 699.015716 335.10331 
L 702.454854 352.394337 
L 705.893991 359.22536 
L 709.333128 363.174545 
L 716.211402 341.827599 
L 719.650539 332.755146 
L 723.089676 324.643306 
L 726.528814 312.902486 
L 729.967951 302.015543 
L 733.407088 295.397989 
L 736.846225 292.516152 
L 740.285362 291.662274 
L 743.724499 292.516152 
L 747.163636 291.662274 
L 747.163636 291.662274 
" style="fill:none;stroke:#1f77b4;stroke-linecap:square;stroke-width:1.5;"/>
   </g>
   <g id="line2d_16">
    <path clip-path="url(#p727ed706dc)" d="M 138.436364 280.455127 
L 141.875501 279.494514 
L 148.753775 278.747371 
L 152.192912 279.067575 
L 172.827735 278.533901 
L 176.266872 278.96084 
L 179.706009 279.067575 
L 183.145146 279.387779 
L 186.584284 279.387779 
L 196.901695 278.533901 
L 200.340832 278.747371 
L 203.779969 278.747371 
L 207.219106 279.281045 
L 210.658243 279.387779 
L 214.097381 279.921453 
L 217.536518 279.707984 
L 220.975655 279.814718 
L 224.414792 280.241657 
L 227.853929 280.348392 
L 234.732203 281.735943 
L 238.171341 282.269617 
L 241.610478 282.376352 
L 248.488752 281.842678 
L 255.367026 280.9888 
L 258.806163 280.9888 
L 265.684438 280.348392 
L 269.123575 280.348392 
L 276.001849 280.775331 
L 279.440986 281.20227 
L 282.880123 282.056148 
L 286.31926 282.269617 
L 293.197535 282.056148 
L 296.636672 282.483087 
L 300.075809 282.696556 
L 303.514946 283.336964 
L 306.954083 284.404312 
L 317.271495 285.04472 
L 320.710632 285.685129 
L 324.149769 285.898598 
L 327.588906 286.539006 
L 334.46718 287.179415 
L 337.906317 286.965945 
L 341.345455 286.965945 
L 344.784592 286.325537 
L 348.223729 286.112068 
L 351.662866 285.25819 
L 355.102003 285.25819 
L 365.419414 284.190842 
L 372.297689 282.376352 
L 375.736826 282.269617 
L 379.175963 281.949413 
L 386.054237 281.629209 
L 392.932512 282.269617 
L 403.249923 282.696556 
L 410.128197 282.376352 
L 413.567334 282.269617 
L 417.006471 281.842678 
L 420.445609 281.842678 
L 423.884746 281.522474 
L 427.323883 281.842678 
L 434.202157 281.309005 
L 437.641294 281.095535 
L 441.080431 280.348392 
L 444.519569 279.387779 
L 447.958706 278.854106 
L 451.397843 278.96084 
L 458.276117 278.640636 
L 461.715254 278.640636 
L 472.032666 280.028188 
L 475.471803 280.882066 
L 482.350077 281.949413 
L 485.789214 282.269617 
L 489.228351 282.376352 
L 492.667488 282.269617 
L 496.106626 282.589821 
L 502.9849 282.803291 
L 506.424037 282.696556 
L 513.302311 283.23023 
L 516.741448 282.910026 
L 520.180586 282.910026 
L 527.05886 283.23023 
L 530.497997 283.336964 
L 537.376271 283.870638 
L 540.815408 283.657169 
L 544.254545 283.870638 
L 547.693683 283.870638 
L 551.13282 284.404312 
L 554.571957 285.151455 
L 561.450231 285.791863 
L 564.889368 285.685129 
L 568.328505 286.112068 
L 571.767643 286.325537 
L 575.20678 286.218802 
L 578.645917 285.364924 
L 582.085054 285.578394 
L 585.524191 286.005333 
L 588.963328 285.25819 
L 592.402465 285.151455 
L 599.28074 283.336964 
L 602.719877 283.550434 
L 606.159014 284.084108 
L 609.598151 284.084108 
L 613.037288 284.404312 
L 616.476425 284.404312 
L 619.915562 283.977373 
L 626.793837 282.589821 
L 630.232974 282.376352 
L 633.672111 281.949413 
L 640.550385 281.629209 
L 643.989522 281.522474 
L 647.428659 281.20227 
L 654.306934 281.735943 
L 661.185208 282.162882 
L 671.502619 280.775331 
L 674.941757 280.775331 
L 678.380894 281.415739 
L 688.698305 282.589821 
L 692.137442 282.696556 
L 695.576579 282.483087 
L 712.772265 282.910026 
L 716.211402 282.803291 
L 719.650539 281.735943 
L 733.407088 278.747371 
L 736.846225 278.213697 
L 740.285362 278.000228 
L 743.724499 277.466554 
L 747.163636 277.359819 
L 747.163636 277.359819 
" style="fill:none;stroke:#ff7f0e;stroke-linecap:square;stroke-width:1.5;"/>
   </g>
   <g id="line2d_17">
    <path clip-path="url(#p727ed706dc)" d="M 138.436364 274.584716 
L 141.875501 276.719411 
L 145.314638 276.185737 
L 148.753775 277.786758 
L 152.192912 278.106962 
L 155.632049 282.696556 
L 159.071186 281.095535 
L 162.510324 286.965945 
L 165.949461 287.392884 
L 169.388598 289.207375 
L 172.827735 289.954518 
L 176.266872 294.437377 
L 179.706009 291.875743 
L 183.145146 294.97105 
L 186.584284 291.555539 
L 190.023421 295.824928 
L 193.462558 294.223907 
L 196.901695 293.583499 
L 200.340832 293.370029 
L 203.779969 291.662274 
L 207.219106 285.791863 
L 210.658243 282.696556 
L 214.097381 280.241657 
L 217.536518 282.483087 
L 220.975655 281.629209 
L 224.414792 281.949413 
L 227.853929 281.309005 
L 231.293066 283.977373 
L 234.732203 282.483087 
L 238.171341 284.190842 
L 241.610478 284.831251 
L 245.049615 288.673701 
L 248.488752 291.448804 
L 251.927889 294.437377 
L 255.367026 292.409417 
L 258.806163 293.263295 
L 262.2453 290.274722 
L 265.684438 291.1286 
L 269.123575 289.10064 
L 272.562712 290.381457 
L 276.001849 292.729621 
L 279.440986 289.10064 
L 282.880123 289.207375 
L 286.31926 284.511047 
L 289.758398 285.364924 
L 296.636672 284.297577 
L 300.075809 284.084108 
L 303.514946 285.685129 
L 306.954083 285.04472 
L 310.39322 285.791863 
L 313.832357 285.25819 
L 317.271495 287.713089 
L 320.710632 290.808396 
L 324.149769 296.145133 
L 327.588906 296.785541 
L 331.028043 299.987583 
L 337.906317 299.453909 
L 341.345455 298.066358 
L 344.784592 298.386562 
L 348.223729 295.18452 
L 351.662866 292.943091 
L 355.102003 287.392884 
L 358.54114 285.898598 
L 361.980277 280.561861 
L 365.419414 279.601249 
L 368.858552 277.573289 
L 372.297689 276.93288 
L 375.736826 277.573289 
L 379.175963 279.387779 
L 382.6151 276.505941 
L 386.054237 279.067575 
L 389.493374 279.601249 
L 392.932512 284.084108 
L 396.371649 284.084108 
L 399.810786 286.432272 
L 403.249923 285.364924 
L 406.68906 286.325537 
L 410.128197 284.724516 
L 413.567334 282.803291 
L 420.445609 282.696556 
L 423.884746 283.23023 
L 427.323883 281.415739 
L 430.76302 277.786758 
L 434.202157 275.011655 
L 437.641294 270.955735 
L 441.080431 272.343287 
L 444.519569 269.03451 
L 447.958706 272.770226 
L 451.397843 275.225125 
L 454.83698 276.505941 
L 458.276117 277.466554 
L 461.715254 283.01676 
L 465.154391 284.190842 
L 468.593529 287.179415 
L 475.471803 289.207375 
L 478.91094 288.033293 
L 482.350077 287.819823 
L 485.789214 284.511047 
L 489.228351 283.01676 
L 492.667488 286.112068 
L 496.106626 283.123495 
L 499.545763 283.336964 
L 502.9849 282.589821 
L 506.424037 280.028188 
L 509.863174 278.320432 
L 516.741448 275.972268 
L 520.180586 276.719411 
L 523.619723 279.601249 
L 527.05886 281.949413 
L 530.497997 282.696556 
L 533.937134 280.348392 
L 537.376271 282.269617 
L 540.815408 280.9888 
L 544.254545 285.25819 
L 547.693683 284.190842 
L 551.13282 285.04472 
L 554.571957 283.550434 
L 558.011094 286.539006 
L 561.450231 286.645741 
L 564.889368 284.297577 
L 568.328505 284.190842 
L 571.767643 284.617781 
L 575.20678 285.25819 
L 578.645917 283.977373 
L 582.085054 282.269617 
L 585.524191 280.882066 
L 588.963328 279.707984 
L 595.841602 279.601249 
L 599.28074 280.241657 
L 602.719877 279.601249 
L 606.159014 276.719411 
L 609.598151 275.11839 
L 613.037288 273.197165 
L 616.476425 272.663491 
L 619.915562 273.09043 
L 623.3547 277.14635 
L 626.793837 280.134922 
L 630.232974 285.04472 
L 633.672111 284.297577 
L 637.111248 282.589821 
L 640.550385 279.387779 
L 643.989522 282.162882 
L 647.428659 283.763903 
L 650.867797 282.803291 
L 654.306934 283.123495 
L 657.746071 282.376352 
L 661.185208 284.084108 
L 664.624345 286.005333 
L 668.063482 288.140027 
L 671.502619 287.926558 
L 674.941757 288.993905 
L 678.380894 287.926558 
L 681.820031 287.926558 
L 685.259168 286.218802 
L 688.698305 284.297577 
L 692.137442 282.910026 
L 695.576579 282.483087 
L 699.015716 280.9888 
L 702.454854 284.404312 
L 705.893991 286.965945 
L 709.333128 287.07268 
L 712.772265 285.364924 
L 716.211402 283.977373 
L 719.650539 284.617781 
L 723.089676 283.01676 
L 726.528814 282.589821 
L 729.967951 281.735943 
L 733.407088 279.707984 
L 736.846225 276.505941 
L 740.285362 276.292472 
L 743.724499 274.051043 
L 747.163636 277.786758 
L 747.163636 277.786758 
" style="fill:none;stroke:#2ca02c;stroke-linecap:square;stroke-width:1.5;"/>
   </g>
   <g id="line2d_18">
    <path clip-path="url(#p727ed706dc)" d="M 138.436364 291.875743 
L 141.875501 292.089213 
L 145.314638 292.516152 
L 152.192912 294.117173 
L 155.632049 294.544112 
L 159.071186 295.504724 
L 162.510324 295.718194 
L 165.949461 295.504724 
L 169.388598 294.544112 
L 179.706009 292.302682 
L 183.145146 291.235335 
L 190.023421 289.634314 
L 193.462558 289.420844 
L 196.901695 289.954518 
L 200.340832 291.1286 
L 203.779969 291.769008 
L 207.219106 292.729621 
L 214.097381 293.583499 
L 217.536518 293.476764 
L 224.414792 292.729621 
L 227.853929 292.943091 
L 231.293066 292.729621 
L 234.732203 293.263295 
L 238.171341 293.583499 
L 241.610478 293.583499 
L 245.049615 293.796968 
L 255.367026 293.049825 
L 262.2453 290.915131 
L 265.684438 289.207375 
L 269.123575 288.460232 
L 272.562712 288.033293 
L 276.001849 287.819823 
L 279.440986 288.033293 
L 282.880123 288.566966 
L 289.758398 287.28615 
L 293.197535 286.432272 
L 300.075809 285.685129 
L 303.514946 285.04472 
L 306.954083 285.685129 
L 310.39322 284.937985 
L 313.832357 284.937985 
L 317.271495 286.432272 
L 320.710632 286.539006 
L 327.588906 287.28615 
L 331.028043 287.392884 
L 334.46718 287.713089 
L 337.906317 287.499619 
L 341.345455 286.752476 
L 344.784592 285.364924 
L 348.223729 285.151455 
L 351.662866 285.471659 
L 355.102003 285.471659 
L 358.54114 286.218802 
L 361.980277 286.539006 
L 368.858552 285.04472 
L 379.175963 285.364924 
L 382.6151 285.685129 
L 389.493374 286.005333 
L 392.932512 285.578394 
L 396.371649 285.578394 
L 399.810786 284.937985 
L 410.128197 284.511047 
L 413.567334 285.364924 
L 420.445609 285.25819 
L 423.884746 285.364924 
L 427.323883 286.005333 
L 430.76302 285.898598 
L 434.202157 286.539006 
L 441.080431 287.28615 
L 444.519569 287.07268 
L 451.397843 285.685129 
L 454.83698 285.578394 
L 458.276117 285.898598 
L 461.715254 286.752476 
L 465.154391 288.033293 
L 472.032666 287.499619 
L 475.471803 287.28615 
L 478.91094 286.645741 
L 482.350077 286.218802 
L 485.789214 286.218802 
L 489.228351 285.685129 
L 492.667488 285.791863 
L 496.106626 286.432272 
L 499.545763 287.606354 
L 502.9849 287.179415 
L 506.424037 287.392884 
L 509.863174 286.539006 
L 513.302311 286.005333 
L 516.741448 285.685129 
L 520.180586 287.07268 
L 527.05886 288.887171 
L 533.937134 289.527579 
L 537.376271 288.673701 
L 540.815408 288.460232 
L 544.254545 287.926558 
L 551.13282 289.741048 
L 554.571957 291.34207 
L 558.011094 291.769008 
L 561.450231 291.021865 
L 564.889368 289.741048 
L 568.328505 288.993905 
L 571.767643 288.566966 
L 575.20678 288.993905 
L 578.645917 289.634314 
L 582.085054 290.488192 
L 585.524191 290.381457 
L 588.963328 291.662274 
L 592.402465 292.195947 
L 595.841602 293.049825 
L 602.719877 291.1286 
L 609.598151 291.448804 
L 613.037288 291.235335 
L 616.476425 290.701661 
L 619.915562 289.527579 
L 626.793837 288.780436 
L 630.232974 288.246762 
L 633.672111 288.566966 
L 637.111248 287.926558 
L 643.989522 289.207375 
L 647.428659 288.353497 
L 650.867797 288.353497 
L 654.306934 288.673701 
L 657.746071 288.353497 
L 661.185208 288.887171 
L 664.624345 288.246762 
L 668.063482 288.246762 
L 671.502619 288.566966 
L 674.941757 289.527579 
L 685.259168 288.353497 
L 688.698305 288.460232 
L 692.137442 288.887171 
L 702.454854 290.915131 
L 705.893991 291.1286 
L 709.333128 291.662274 
L 712.772265 291.235335 
L 716.211402 291.021865 
L 719.650539 290.488192 
L 726.528814 289.954518 
L 729.967951 288.993905 
L 733.407088 288.673701 
L 736.846225 288.780436 
L 743.724499 288.353497 
L 747.163636 289.207375 
L 747.163636 289.207375 
" style="fill:none;stroke:#d62728;stroke-linecap:square;stroke-width:1.5;"/>
   </g>
   <g id="line2d_19">
    <path clip-path="url(#p727ed706dc)" d="M 138.436364 309.700444 
L 141.875501 311.301465 
L 148.753775 314.076568 
L 152.192912 315.143915 
L 155.632049 316.638201 
L 159.071186 317.171875 
L 162.510324 315.677589 
L 165.949461 312.475547 
L 169.388598 310.127383 
L 172.827735 308.846566 
L 176.266872 309.060035 
L 179.706009 311.941873 
L 183.145146 315.357385 
L 186.584284 319.520039 
L 190.023421 322.722081 
L 193.462558 323.14902 
L 196.901695 321.654734 
L 200.340832 317.492079 
L 203.779969 314.076568 
L 207.219106 311.087995 
L 210.658243 308.846566 
L 214.097381 306.925341 
L 217.536518 305.537789 
L 224.414792 303.936768 
L 227.853929 304.256972 
L 231.293066 303.723299 
L 234.732203 303.616564 
L 238.171341 303.189625 
L 241.610478 303.830033 
L 248.488752 303.29636 
L 251.927889 303.403094 
L 262.2453 302.655951 
L 265.684438 302.335747 
L 269.123575 301.802073 
L 272.562712 302.015543 
L 276.001849 302.442482 
L 279.440986 302.442482 
L 282.880123 302.122278 
L 286.31926 302.015543 
L 289.758398 302.869421 
L 293.197535 302.655951 
L 296.636672 302.976156 
L 300.075809 302.869421 
L 303.514946 302.122278 
L 310.39322 299.987583 
L 313.832357 299.347175 
L 317.271495 298.066358 
L 324.149769 296.465337 
L 327.588906 296.358602 
L 331.028043 295.504724 
L 337.906317 295.397989 
L 341.345455 295.397989 
L 344.784592 296.358602 
L 348.223729 297.639419 
L 351.662866 298.493297 
L 355.102003 298.600031 
L 361.980277 298.386562 
L 365.419414 297.959623 
L 375.736826 299.453909 
L 379.175963 299.02697 
L 382.6151 299.133705 
L 386.054237 298.813501 
L 389.493374 298.173092 
L 396.371649 297.639419 
L 399.810786 297.959623 
L 403.249923 297.852888 
L 406.68906 298.600031 
L 410.128197 298.493297 
L 417.006471 298.813501 
L 423.884746 299.987583 
L 427.323883 299.880848 
L 430.76302 301.161665 
L 434.202157 300.201052 
L 437.641294 300.414522 
L 441.080431 299.880848 
L 444.519569 301.588604 
L 447.958706 303.08289 
L 451.397843 303.830033 
L 454.83698 302.655951 
L 458.276117 299.347175 
L 461.715254 296.251867 
L 465.154391 294.757581 
L 475.471803 297.319215 
L 478.91094 297.746154 
L 482.350077 297.639419 
L 485.789214 297.21248 
L 489.228351 296.465337 
L 492.667488 296.465337 
L 496.106626 295.824928 
L 499.545763 295.611459 
L 502.9849 295.931663 
L 506.424037 295.824928 
L 509.863174 296.145133 
L 513.302311 296.785541 
L 516.741448 298.279827 
L 520.180586 299.24044 
L 523.619723 300.627991 
L 527.05886 301.588604 
L 530.497997 301.802073 
L 533.937134 301.161665 
L 537.376271 300.201052 
L 540.815408 299.774113 
L 544.254545 299.02697 
L 547.693683 299.453909 
L 551.13282 300.094318 
L 554.571957 299.24044 
L 558.011094 297.746154 
L 561.450231 295.824928 
L 568.328505 295.504724 
L 571.767643 296.572071 
L 575.20678 296.678806 
L 578.645917 295.931663 
L 582.085054 293.796968 
L 585.524191 292.302682 
L 588.963328 291.235335 
L 595.841602 288.460232 
L 599.28074 287.392884 
L 602.719877 286.539006 
L 606.159014 285.898598 
L 613.037288 285.791863 
L 616.476425 285.04472 
L 626.793837 285.25819 
L 630.232974 284.831251 
L 633.672111 285.364924 
L 637.111248 285.04472 
L 643.989522 283.23023 
L 650.867797 282.910026 
L 654.306934 282.589821 
L 661.185208 283.443699 
L 664.624345 284.404312 
L 668.063482 286.325537 
L 671.502619 289.207375 
L 674.941757 291.235335 
L 678.380894 291.662274 
L 681.820031 291.875743 
L 685.259168 291.1286 
L 695.576579 288.033293 
L 699.015716 288.246762 
L 702.454854 288.887171 
L 705.893991 291.235335 
L 709.333128 292.943091 
L 712.772265 293.476764 
L 719.650539 291.448804 
L 723.089676 289.527579 
L 726.528814 288.780436 
L 729.967951 288.566966 
L 736.846225 288.460232 
L 740.285362 288.246762 
L 743.724499 288.460232 
L 747.163636 287.819823 
L 747.163636 287.819823 
" style="fill:none;stroke:#9467bd;stroke-linecap:square;stroke-width:1.5;"/>
   </g>
   <g id="line2d_20">
    <path clip-path="url(#p727ed706dc)" d="M 138.436364 288.246762 
L 141.875501 287.819823 
L 148.753775 287.819823 
L 152.192912 288.033293 
L 155.632049 287.819823 
L 159.071186 288.460232 
L 162.510324 289.420844 
L 169.388598 288.993905 
L 172.827735 288.033293 
L 176.266872 288.673701 
L 179.706009 288.993905 
L 183.145146 290.061253 
L 186.584284 290.701661 
L 190.023421 290.808396 
L 193.462558 290.381457 
L 200.340832 288.993905 
L 203.779969 288.460232 
L 207.219106 288.460232 
L 210.658243 287.606354 
L 214.097381 287.606354 
L 217.536518 286.645741 
L 220.975655 285.898598 
L 224.414792 284.831251 
L 227.853929 284.404312 
L 231.293066 285.25819 
L 241.610478 286.859211 
L 245.049615 287.07268 
L 248.488752 286.965945 
L 251.927889 286.112068 
L 255.367026 285.898598 
L 258.806163 285.25819 
L 262.2453 285.04472 
L 265.684438 284.404312 
L 269.123575 284.190842 
L 272.562712 283.657169 
L 276.001849 283.550434 
L 282.880123 284.617781 
L 286.31926 285.364924 
L 289.758398 286.539006 
L 293.197535 286.645741 
L 296.636672 287.28615 
L 300.075809 287.07268 
L 303.514946 287.606354 
L 306.954083 287.28615 
L 313.832357 287.179415 
L 317.271495 287.606354 
L 320.710632 287.392884 
L 324.149769 286.539006 
L 327.588906 286.432272 
L 331.028043 286.112068 
L 334.46718 286.112068 
L 341.345455 286.859211 
L 344.784592 286.539006 
L 348.223729 286.859211 
L 351.662866 288.033293 
L 355.102003 288.887171 
L 365.419414 289.420844 
L 368.858552 288.780436 
L 372.297689 287.926558 
L 375.736826 287.606354 
L 379.175963 287.819823 
L 382.6151 287.713089 
L 386.054237 288.993905 
L 389.493374 290.061253 
L 392.932512 290.594926 
L 399.810786 290.381457 
L 403.249923 289.634314 
L 406.68906 289.741048 
L 410.128197 289.420844 
L 413.567334 289.634314 
L 420.445609 289.527579 
L 430.76302 289.741048 
L 434.202157 290.701661 
L 437.641294 291.34207 
L 441.080431 292.195947 
L 447.958706 292.729621 
L 451.397843 291.769008 
L 454.83698 291.021865 
L 458.276117 291.235335 
L 461.715254 290.594926 
L 465.154391 290.488192 
L 468.593529 289.954518 
L 472.032666 289.207375 
L 478.91094 288.780436 
L 482.350077 289.420844 
L 485.789214 289.207375 
L 489.228351 289.741048 
L 496.106626 289.634314 
L 499.545763 289.207375 
L 502.9849 289.207375 
L 509.863174 288.140027 
L 513.302311 287.926558 
L 516.741448 288.780436 
L 520.180586 288.566966 
L 527.05886 287.819823 
L 530.497997 288.460232 
L 533.937134 288.566966 
L 537.376271 288.033293 
L 540.815408 288.460232 
L 544.254545 288.140027 
L 547.693683 287.606354 
L 551.13282 287.926558 
L 554.571957 287.392884 
L 561.450231 286.965945 
L 564.889368 287.606354 
L 568.328505 287.499619 
L 571.767643 287.926558 
L 575.20678 289.634314 
L 578.645917 289.741048 
L 585.524191 288.780436 
L 588.963328 289.207375 
L 595.841602 294.544112 
L 599.28074 296.892276 
L 602.719877 296.145133 
L 606.159014 293.903703 
L 609.598151 291.448804 
L 613.037288 289.207375 
L 623.3547 283.336964 
L 626.793837 281.20227 
L 630.232974 279.601249 
L 633.672111 278.640636 
L 640.550385 280.028188 
L 643.989522 280.775331 
L 647.428659 281.842678 
L 650.867797 281.629209 
L 654.306934 281.842678 
L 657.746071 282.376352 
L 661.185208 283.977373 
L 664.624345 285.791863 
L 668.063482 287.926558 
L 671.502619 290.594926 
L 674.941757 292.409417 
L 678.380894 293.263295 
L 681.820031 292.836356 
L 685.259168 291.662274 
L 688.698305 289.954518 
L 692.137442 288.673701 
L 695.576579 287.07268 
L 699.015716 286.539006 
L 702.454854 285.578394 
L 705.893991 284.937985 
L 709.333128 284.511047 
L 712.772265 284.724516 
L 719.650539 286.325537 
L 729.967951 286.645741 
L 733.407088 287.07268 
L 736.846225 287.07268 
L 740.285362 287.819823 
L 743.724499 288.033293 
L 747.163636 288.780436 
L 747.163636 288.780436 
" style="fill:none;stroke:#8c564b;stroke-linecap:square;stroke-width:1.5;"/>
   </g>
   <g id="line2d_21">
    <path clip-path="url(#p727ed706dc)" d="M 138.436364 283.443699 
L 141.875501 284.084108 
L 145.314638 284.297577 
L 152.192912 285.25819 
L 155.632049 284.937985 
L 159.071186 285.25819 
L 165.949461 286.432272 
L 172.827735 286.965945 
L 179.706009 286.218802 
L 183.145146 285.364924 
L 186.584284 285.364924 
L 193.462558 284.724516 
L 196.901695 284.831251 
L 200.340832 284.724516 
L 207.219106 283.336964 
L 210.658243 283.23023 
L 214.097381 282.803291 
L 217.536518 283.01676 
L 220.975655 283.550434 
L 224.414792 284.511047 
L 227.853929 284.831251 
L 234.732203 286.539006 
L 245.049615 287.606354 
L 248.488752 288.140027 
L 255.367026 288.033293 
L 262.2453 286.645741 
L 265.684438 286.539006 
L 269.123575 286.752476 
L 272.562712 287.606354 
L 276.001849 288.246762 
L 279.440986 288.460232 
L 286.31926 288.566966 
L 293.197535 288.673701 
L 296.636672 288.033293 
L 300.075809 286.645741 
L 306.954083 285.685129 
L 317.271495 284.190842 
L 320.710632 284.084108 
L 324.149769 283.01676 
L 327.588906 283.23023 
L 331.028043 282.483087 
L 337.906317 281.842678 
L 341.345455 282.269617 
L 351.662866 284.404312 
L 355.102003 285.04472 
L 358.54114 284.404312 
L 361.980277 284.511047 
L 372.297689 285.685129 
L 375.736826 286.432272 
L 382.6151 286.539006 
L 386.054237 286.432272 
L 389.493374 287.07268 
L 392.932512 287.392884 
L 396.371649 287.392884 
L 399.810786 287.713089 
L 403.249923 287.392884 
L 410.128197 284.831251 
L 417.006471 282.803291 
L 420.445609 282.483087 
L 423.884746 282.589821 
L 427.323883 281.949413 
L 430.76302 281.735943 
L 434.202157 281.20227 
L 437.641294 281.735943 
L 441.080431 281.309005 
L 447.958706 281.095535 
L 454.83698 280.455127 
L 458.276117 280.775331 
L 465.154391 281.949413 
L 472.032666 283.977373 
L 475.471803 284.937985 
L 478.91094 284.831251 
L 482.350077 285.25819 
L 485.789214 285.25819 
L 492.667488 285.685129 
L 496.106626 286.539006 
L 499.545763 285.364924 
L 502.9849 283.977373 
L 506.424037 283.123495 
L 513.302311 282.376352 
L 516.741448 283.01676 
L 520.180586 283.870638 
L 523.619723 284.297577 
L 527.05886 283.550434 
L 530.497997 283.977373 
L 533.937134 283.977373 
L 537.376271 285.04472 
L 540.815408 284.937985 
L 544.254545 285.364924 
L 547.693683 285.04472 
L 551.13282 284.084108 
L 558.011094 284.190842 
L 561.450231 284.404312 
L 564.889368 284.937985 
L 568.328505 286.218802 
L 571.767643 287.179415 
L 575.20678 287.819823 
L 578.645917 288.246762 
L 585.524191 287.392884 
L 588.963328 287.392884 
L 592.402465 287.606354 
L 602.719877 291.34207 
L 606.159014 292.302682 
L 609.598151 292.195947 
L 616.476425 290.167987 
L 619.915562 288.993905 
L 623.3547 288.566966 
L 626.793837 288.353497 
L 633.672111 287.392884 
L 637.111248 286.752476 
L 640.550385 285.791863 
L 643.989522 284.511047 
L 647.428659 283.443699 
L 657.746071 281.20227 
L 661.185208 280.882066 
L 664.624345 280.9888 
L 668.063482 280.668596 
L 671.502619 280.882066 
L 674.941757 280.775331 
L 678.380894 281.20227 
L 681.820031 280.9888 
L 685.259168 281.735943 
L 688.698305 282.696556 
L 692.137442 282.696556 
L 695.576579 283.443699 
L 699.015716 282.910026 
L 702.454854 283.550434 
L 712.772265 286.432272 
L 716.211402 285.685129 
L 723.089676 285.685129 
L 726.528814 286.432272 
L 729.967951 286.539006 
L 733.407088 286.859211 
L 736.846225 286.752476 
L 740.285362 286.112068 
L 743.724499 286.325537 
L 747.163636 286.005333 
L 747.163636 286.005333 
" style="fill:none;stroke:#e377c2;stroke-linecap:square;stroke-width:1.5;"/>
   </g>
   <g id="line2d_22">
    <path clip-path="url(#p727ed706dc)" d="M 138.436364 286.325537 
L 141.875501 282.269617 
L 145.314638 279.707984 
L 148.753775 277.786758 
L 152.192912 276.612676 
L 155.632049 278.213697 
L 159.071186 278.320432 
L 162.510324 278.747371 
L 165.949461 277.786758 
L 169.388598 279.067575 
L 172.827735 279.921453 
L 176.266872 279.281045 
L 179.706009 278.854106 
L 183.145146 277.680024 
L 186.584284 277.680024 
L 190.023421 277.14635 
L 193.462558 277.893493 
L 196.901695 278.96084 
L 203.779969 281.735943 
L 207.219106 282.589821 
L 210.658243 282.589821 
L 214.097381 282.376352 
L 224.414792 278.213697 
L 227.853929 278.000228 
L 231.293066 279.17431 
L 234.732203 279.707984 
L 241.610478 281.949413 
L 248.488752 283.01676 
L 251.927889 284.831251 
L 255.367026 287.179415 
L 258.806163 288.887171 
L 262.2453 288.140027 
L 265.684438 289.10064 
L 269.123575 288.780436 
L 272.562712 288.993905 
L 276.001849 288.353497 
L 279.440986 287.28615 
L 282.880123 286.432272 
L 286.31926 285.791863 
L 289.758398 286.432272 
L 296.636672 287.392884 
L 300.075809 286.325537 
L 303.514946 285.791863 
L 306.954083 283.870638 
L 310.39322 283.657169 
L 313.832357 284.937985 
L 317.271495 286.752476 
L 324.149769 289.420844 
L 331.028043 288.246762 
L 334.46718 288.993905 
L 337.906317 288.566966 
L 341.345455 287.713089 
L 344.784592 285.471659 
L 348.223729 284.511047 
L 351.662866 282.589821 
L 355.102003 281.949413 
L 358.54114 283.23023 
L 361.980277 285.04472 
L 365.419414 284.831251 
L 368.858552 283.336964 
L 372.297689 282.803291 
L 375.736826 281.949413 
L 379.175963 281.949413 
L 382.6151 279.921453 
L 386.054237 279.17431 
L 389.493374 279.067575 
L 392.932512 279.601249 
L 396.371649 280.348392 
L 399.810786 279.814718 
L 403.249923 280.775331 
L 406.68906 283.01676 
L 410.128197 285.791863 
L 413.567334 284.297577 
L 417.006471 281.629209 
L 420.445609 279.601249 
L 423.884746 279.707984 
L 427.323883 280.241657 
L 430.76302 281.415739 
L 434.202157 282.162882 
L 437.641294 284.190842 
L 441.080431 284.617781 
L 447.958706 286.859211 
L 451.397843 286.859211 
L 454.83698 286.112068 
L 458.276117 284.084108 
L 461.715254 281.735943 
L 465.154391 281.20227 
L 468.593529 281.842678 
L 475.471803 280.028188 
L 478.91094 277.893493 
L 482.350077 276.612676 
L 485.789214 277.039615 
L 489.228351 278.427167 
L 492.667488 279.494514 
L 496.106626 281.095535 
L 499.545763 280.668596 
L 502.9849 282.162882 
L 506.424037 283.336964 
L 509.863174 284.297577 
L 516.741448 284.937985 
L 520.180586 286.112068 
L 523.619723 287.713089 
L 527.05886 289.954518 
L 530.497997 289.847783 
L 533.937134 288.140027 
L 537.376271 286.752476 
L 544.254545 285.791863 
L 547.693683 284.297577 
L 554.571957 286.218802 
L 558.011094 288.887171 
L 561.450231 289.634314 
L 564.889368 289.741048 
L 568.328505 290.167987 
L 571.767643 289.634314 
L 575.20678 289.847783 
L 578.645917 290.381457 
L 582.085054 288.780436 
L 585.524191 286.325537 
L 588.963328 286.112068 
L 592.402465 285.25819 
L 595.841602 286.432272 
L 599.28074 288.140027 
L 602.719877 287.499619 
L 606.159014 285.578394 
L 609.598151 285.685129 
L 613.037288 284.831251 
L 616.476425 284.190842 
L 619.915562 283.977373 
L 623.3547 285.364924 
L 630.232974 290.594926 
L 633.672111 291.555539 
L 637.111248 290.594926 
L 640.550385 291.021865 
L 643.989522 290.915131 
L 647.428659 291.875743 
L 650.867797 291.555539 
L 654.306934 289.741048 
L 657.746071 288.673701 
L 661.185208 290.061253 
L 664.624345 289.10064 
L 668.063482 286.752476 
L 671.502619 286.005333 
L 674.941757 285.791863 
L 678.380894 287.499619 
L 681.820031 288.673701 
L 685.259168 287.926558 
L 692.137442 286.859211 
L 695.576579 287.07268 
L 699.015716 287.07268 
L 702.454854 288.033293 
L 705.893991 288.033293 
L 709.333128 288.780436 
L 712.772265 285.578394 
L 716.211402 283.443699 
L 719.650539 281.522474 
L 723.089676 283.123495 
L 726.528814 283.443699 
L 729.967951 283.123495 
L 733.407088 283.123495 
L 736.846225 284.297577 
L 740.285362 284.831251 
L 743.724499 285.04472 
L 747.163636 284.297577 
L 747.163636 284.297577 
" style="fill:none;stroke:#7f7f7f;stroke-linecap:square;stroke-width:1.5;"/>
   </g>
   <g id="line2d_23">
    <path clip-path="url(#p727ed706dc)" d="M 138.436364 318.025753 
L 141.875501 314.396772 
L 148.753775 308.312892 
L 152.192912 307.13881 
L 155.632049 306.178198 
L 159.071186 305.751259 
L 162.510324 304.256972 
L 165.949461 302.442482 
L 169.388598 300.094318 
L 172.827735 298.386562 
L 176.266872 298.173092 
L 179.706009 299.02697 
L 183.145146 301.375134 
L 186.584284 302.229012 
L 190.023421 302.442482 
L 193.462558 301.802073 
L 196.901695 303.08289 
L 200.340832 303.723299 
L 203.779969 304.577177 
L 207.219106 303.616564 
L 210.658243 299.347175 
L 214.097381 293.476764 
L 217.536518 287.28615 
L 220.975655 284.084108 
L 224.414792 281.20227 
L 227.853929 280.241657 
L 231.293066 279.707984 
L 234.732203 278.96084 
L 238.171341 277.466554 
L 241.610478 275.011655 
L 245.049615 273.730838 
L 248.488752 271.596144 
L 251.927889 268.821041 
L 255.367026 267.326754 
L 258.806163 266.793081 
L 262.2453 267.433489 
L 265.684438 269.461449 
L 269.123575 272.663491 
L 272.562712 276.612676 
L 279.440986 286.432272 
L 282.880123 291.662274 
L 289.758398 297.105745 
L 293.197535 298.600031 
L 296.636672 296.99901 
L 300.075809 293.263295 
L 303.514946 288.780436 
L 306.954083 283.443699 
L 313.832357 272.343287 
L 317.271495 267.860428 
L 320.710632 263.057365 
L 324.149769 260.602466 
L 327.588906 260.709201 
L 334.46718 264.658386 
L 337.906317 265.832468 
L 341.345455 266.259407 
L 344.784592 265.832468 
L 348.223729 266.259407 
L 351.662866 267.433489 
L 355.102003 269.24798 
L 358.54114 269.24798 
L 361.980277 269.03451 
L 365.419414 267.540224 
L 368.858552 265.298794 
L 372.297689 264.338182 
L 375.736826 264.338182 
L 379.175963 264.871855 
L 386.054237 263.911243 
L 389.493374 263.270834 
L 392.932512 261.669813 
L 396.371649 261.669813 
L 399.810786 262.416957 
L 403.249923 262.95063 
L 406.68906 262.843896 
L 410.128197 264.658386 
L 413.567334 266.045938 
L 417.006471 268.180632 
L 420.445609 269.888388 
L 423.884746 273.09043 
L 427.323883 276.505941 
L 430.76302 279.707984 
L 434.202157 283.550434 
L 437.641294 285.898598 
L 441.080431 287.499619 
L 444.519569 287.179415 
L 447.958706 286.539006 
L 451.397843 285.25819 
L 454.83698 283.763903 
L 458.276117 283.336964 
L 461.715254 282.056148 
L 465.154391 280.241657 
L 468.593529 278.747371 
L 472.032666 278.640636 
L 475.471803 278.213697 
L 478.91094 278.427167 
L 482.350077 279.707984 
L 485.789214 280.668596 
L 496.106626 282.056148 
L 499.545763 282.803291 
L 506.424037 285.04472 
L 509.863174 286.965945 
L 516.741448 286.325537 
L 520.180586 285.791863 
L 527.05886 286.539006 
L 530.497997 288.566966 
L 533.937134 290.808396 
L 537.376271 292.729621 
L 540.815408 291.662274 
L 544.254545 292.195947 
L 547.693683 287.819823 
L 554.571957 287.179415 
L 558.011094 287.713089 
L 561.450231 287.392884 
L 564.889368 286.859211 
L 568.328505 287.179415 
L 571.767643 285.791863 
L 575.20678 286.112068 
L 578.645917 286.005333 
L 582.085054 286.965945 
L 588.963328 290.381457 
L 592.402465 291.34207 
L 595.841602 291.448804 
L 599.28074 291.235335 
L 602.719877 291.769008 
L 606.159014 291.235335 
L 609.598151 289.207375 
L 613.037288 288.353497 
L 616.476425 286.965945 
L 619.915562 285.898598 
L 623.3547 285.471659 
L 626.793837 286.645741 
L 637.111248 291.555539 
L 640.550385 292.729621 
L 643.989522 290.274722 
L 647.428659 288.246762 
L 650.867797 287.179415 
L 661.185208 285.791863 
L 664.624345 283.763903 
L 668.063482 281.20227 
L 671.502619 278.000228 
L 674.941757 276.505941 
L 678.380894 274.371247 
L 681.820031 273.09043 
L 685.259168 272.770226 
L 688.698305 271.809613 
L 692.137442 270.208592 
L 695.576579 268.821041 
L 699.015716 268.073898 
L 702.454854 267.753693 
L 705.893991 267.113285 
L 709.333128 266.686346 
L 712.772265 267.540224 
L 716.211402 267.433489 
L 719.650539 269.674919 
L 726.528814 275.11839 
L 729.967951 279.707984 
L 733.407088 283.657169 
L 736.846225 286.432272 
L 740.285362 286.005333 
L 743.724499 285.04472 
L 747.163636 286.218802 
L 747.163636 286.218802 
" style="fill:none;stroke:#bcbd22;stroke-linecap:square;stroke-width:1.5;"/>
   </g>
   <g id="line2d_24">
    <path clip-path="url(#p727ed706dc)" d="M 138.436364 290.061253 
L 141.875501 293.049825 
L 145.314638 294.97105 
L 148.753775 296.572071 
L 155.632049 298.279827 
L 165.949461 298.173092 
L 169.388598 297.639419 
L 172.827735 296.145133 
L 176.266872 293.903703 
L 179.706009 291.448804 
L 183.145146 292.089213 
L 186.584284 294.650846 
L 190.023421 296.892276 
L 193.462558 298.920236 
L 196.901695 297.852888 
L 200.340832 297.959623 
L 203.779969 298.706766 
L 207.219106 296.892276 
L 210.658243 293.476764 
L 214.097381 290.808396 
L 217.536518 289.420844 
L 220.975655 289.10064 
L 224.414792 289.847783 
L 227.853929 289.527579 
L 231.293066 288.887171 
L 238.171341 290.061253 
L 241.610478 291.875743 
L 245.049615 291.448804 
L 248.488752 291.34207 
L 251.927889 290.274722 
L 255.367026 288.460232 
L 258.806163 286.432272 
L 262.2453 284.084108 
L 265.684438 283.01676 
L 269.123575 281.415739 
L 272.562712 280.668596 
L 276.001849 280.241657 
L 279.440986 278.854106 
L 282.880123 278.747371 
L 286.31926 279.814718 
L 289.758398 281.095535 
L 293.197535 283.443699 
L 296.636672 287.28615 
L 300.075809 290.274722 
L 306.954083 295.931663 
L 310.39322 298.813501 
L 313.832357 300.521257 
L 317.271495 300.841461 
L 320.710632 300.948196 
L 324.149769 299.02697 
L 327.588906 296.038398 
L 331.028043 291.769008 
L 334.46718 288.460232 
L 337.906317 285.791863 
L 341.345455 284.297577 
L 344.784592 284.084108 
L 348.223729 284.297577 
L 351.662866 284.937985 
L 355.102003 284.724516 
L 361.980277 286.752476 
L 365.419414 288.353497 
L 368.858552 292.516152 
L 372.297689 296.358602 
L 375.736826 297.425949 
L 379.175963 295.931663 
L 386.054237 289.634314 
L 389.493374 287.926558 
L 392.932512 288.353497 
L 396.371649 288.460232 
L 399.810786 287.392884 
L 403.249923 284.937985 
L 406.68906 283.550434 
L 413.567334 282.696556 
L 417.006471 282.803291 
L 420.445609 283.443699 
L 423.884746 282.269617 
L 427.323883 281.415739 
L 430.76302 281.415739 
L 434.202157 281.735943 
L 441.080431 285.471659 
L 444.519569 287.926558 
L 447.958706 287.606354 
L 451.397843 287.499619 
L 454.83698 286.965945 
L 458.276117 285.364924 
L 461.715254 284.511047 
L 465.154391 283.977373 
L 468.593529 284.404312 
L 472.032666 285.04472 
L 478.91094 285.578394 
L 482.350077 285.25819 
L 489.228351 287.392884 
L 492.667488 288.993905 
L 499.545763 289.954518 
L 502.9849 291.1286 
L 506.424037 291.235335 
L 509.863174 291.662274 
L 516.741448 293.476764 
L 520.180586 294.010438 
L 523.619723 294.757581 
L 530.497997 293.15656 
L 533.937134 291.875743 
L 537.376271 292.516152 
L 540.815408 291.769008 
L 544.254545 290.808396 
L 547.693683 290.594926 
L 551.13282 291.1286 
L 554.571957 289.741048 
L 561.450231 286.645741 
L 564.889368 285.685129 
L 568.328505 286.112068 
L 575.20678 288.993905 
L 578.645917 289.31411 
L 582.085054 288.993905 
L 588.963328 287.392884 
L 592.402465 287.28615 
L 595.841602 287.392884 
L 599.28074 287.07268 
L 602.719877 285.364924 
L 609.598151 282.910026 
L 613.037288 282.483087 
L 616.476425 282.269617 
L 619.915562 283.657169 
L 623.3547 284.831251 
L 626.793837 285.578394 
L 630.232974 285.898598 
L 637.111248 287.392884 
L 640.550385 288.993905 
L 643.989522 290.808396 
L 647.428659 292.836356 
L 650.867797 292.729621 
L 654.306934 293.263295 
L 657.746071 292.622886 
L 661.185208 291.021865 
L 664.624345 289.10064 
L 668.063482 288.566966 
L 671.502619 288.460232 
L 674.941757 288.033293 
L 678.380894 287.819823 
L 681.820031 287.179415 
L 685.259168 285.898598 
L 688.698305 284.831251 
L 692.137442 285.04472 
L 695.576579 285.578394 
L 699.015716 287.28615 
L 702.454854 288.673701 
L 705.893991 289.31411 
L 709.333128 289.10064 
L 712.772265 287.392884 
L 716.211402 286.539006 
L 719.650539 286.539006 
L 723.089676 285.364924 
L 726.528814 287.179415 
L 733.407088 288.353497 
L 736.846225 288.353497 
L 740.285362 287.819823 
L 743.724499 287.499619 
L 747.163636 287.499619 
L 747.163636 287.499619 
" style="fill:none;stroke:#17becf;stroke-linecap:square;stroke-width:1.5;"/>
   </g>
   <g id="line2d_25">
    <path clip-path="url(#p727ed706dc)" d="M 138.436364 281.095535 
L 141.875501 280.668596 
L 145.314638 278.640636 
L 148.753775 276.826146 
L 152.192912 275.652064 
L 155.632049 276.399207 
L 159.071186 275.652064 
L 162.510324 277.039615 
L 165.949461 278.854106 
L 169.388598 279.067575 
L 172.827735 280.882066 
L 176.266872 281.095535 
L 179.706009 283.123495 
L 183.145146 283.763903 
L 186.584284 284.617781 
L 190.023421 283.870638 
L 193.462558 283.870638 
L 196.901695 280.882066 
L 200.340832 279.281045 
L 203.779969 275.865533 
L 207.219106 275.758798 
L 210.658243 276.826146 
L 214.097381 276.719411 
L 217.536518 277.680024 
L 220.975655 276.399207 
L 224.414792 277.893493 
L 227.853929 277.14635 
L 231.293066 277.14635 
L 234.732203 278.106962 
L 238.171341 277.14635 
L 241.610478 278.213697 
L 245.049615 278.000228 
L 248.488752 278.96084 
L 251.927889 280.134922 
L 255.367026 278.854106 
L 258.806163 279.707984 
L 262.2453 281.415739 
L 269.123575 283.977373 
L 272.562712 284.831251 
L 276.001849 284.084108 
L 282.880123 285.685129 
L 286.31926 285.791863 
L 289.758398 285.685129 
L 293.197535 286.005333 
L 296.636672 287.499619 
L 300.075809 286.752476 
L 303.514946 286.645741 
L 306.954083 287.07268 
L 310.39322 286.432272 
L 313.832357 287.606354 
L 317.271495 287.926558 
L 320.710632 290.274722 
L 324.149769 290.488192 
L 331.028043 289.527579 
L 334.46718 286.432272 
L 337.906317 283.657169 
L 341.345455 280.455127 
L 344.784592 280.134922 
L 348.223729 280.561861 
L 351.662866 281.415739 
L 355.102003 281.095535 
L 358.54114 281.20227 
L 365.419414 283.870638 
L 368.858552 283.977373 
L 375.736826 278.96084 
L 379.175963 276.185737 
L 382.6151 274.691451 
L 386.054237 272.983695 
L 389.493374 273.944308 
L 392.932512 276.185737 
L 403.249923 278.96084 
L 406.68906 280.348392 
L 410.128197 280.348392 
L 413.567334 281.522474 
L 417.006471 281.735943 
L 420.445609 283.657169 
L 423.884746 285.898598 
L 427.323883 287.819823 
L 430.76302 286.325537 
L 434.202157 284.404312 
L 437.641294 282.056148 
L 441.080431 280.668596 
L 447.958706 278.427167 
L 451.397843 279.281045 
L 454.83698 279.601249 
L 458.276117 278.640636 
L 461.715254 276.93288 
L 465.154391 275.545329 
L 468.593529 275.11839 
L 472.032666 275.758798 
L 475.471803 277.573289 
L 478.91094 280.455127 
L 482.350077 283.550434 
L 485.789214 286.325537 
L 489.228351 287.713089 
L 492.667488 288.460232 
L 496.106626 290.381457 
L 499.545763 292.089213 
L 509.863174 295.718194 
L 513.302311 295.611459 
L 516.741448 293.903703 
L 520.180586 292.409417 
L 523.619723 290.701661 
L 527.05886 289.31411 
L 533.937134 287.713089 
L 537.376271 287.28615 
L 540.815408 284.511047 
L 544.254545 282.162882 
L 547.693683 281.309005 
L 551.13282 280.882066 
L 554.571957 282.696556 
L 558.011094 285.685129 
L 561.450231 287.499619 
L 564.889368 289.527579 
L 568.328505 289.634314 
L 571.767643 290.701661 
L 575.20678 291.021865 
L 592.402465 291.448804 
L 595.841602 292.409417 
L 599.28074 293.049825 
L 602.719877 294.650846 
L 606.159014 296.465337 
L 609.598151 295.077785 
L 613.037288 290.274722 
L 616.476425 287.179415 
L 619.915562 285.791863 
L 623.3547 285.898598 
L 626.793837 287.179415 
L 630.232974 287.392884 
L 633.672111 288.460232 
L 637.111248 288.673701 
L 640.550385 288.566966 
L 647.428659 286.432272 
L 650.867797 285.685129 
L 654.306934 286.539006 
L 657.746071 285.471659 
L 661.185208 285.04472 
L 668.063482 282.696556 
L 671.502619 280.775331 
L 674.941757 279.494514 
L 678.380894 279.067575 
L 681.820031 277.893493 
L 685.259168 279.17431 
L 688.698305 279.067575 
L 692.137442 280.775331 
L 695.576579 279.707984 
L 699.015716 279.17431 
L 702.454854 279.494514 
L 705.893991 278.96084 
L 709.333128 279.707984 
L 712.772265 281.522474 
L 716.211402 282.696556 
L 719.650539 282.056148 
L 723.089676 280.134922 
L 726.528814 279.17431 
L 729.967951 277.14635 
L 733.407088 279.281045 
L 740.285362 281.949413 
L 743.724499 284.511047 
L 747.163636 286.005333 
L 747.163636 286.005333 
" style="fill:none;stroke:#1f77b4;stroke-linecap:square;stroke-width:1.5;"/>
   </g>
   <g id="line2d_26">
    <path clip-path="url(#p727ed706dc)" d="M 138.436364 295.611459 
L 141.875501 294.437377 
L 148.753775 290.488192 
L 152.192912 288.887171 
L 155.632049 286.218802 
L 162.510324 285.151455 
L 165.949461 282.162882 
L 169.388598 280.028188 
L 172.827735 279.281045 
L 176.266872 279.281045 
L 179.706009 280.668596 
L 183.145146 280.882066 
L 186.584284 281.309005 
L 190.023421 281.522474 
L 196.901695 284.831251 
L 200.340832 287.28615 
L 203.779969 288.353497 
L 207.219106 288.673701 
L 210.658243 289.420844 
L 214.097381 289.420844 
L 217.536518 288.246762 
L 220.975655 287.926558 
L 227.853929 286.005333 
L 231.293066 285.791863 
L 234.732203 284.831251 
L 238.171341 283.23023 
L 241.610478 282.483087 
L 245.049615 283.550434 
L 248.488752 285.471659 
L 251.927889 284.831251 
L 255.367026 285.471659 
L 258.806163 284.831251 
L 262.2453 285.471659 
L 265.684438 286.645741 
L 269.123575 287.392884 
L 272.562712 288.887171 
L 276.001849 288.246762 
L 279.440986 288.140027 
L 282.880123 286.859211 
L 289.758398 286.325537 
L 293.197535 288.566966 
L 296.636672 288.246762 
L 300.075809 286.539006 
L 303.514946 286.005333 
L 306.954083 283.763903 
L 310.39322 284.511047 
L 313.832357 284.404312 
L 317.271495 285.685129 
L 320.710632 287.179415 
L 324.149769 287.713089 
L 327.588906 288.673701 
L 331.028043 288.460232 
L 334.46718 288.033293 
L 337.906317 290.381457 
L 341.345455 291.235335 
L 344.784592 291.875743 
L 348.223729 291.982478 
L 351.662866 293.15656 
L 355.102003 292.622886 
L 358.54114 291.662274 
L 361.980277 288.353497 
L 368.858552 288.353497 
L 372.297689 290.915131 
L 375.736826 293.796968 
L 379.175963 295.504724 
L 382.6151 295.291255 
L 386.054237 292.409417 
L 389.493374 290.808396 
L 396.371649 286.112068 
L 399.810786 284.724516 
L 403.249923 285.685129 
L 406.68906 288.566966 
L 410.128197 290.381457 
L 413.567334 292.516152 
L 417.006471 292.622886 
L 420.445609 293.049825 
L 423.884746 293.263295 
L 427.323883 290.488192 
L 430.76302 286.432272 
L 434.202157 281.522474 
L 437.641294 278.320432 
L 441.080431 276.185737 
L 447.958706 279.067575 
L 451.397843 279.387779 
L 454.83698 276.719411 
L 458.276117 274.371247 
L 461.715254 272.236552 
L 465.154391 271.702878 
L 468.593529 273.624104 
L 472.032666 273.197165 
L 475.471803 274.691451 
L 478.91094 273.517369 
L 482.350077 273.624104 
L 485.789214 273.09043 
L 489.228351 270.528796 
L 492.667488 268.927775 
L 496.106626 268.500836 
L 499.545763 269.888388 
L 502.9849 271.489409 
L 506.424037 272.129817 
L 509.863174 273.303899 
L 513.302311 273.944308 
L 520.180586 278.533901 
L 523.619723 280.348392 
L 527.05886 278.640636 
L 530.497997 278.106962 
L 533.937134 276.292472 
L 537.376271 277.786758 
L 540.815408 279.067575 
L 544.254545 280.882066 
L 547.693683 281.20227 
L 551.13282 280.775331 
L 554.571957 282.056148 
L 558.011094 282.803291 
L 561.450231 282.696556 
L 564.889368 281.415739 
L 568.328505 277.893493 
L 571.767643 273.410634 
L 575.20678 271.596144 
L 578.645917 271.382674 
L 582.085054 273.944308 
L 585.524191 275.652064 
L 588.963328 275.011655 
L 592.402465 275.331859 
L 595.841602 274.477982 
L 599.28074 278.320432 
L 602.719877 282.910026 
L 606.159014 287.926558 
L 609.598151 292.195947 
L 613.037288 294.864316 
L 616.476425 297.21248 
L 619.915562 294.650846 
L 623.3547 291.555539 
L 626.793837 288.780436 
L 630.232974 289.207375 
L 633.672111 290.808396 
L 640.550385 295.931663 
L 643.989522 297.425949 
L 647.428659 298.493297 
L 650.867797 298.920236 
L 654.306934 298.279827 
L 657.746071 297.319215 
L 661.185208 295.824928 
L 664.624345 293.263295 
L 668.063482 291.34207 
L 671.502619 288.673701 
L 674.941757 285.471659 
L 681.820031 278.533901 
L 685.259168 279.067575 
L 688.698305 279.067575 
L 692.137442 278.747371 
L 695.576579 278.106962 
L 699.015716 278.106962 
L 702.454854 278.96084 
L 705.893991 278.000228 
L 709.333128 276.826146 
L 712.772265 276.185737 
L 716.211402 276.185737 
L 719.650539 277.893493 
L 723.089676 279.281045 
L 726.528814 281.20227 
L 729.967951 281.309005 
L 733.407088 282.483087 
L 736.846225 280.561861 
L 740.285362 282.162882 
L 743.724499 282.162882 
L 747.163636 284.404312 
L 747.163636 284.404312 
" style="fill:none;stroke:#ff7f0e;stroke-linecap:square;stroke-width:1.5;"/>
   </g>
   <g id="line2d_27">
    <path clip-path="url(#p727ed706dc)" d="M 138.436364 280.561861 
L 141.875501 279.921453 
L 145.314638 280.455127 
L 148.753775 282.910026 
L 155.632049 289.634314 
L 159.071186 290.594926 
L 162.510324 289.741048 
L 165.949461 287.819823 
L 172.827735 290.061253 
L 176.266872 293.263295 
L 179.706009 294.010438 
L 183.145146 293.476764 
L 186.584284 292.729621 
L 190.023421 291.555539 
L 193.462558 291.769008 
L 196.901695 288.140027 
L 200.340832 286.005333 
L 203.779969 284.084108 
L 207.219106 282.910026 
L 210.658243 285.791863 
L 214.097381 288.246762 
L 217.536518 289.634314 
L 220.975655 288.887171 
L 224.414792 289.207375 
L 227.853929 287.926558 
L 234.732203 282.269617 
L 238.171341 278.96084 
L 241.610478 279.17431 
L 245.049615 279.17431 
L 248.488752 281.735943 
L 251.927889 281.949413 
L 255.367026 283.123495 
L 258.806163 285.578394 
L 262.2453 285.578394 
L 265.684438 285.25819 
L 269.123575 284.404312 
L 272.562712 284.937985 
L 279.440986 280.134922 
L 282.880123 278.000228 
L 286.31926 279.601249 
L 293.197535 281.522474 
L 296.636672 281.949413 
L 300.075809 281.309005 
L 303.514946 281.522474 
L 306.954083 279.814718 
L 310.39322 278.854106 
L 313.832357 276.93288 
L 317.271495 277.039615 
L 320.710632 280.241657 
L 324.149769 282.910026 
L 331.028043 289.741048 
L 334.46718 292.302682 
L 337.906317 292.836356 
L 341.345455 294.544112 
L 344.784592 294.650846 
L 348.223729 295.931663 
L 355.102003 296.785541 
L 358.54114 295.931663 
L 361.980277 293.263295 
L 365.419414 289.634314 
L 368.858552 284.937985 
L 372.297689 280.9888 
L 375.736826 279.17431 
L 379.175963 279.281045 
L 386.054237 276.185737 
L 389.493374 273.624104 
L 392.932512 273.410634 
L 396.371649 273.517369 
L 399.810786 275.11839 
L 406.68906 275.865533 
L 413.567334 271.916348 
L 417.006471 271.596144 
L 420.445609 273.09043 
L 423.884746 276.505941 
L 427.323883 280.9888 
L 430.76302 283.336964 
L 437.641294 281.735943 
L 441.080431 281.735943 
L 444.519569 282.589821 
L 451.397843 281.20227 
L 454.83698 280.348392 
L 458.276117 281.735943 
L 461.715254 282.056148 
L 465.154391 284.297577 
L 468.593529 281.415739 
L 472.032666 282.696556 
L 475.471803 283.336964 
L 478.91094 286.005333 
L 482.350077 288.887171 
L 485.789214 291.448804 
L 489.228351 292.729621 
L 492.667488 291.555539 
L 496.106626 291.235335 
L 499.545763 292.836356 
L 502.9849 294.223907 
L 509.863174 292.622886 
L 516.741448 293.690234 
L 520.180586 293.796968 
L 523.619723 292.836356 
L 527.05886 290.915131 
L 530.497997 289.634314 
L 533.937134 289.207375 
L 537.376271 287.606354 
L 540.815408 287.819823 
L 544.254545 287.819823 
L 547.693683 289.847783 
L 554.571957 287.28615 
L 558.011094 288.353497 
L 564.889368 289.10064 
L 568.328505 286.539006 
L 571.767643 282.483087 
L 575.20678 280.775331 
L 578.645917 280.561861 
L 582.085054 280.775331 
L 585.524191 280.241657 
L 588.963328 277.14635 
L 592.402465 275.438594 
L 595.841602 276.079003 
L 599.28074 278.533901 
L 602.719877 283.01676 
L 606.159014 286.112068 
L 609.598151 287.499619 
L 613.037288 288.566966 
L 616.476425 290.915131 
L 619.915562 292.943091 
L 623.3547 295.611459 
L 626.793837 296.465337 
L 630.232974 297.105745 
L 633.672111 295.931663 
L 640.550385 291.875743 
L 647.428659 288.460232 
L 650.867797 287.499619 
L 654.306934 289.634314 
L 657.746071 290.701661 
L 661.185208 291.448804 
L 664.624345 291.448804 
L 668.063482 290.381457 
L 671.502619 290.808396 
L 674.941757 290.701661 
L 678.380894 289.954518 
L 685.259168 283.870638 
L 688.698305 281.309005 
L 692.137442 280.348392 
L 695.576579 279.067575 
L 699.015716 278.533901 
L 702.454854 278.320432 
L 705.893991 277.786758 
L 709.333128 275.545329 
L 716.211402 273.730838 
L 719.650539 272.876961 
L 723.089676 274.264512 
L 726.528814 276.079003 
L 729.967951 278.213697 
L 740.285362 281.522474 
L 743.724499 282.803291 
L 747.163636 283.657169 
L 747.163636 283.657169 
" style="fill:none;stroke:#2ca02c;stroke-linecap:square;stroke-width:1.5;"/>
   </g>
   <g id="line2d_28">
    <path clip-path="url(#p727ed706dc)" d="M 138.436364 291.875743 
L 141.875501 291.769008 
L 145.314638 291.34207 
L 148.753775 291.448804 
L 152.192912 291.1286 
L 155.632049 291.1286 
L 159.071186 290.381457 
L 162.510324 289.847783 
L 165.949461 288.993905 
L 169.388598 288.460232 
L 172.827735 288.353497 
L 176.266872 288.033293 
L 179.706009 288.460232 
L 186.584284 288.353497 
L 190.023421 287.392884 
L 193.462558 286.965945 
L 196.901695 287.392884 
L 200.340832 287.392884 
L 210.658243 288.460232 
L 224.414792 292.622886 
L 231.293066 294.010438 
L 234.732203 293.903703 
L 238.171341 293.370029 
L 241.610478 293.15656 
L 248.488752 291.555539 
L 251.927889 291.235335 
L 255.367026 291.448804 
L 258.806163 291.1286 
L 262.2453 290.381457 
L 272.562712 289.207375 
L 276.001849 288.460232 
L 282.880123 288.033293 
L 286.31926 288.460232 
L 289.758398 289.31411 
L 293.197535 289.527579 
L 296.636672 288.887171 
L 300.075809 287.926558 
L 303.514946 287.28615 
L 306.954083 286.965945 
L 310.39322 287.179415 
L 313.832357 286.645741 
L 317.271495 286.325537 
L 320.710632 284.937985 
L 324.149769 284.084108 
L 327.588906 282.910026 
L 331.028043 282.376352 
L 337.906317 282.589821 
L 341.345455 282.376352 
L 344.784592 281.522474 
L 348.223729 281.629209 
L 351.662866 281.20227 
L 358.54114 282.376352 
L 361.980277 283.443699 
L 368.858552 285.04472 
L 372.297689 286.752476 
L 375.736826 287.606354 
L 379.175963 288.033293 
L 382.6151 288.780436 
L 386.054237 288.993905 
L 389.493374 289.847783 
L 392.932512 289.207375 
L 396.371649 289.10064 
L 399.810786 288.140027 
L 406.68906 287.179415 
L 413.567334 286.432272 
L 417.006471 284.831251 
L 420.445609 283.870638 
L 423.884746 283.23023 
L 427.323883 282.376352 
L 430.76302 281.949413 
L 434.202157 282.056148 
L 441.080431 281.842678 
L 444.519569 282.269617 
L 454.83698 283.01676 
L 458.276117 284.190842 
L 461.715254 284.404312 
L 465.154391 285.04472 
L 468.593529 285.25819 
L 472.032666 285.898598 
L 475.471803 285.471659 
L 482.350077 285.364924 
L 485.789214 285.151455 
L 496.106626 285.364924 
L 499.545763 285.04472 
L 502.9849 284.511047 
L 506.424037 284.190842 
L 509.863174 283.550434 
L 513.302311 284.084108 
L 516.741448 284.190842 
L 520.180586 285.151455 
L 527.05886 286.752476 
L 530.497997 288.246762 
L 537.376271 289.847783 
L 544.254545 290.701661 
L 547.693683 290.594926 
L 551.13282 290.701661 
L 554.571957 289.954518 
L 558.011094 288.887171 
L 561.450231 288.140027 
L 564.889368 287.713089 
L 571.767643 285.364924 
L 575.20678 283.870638 
L 578.645917 283.657169 
L 582.085054 283.123495 
L 585.524191 283.23023 
L 588.963328 284.404312 
L 599.28074 286.005333 
L 602.719877 286.005333 
L 606.159014 285.791863 
L 609.598151 285.791863 
L 613.037288 286.112068 
L 616.476425 287.392884 
L 623.3547 287.926558 
L 633.672111 287.819823 
L 637.111248 287.713089 
L 640.550385 288.460232 
L 643.989522 287.819823 
L 650.867797 288.033293 
L 657.746071 287.606354 
L 661.185208 287.713089 
L 664.624345 287.606354 
L 671.502619 288.566966 
L 674.941757 288.780436 
L 678.380894 288.566966 
L 685.259168 289.10064 
L 692.137442 291.1286 
L 695.576579 292.729621 
L 699.015716 293.476764 
L 702.454854 293.903703 
L 705.893991 293.690234 
L 709.333128 293.049825 
L 712.772265 291.769008 
L 719.650539 289.741048 
L 723.089676 288.460232 
L 726.528814 287.392884 
L 729.967951 286.539006 
L 733.407088 286.218802 
L 736.846225 285.578394 
L 740.285362 285.791863 
L 743.724499 285.471659 
L 747.163636 285.898598 
L 747.163636 285.898598 
" style="fill:none;stroke:#d62728;stroke-linecap:square;stroke-width:1.5;"/>
   </g>
   <g id="line2d_29">
    <path clip-path="url(#p727ed706dc)" d="M 138.436364 286.218802 
L 141.875501 287.28615 
L 148.753775 289.10064 
L 152.192912 290.167987 
L 155.632049 290.167987 
L 159.071186 290.915131 
L 162.510324 290.915131 
L 165.949461 291.235335 
L 169.388598 290.808396 
L 179.706009 290.701661 
L 183.145146 291.34207 
L 186.584284 291.34207 
L 190.023421 290.915131 
L 193.462558 290.915131 
L 196.901695 291.662274 
L 200.340832 292.089213 
L 207.219106 294.330642 
L 210.658243 295.18452 
L 214.097381 295.611459 
L 217.536518 296.678806 
L 220.975655 298.066358 
L 224.414792 298.813501 
L 227.853929 299.774113 
L 231.293066 300.094318 
L 238.171341 300.094318 
L 241.610478 299.774113 
L 245.049615 300.201052 
L 248.488752 298.813501 
L 251.927889 298.706766 
L 255.367026 298.386562 
L 262.2453 299.987583 
L 265.684438 300.414522 
L 269.123575 302.549217 
L 272.562712 302.549217 
L 276.001849 302.869421 
L 282.880123 301.908808 
L 286.31926 302.976156 
L 289.758398 304.577177 
L 293.197535 305.964728 
L 300.075809 305.431054 
L 306.954083 303.723299 
L 310.39322 301.908808 
L 317.271495 300.841461 
L 327.588906 299.880848 
L 331.028043 299.987583 
L 334.46718 299.133705 
L 337.906317 299.560644 
L 341.345455 299.133705 
L 344.784592 298.386562 
L 351.662866 299.133705 
L 355.102003 300.307787 
L 358.54114 301.2684 
L 361.980277 303.936768 
L 365.419414 306.284932 
L 368.858552 308.419627 
L 372.297689 309.38024 
L 375.736826 312.155343 
L 379.175963 312.262077 
L 382.6151 311.514934 
L 386.054237 307.35228 
L 389.493374 302.762686 
L 392.932512 298.920236 
L 396.371649 296.892276 
L 399.810786 295.18452 
L 403.249923 294.010438 
L 406.68906 291.769008 
L 413.567334 289.31411 
L 417.006471 286.859211 
L 420.445609 284.831251 
L 423.884746 284.084108 
L 427.323883 283.123495 
L 430.76302 285.578394 
L 434.202157 289.10064 
L 437.641294 293.263295 
L 447.958706 302.869421 
L 451.397843 304.790646 
L 454.83698 306.391667 
L 458.276117 307.245545 
L 461.715254 306.284932 
L 465.154391 303.616564 
L 472.032666 296.572071 
L 475.471803 293.476764 
L 478.91094 292.729621 
L 482.350077 291.235335 
L 485.789214 290.274722 
L 489.228351 288.780436 
L 492.667488 287.926558 
L 499.545763 288.033293 
L 502.9849 289.741048 
L 509.863174 291.769008 
L 513.302311 290.488192 
L 523.619723 288.246762 
L 527.05886 288.887171 
L 530.497997 289.207375 
L 533.937134 290.274722 
L 537.376271 290.488192 
L 540.815408 291.662274 
L 544.254545 291.769008 
L 547.693683 291.555539 
L 551.13282 291.875743 
L 554.571957 292.729621 
L 558.011094 294.223907 
L 561.450231 295.397989 
L 564.889368 297.21248 
L 568.328505 297.959623 
L 571.767643 298.066358 
L 575.20678 297.852888 
L 582.085054 298.386562 
L 585.524191 297.959623 
L 588.963328 298.706766 
L 595.841602 297.532684 
L 599.28074 297.319215 
L 602.719877 296.251867 
L 606.159014 294.864316 
L 609.598151 292.836356 
L 616.476425 292.516152 
L 619.915562 291.555539 
L 623.3547 290.167987 
L 626.793837 290.061253 
L 633.672111 292.516152 
L 637.111248 294.010438 
L 643.989522 293.690234 
L 647.428659 293.263295 
L 654.306934 291.555539 
L 657.746071 290.915131 
L 661.185208 290.594926 
L 664.624345 289.954518 
L 668.063482 289.10064 
L 671.502619 288.993905 
L 674.941757 289.954518 
L 678.380894 290.594926 
L 685.259168 293.263295 
L 688.698305 294.650846 
L 692.137442 294.650846 
L 695.576579 294.437377 
L 699.015716 293.903703 
L 702.454854 291.875743 
L 705.893991 291.1286 
L 709.333128 290.167987 
L 716.211402 290.167987 
L 719.650539 290.808396 
L 723.089676 291.875743 
L 726.528814 291.769008 
L 729.967951 292.089213 
L 733.407088 292.729621 
L 736.846225 294.544112 
L 740.285362 295.291255 
L 743.724499 296.572071 
L 747.163636 296.99901 
L 747.163636 296.99901 
" style="fill:none;stroke:#9467bd;stroke-linecap:square;stroke-width:1.5;"/>
   </g>
   <g id="line2d_30">
    <path clip-path="url(#p727ed706dc)" d="M 138.436364 288.140027 
L 141.875501 288.887171 
L 148.753775 289.31411 
L 152.192912 288.566966 
L 155.632049 288.353497 
L 159.071186 287.392884 
L 162.510324 287.28615 
L 169.388598 286.645741 
L 176.266872 285.151455 
L 179.706009 285.25819 
L 183.145146 284.724516 
L 186.584284 285.364924 
L 196.901695 285.578394 
L 200.340832 285.578394 
L 203.779969 285.25819 
L 214.097381 286.645741 
L 217.536518 286.752476 
L 224.414792 287.28615 
L 227.853929 286.539006 
L 231.293066 286.752476 
L 234.732203 286.752476 
L 238.171341 286.432272 
L 241.610478 285.898598 
L 245.049615 284.937985 
L 248.488752 283.657169 
L 258.806163 282.589821 
L 262.2453 281.309005 
L 265.684438 279.707984 
L 269.123575 279.387779 
L 272.562712 279.601249 
L 276.001849 280.455127 
L 282.880123 281.629209 
L 286.31926 281.735943 
L 289.758398 282.483087 
L 293.197535 282.910026 
L 296.636672 283.123495 
L 300.075809 283.657169 
L 303.514946 284.831251 
L 306.954083 285.578394 
L 310.39322 285.578394 
L 320.710632 286.539006 
L 324.149769 285.471659 
L 331.028043 284.404312 
L 337.906317 284.831251 
L 341.345455 285.898598 
L 344.784592 286.325537 
L 348.223729 286.539006 
L 351.662866 286.539006 
L 358.54114 285.04472 
L 361.980277 284.831251 
L 379.175963 288.993905 
L 382.6151 289.207375 
L 386.054237 290.061253 
L 389.493374 291.235335 
L 396.371649 290.594926 
L 399.810786 289.954518 
L 403.249923 288.780436 
L 406.68906 287.392884 
L 410.128197 286.539006 
L 413.567334 286.218802 
L 417.006471 286.325537 
L 420.445609 286.752476 
L 430.76302 288.780436 
L 434.202157 289.954518 
L 437.641294 290.061253 
L 441.080431 289.527579 
L 444.519569 288.673701 
L 451.397843 287.606354 
L 454.83698 287.392884 
L 458.276117 287.819823 
L 461.715254 287.392884 
L 465.154391 288.353497 
L 472.032666 289.527579 
L 475.471803 289.741048 
L 478.91094 289.207375 
L 482.350077 288.460232 
L 485.789214 287.499619 
L 492.667488 284.617781 
L 496.106626 284.724516 
L 499.545763 284.511047 
L 502.9849 284.617781 
L 506.424037 285.04472 
L 513.302311 285.151455 
L 516.741448 286.005333 
L 523.619723 286.752476 
L 527.05886 286.005333 
L 530.497997 285.04472 
L 540.815408 280.241657 
L 544.254545 279.814718 
L 547.693683 280.775331 
L 551.13282 283.657169 
L 554.571957 287.606354 
L 558.011094 291.021865 
L 561.450231 292.836356 
L 564.889368 293.049825 
L 568.328505 291.448804 
L 571.767643 289.10064 
L 575.20678 286.112068 
L 578.645917 284.084108 
L 582.085054 284.084108 
L 585.524191 282.696556 
L 588.963328 282.376352 
L 592.402465 283.336964 
L 595.841602 284.937985 
L 602.719877 290.167987 
L 606.159014 293.476764 
L 609.598151 295.824928 
L 613.037288 297.746154 
L 619.915562 299.133705 
L 623.3547 299.24044 
L 630.232974 298.813501 
L 637.111248 297.105745 
L 640.550385 296.038398 
L 643.989522 295.18452 
L 650.867797 293.15656 
L 657.746071 291.448804 
L 661.185208 290.061253 
L 664.624345 289.10064 
L 668.063482 287.926558 
L 671.502619 287.499619 
L 674.941757 287.606354 
L 678.380894 288.460232 
L 681.820031 288.993905 
L 685.259168 288.780436 
L 688.698305 287.926558 
L 695.576579 287.499619 
L 699.015716 288.140027 
L 702.454854 289.207375 
L 705.893991 289.527579 
L 709.333128 289.31411 
L 712.772265 289.31411 
L 716.211402 289.10064 
L 719.650539 289.10064 
L 723.089676 288.460232 
L 726.528814 287.606354 
L 729.967951 286.112068 
L 733.407088 285.25819 
L 736.846225 284.617781 
L 740.285362 283.550434 
L 743.724499 283.123495 
L 747.163636 282.056148 
L 747.163636 282.056148 
" style="fill:none;stroke:#8c564b;stroke-linecap:square;stroke-width:1.5;"/>
   </g>
   <g id="line2d_31">
    <path clip-path="url(#p727ed706dc)" d="M 138.436364 318.345957 
L 141.875501 317.919018 
L 145.314638 317.27861 
L 148.753775 317.171875 
L 152.192912 316.424732 
L 155.632049 315.357385 
L 159.071186 315.25065 
L 162.510324 314.716976 
L 169.388598 314.183303 
L 172.827735 314.396772 
L 176.266872 314.823711 
L 179.706009 314.823711 
L 183.145146 315.143915 
L 186.584284 315.03718 
L 190.023421 315.357385 
L 193.462558 315.03718 
L 196.901695 315.464119 
L 200.340832 315.357385 
L 203.779969 316.104528 
L 207.219106 317.06514 
L 210.658243 317.598814 
L 214.097381 317.705549 
L 220.975655 316.744936 
L 224.414792 315.784324 
L 231.293066 316.851671 
L 234.732203 317.598814 
L 238.171341 318.132488 
L 241.610478 317.385345 
L 245.049615 317.171875 
L 251.927889 311.835138 
L 255.367026 308.739831 
L 258.806163 306.178198 
L 262.2453 303.936768 
L 265.684438 302.655951 
L 269.123575 301.695339 
L 272.562712 300.094318 
L 276.001849 299.24044 
L 279.440986 298.706766 
L 286.31926 299.02697 
L 289.758398 299.987583 
L 293.197535 300.627991 
L 300.075809 300.627991 
L 303.514946 300.841461 
L 306.954083 301.588604 
L 310.39322 301.695339 
L 313.832357 302.442482 
L 317.271495 302.335747 
L 320.710632 302.869421 
L 324.149769 304.470442 
L 327.588906 307.459014 
L 331.028043 312.795751 
L 334.46718 316.958406 
L 337.906317 320.694121 
L 341.345455 320.267182 
L 344.784592 318.025753 
L 351.662866 311.941873 
L 358.54114 307.032075 
L 361.980277 306.711871 
L 365.419414 306.605136 
L 368.858552 305.537789 
L 372.297689 304.683911 
L 375.736826 303.403094 
L 379.175963 302.335747 
L 382.6151 299.880848 
L 386.054237 297.639419 
L 389.493374 294.117173 
L 396.371649 288.033293 
L 399.810786 286.432272 
L 403.249923 285.25819 
L 406.68906 284.937985 
L 410.128197 284.831251 
L 413.567334 284.404312 
L 417.006471 283.123495 
L 420.445609 282.056148 
L 423.884746 282.056148 
L 427.323883 281.735943 
L 430.76302 282.056148 
L 434.202157 283.336964 
L 437.641294 283.763903 
L 441.080431 285.25819 
L 444.519569 286.325537 
L 447.958706 288.246762 
L 454.83698 289.31411 
L 458.276117 290.594926 
L 465.154391 293.583499 
L 468.593529 294.757581 
L 472.032666 295.611459 
L 478.91094 294.864316 
L 482.350077 293.903703 
L 485.789214 291.875743 
L 492.667488 284.831251 
L 496.106626 279.601249 
L 499.545763 268.927775 
L 502.9849 251.850218 
L 506.424037 226.981025 
L 509.863174 195.067339 
L 516.741448 123.661802 
L 520.180586 91.427913 
L 523.619723 66.665455 
L 533.937134 66.665455 
L 537.376271 83.743012 
L 540.815408 106.797715 
L 544.254545 127.504253 
L 547.693683 147.250179 
L 551.13282 165.822022 
L 554.571957 180.978355 
L 558.011094 192.932645 
L 561.450231 201.684893 
L 564.889368 209.476529 
L 568.328505 215.453674 
L 571.767643 220.576941 
L 578.645917 230.289802 
L 582.085054 234.879395 
L 585.524191 238.401641 
L 588.963328 242.457561 
L 592.402465 245.552869 
L 595.841602 248.434706 
L 599.28074 251.103075 
L 602.719877 254.305117 
L 606.159014 257.186955 
L 609.598151 259.855323 
L 613.037288 263.057365 
L 616.476425 265.939203 
L 623.3547 270.742266 
L 626.793837 272.556756 
L 633.672111 274.264512 
L 637.111248 275.652064 
L 640.550385 276.719411 
L 643.989522 278.000228 
L 647.428659 278.96084 
L 650.867797 280.455127 
L 654.306934 281.095535 
L 657.746071 282.269617 
L 661.185208 283.01676 
L 668.063482 283.763903 
L 671.502619 284.724516 
L 674.941757 286.432272 
L 678.380894 286.752476 
L 681.820031 287.819823 
L 685.259168 289.10064 
L 692.137442 290.488192 
L 695.576579 291.1286 
L 699.015716 291.982478 
L 702.454854 292.516152 
L 705.893991 293.583499 
L 716.211402 296.038398 
L 719.650539 296.465337 
L 723.089676 297.639419 
L 726.528814 298.279827 
L 729.967951 299.667379 
L 736.846225 302.976156 
L 740.285362 304.150238 
L 747.163636 307.245545 
L 747.163636 307.245545 
" style="fill:none;stroke:#e377c2;stroke-linecap:square;stroke-width:1.5;"/>
   </g>
   <g id="line2d_32">
    <path clip-path="url(#p727ed706dc)" d="M 138.436364 282.162882 
L 141.875501 282.056148 
L 152.192912 282.589821 
L 155.632049 282.696556 
L 159.071186 282.376352 
L 162.510324 282.376352 
L 165.949461 282.803291 
L 169.388598 284.190842 
L 172.827735 284.617781 
L 176.266872 285.471659 
L 183.145146 285.791863 
L 190.023421 285.25819 
L 196.901695 283.550434 
L 200.340832 283.23023 
L 203.779969 282.376352 
L 207.219106 282.162882 
L 214.097381 279.494514 
L 217.536518 278.533901 
L 220.975655 278.106962 
L 224.414792 278.000228 
L 227.853929 278.747371 
L 231.293066 278.533901 
L 234.732203 279.067575 
L 238.171341 279.067575 
L 245.049615 280.028188 
L 248.488752 280.882066 
L 251.927889 282.376352 
L 255.367026 283.01676 
L 262.2453 283.443699 
L 269.123575 283.123495 
L 272.562712 283.550434 
L 276.001849 283.01676 
L 279.440986 282.910026 
L 282.880123 282.589821 
L 286.31926 283.23023 
L 289.758398 283.657169 
L 293.197535 283.763903 
L 300.075809 284.724516 
L 303.514946 285.151455 
L 310.39322 285.471659 
L 313.832357 284.831251 
L 317.271495 283.870638 
L 320.710632 283.336964 
L 327.588906 281.522474 
L 331.028043 280.134922 
L 334.46718 279.067575 
L 337.906317 278.640636 
L 341.345455 278.533901 
L 344.784592 278.747371 
L 348.223729 279.601249 
L 351.662866 280.134922 
L 361.980277 282.376352 
L 368.858552 282.696556 
L 372.297689 283.443699 
L 375.736826 283.657169 
L 379.175963 284.511047 
L 382.6151 285.04472 
L 386.054237 285.25819 
L 396.371649 284.617781 
L 399.810786 284.084108 
L 403.249923 283.763903 
L 406.68906 283.123495 
L 413.567334 283.443699 
L 420.445609 286.005333 
L 423.884746 286.859211 
L 427.323883 287.926558 
L 434.202157 288.140027 
L 437.641294 287.392884 
L 441.080431 286.859211 
L 447.958706 285.151455 
L 454.83698 284.190842 
L 458.276117 283.336964 
L 465.154391 280.455127 
L 472.032666 278.96084 
L 475.471803 278.854106 
L 478.91094 278.106962 
L 482.350077 277.786758 
L 485.789214 277.680024 
L 489.228351 278.000228 
L 496.106626 278.96084 
L 499.545763 279.281045 
L 502.9849 280.241657 
L 506.424037 280.668596 
L 509.863174 281.735943 
L 513.302311 282.589821 
L 516.741448 282.910026 
L 520.180586 282.483087 
L 523.619723 282.376352 
L 527.05886 281.735943 
L 530.497997 281.415739 
L 533.937134 281.735943 
L 537.376271 282.269617 
L 540.815408 282.589821 
L 544.254545 282.589821 
L 547.693683 283.763903 
L 554.571957 285.471659 
L 558.011094 286.005333 
L 564.889368 286.112068 
L 568.328505 286.005333 
L 575.20678 284.084108 
L 578.645917 283.443699 
L 582.085054 282.589821 
L 585.524191 282.056148 
L 588.963328 281.735943 
L 592.402465 280.882066 
L 595.841602 279.814718 
L 599.28074 279.281045 
L 602.719877 278.427167 
L 609.598151 277.680024 
L 613.037288 278.106962 
L 616.476425 278.000228 
L 619.915562 278.320432 
L 626.793837 280.348392 
L 630.232974 281.522474 
L 633.672111 282.910026 
L 637.111248 283.123495 
L 640.550385 283.123495 
L 643.989522 282.910026 
L 647.428659 283.550434 
L 657.746071 286.218802 
L 661.185208 286.539006 
L 664.624345 285.25819 
L 668.063482 285.364924 
L 671.502619 285.685129 
L 674.941757 286.218802 
L 678.380894 286.432272 
L 685.259168 285.791863 
L 695.576579 283.123495 
L 699.015716 282.162882 
L 702.454854 281.415739 
L 705.893991 281.309005 
L 719.650539 281.735943 
L 723.089676 281.415739 
L 726.528814 281.735943 
L 740.285362 283.870638 
L 747.163636 282.910026 
L 747.163636 282.910026 
" style="fill:none;stroke:#7f7f7f;stroke-linecap:square;stroke-width:1.5;"/>
   </g>
   <g id="line2d_33">
    <path clip-path="url(#p727ed706dc)" d="M 138.436364 287.926558 
L 141.875501 287.713089 
L 145.314638 287.819823 
L 148.753775 287.499619 
L 152.192912 287.499619 
L 155.632049 287.713089 
L 159.071186 287.179415 
L 162.510324 287.606354 
L 165.949461 286.859211 
L 172.827735 286.325537 
L 179.706009 286.859211 
L 183.145146 287.392884 
L 186.584284 288.353497 
L 190.023421 288.353497 
L 193.462558 289.10064 
L 196.901695 289.420844 
L 200.340832 289.527579 
L 203.779969 289.31411 
L 207.219106 288.673701 
L 214.097381 288.673701 
L 217.536518 287.499619 
L 220.975655 287.28615 
L 224.414792 287.499619 
L 227.853929 287.499619 
L 234.732203 287.926558 
L 238.171341 287.819823 
L 245.049615 289.420844 
L 248.488752 290.274722 
L 251.927889 290.061253 
L 255.367026 290.488192 
L 258.806163 290.701661 
L 262.2453 291.34207 
L 265.684438 290.915131 
L 269.123575 291.34207 
L 276.001849 291.235335 
L 279.440986 290.381457 
L 282.880123 289.31411 
L 286.31926 288.887171 
L 293.197535 287.606354 
L 296.636672 286.752476 
L 300.075809 285.151455 
L 303.514946 284.404312 
L 306.954083 283.977373 
L 310.39322 282.589821 
L 313.832357 282.056148 
L 317.271495 283.01676 
L 327.588906 283.763903 
L 331.028043 284.190842 
L 334.46718 283.657169 
L 337.906317 282.910026 
L 344.784592 283.23023 
L 348.223729 284.084108 
L 351.662866 284.724516 
L 355.102003 284.724516 
L 358.54114 285.04472 
L 361.980277 285.685129 
L 365.419414 286.752476 
L 368.858552 286.432272 
L 372.297689 286.645741 
L 379.175963 284.724516 
L 382.6151 283.550434 
L 386.054237 283.657169 
L 389.493374 284.297577 
L 396.371649 284.937985 
L 399.810786 284.297577 
L 403.249923 284.190842 
L 410.128197 283.443699 
L 413.567334 283.977373 
L 417.006471 284.190842 
L 420.445609 284.617781 
L 423.884746 285.791863 
L 427.323883 286.752476 
L 434.202157 288.140027 
L 441.080431 289.31411 
L 444.519569 289.527579 
L 451.397843 289.10064 
L 454.83698 288.246762 
L 458.276117 288.993905 
L 461.715254 289.207375 
L 468.593529 288.887171 
L 472.032666 288.460232 
L 478.91094 288.353497 
L 482.350077 287.606354 
L 485.789214 287.606354 
L 489.228351 287.07268 
L 492.667488 287.179415 
L 499.545763 287.713089 
L 502.9849 288.353497 
L 506.424037 288.673701 
L 513.302311 288.887171 
L 520.180586 288.780436 
L 523.619723 288.033293 
L 527.05886 288.353497 
L 530.497997 288.033293 
L 533.937134 287.926558 
L 540.815408 286.859211 
L 544.254545 287.179415 
L 547.693683 287.28615 
L 551.13282 288.460232 
L 554.571957 289.954518 
L 558.011094 291.235335 
L 561.450231 291.769008 
L 564.889368 291.769008 
L 568.328505 291.448804 
L 571.767643 290.274722 
L 575.20678 290.061253 
L 582.085054 290.915131 
L 585.524191 291.021865 
L 588.963328 290.488192 
L 592.402465 290.488192 
L 595.841602 290.167987 
L 602.719877 289.847783 
L 606.159014 290.808396 
L 613.037288 291.555539 
L 616.476425 291.1286 
L 623.3547 289.741048 
L 626.793837 288.780436 
L 630.232974 288.246762 
L 633.672111 287.499619 
L 640.550385 287.28615 
L 643.989522 286.965945 
L 647.428659 287.499619 
L 650.867797 287.713089 
L 654.306934 288.993905 
L 657.746071 288.887171 
L 661.185208 289.847783 
L 664.624345 289.741048 
L 668.063482 288.887171 
L 671.502619 288.993905 
L 674.941757 288.887171 
L 678.380894 288.993905 
L 681.820031 288.140027 
L 685.259168 287.499619 
L 688.698305 286.645741 
L 692.137442 286.218802 
L 699.015716 285.685129 
L 702.454854 286.112068 
L 705.893991 284.724516 
L 709.333128 285.685129 
L 719.650539 284.617781 
L 723.089676 284.190842 
L 733.407088 280.241657 
L 736.846225 280.241657 
L 740.285362 280.9888 
L 747.163636 283.336964 
L 747.163636 283.336964 
" style="fill:none;stroke:#bcbd22;stroke-linecap:square;stroke-width:1.5;"/>
   </g>
   <g id="line2d_34">
    <path clip-path="url(#p727ed706dc)" d="M 138.436364 274.264512 
L 141.875501 273.517369 
L 145.314638 273.303899 
L 148.753775 273.624104 
L 152.192912 273.303899 
L 155.632049 274.371247 
L 162.510324 275.865533 
L 165.949461 276.826146 
L 169.388598 278.000228 
L 172.827735 278.640636 
L 176.266872 278.213697 
L 179.706009 279.17431 
L 183.145146 279.067575 
L 186.584284 279.387779 
L 190.023421 280.455127 
L 196.901695 283.550434 
L 200.340832 283.657169 
L 203.779969 284.511047 
L 207.219106 284.511047 
L 210.658243 285.151455 
L 214.097381 285.25819 
L 217.536518 285.578394 
L 220.975655 286.325537 
L 224.414792 285.898598 
L 227.853929 286.325537 
L 234.732203 284.190842 
L 238.171341 282.910026 
L 241.610478 281.309005 
L 245.049615 278.533901 
L 248.488752 276.292472 
L 251.927889 275.011655 
L 255.367026 274.051043 
L 258.806163 272.876961 
L 262.2453 272.023083 
L 265.684438 272.770226 
L 269.123575 272.876961 
L 272.562712 273.944308 
L 276.001849 275.438594 
L 282.880123 277.680024 
L 286.31926 278.320432 
L 289.758398 278.747371 
L 293.197535 278.000228 
L 296.636672 277.786758 
L 300.075809 278.96084 
L 303.514946 280.348392 
L 306.954083 280.775331 
L 310.39322 280.348392 
L 317.271495 278.533901 
L 320.710632 278.640636 
L 324.149769 279.494514 
L 327.588906 281.842678 
L 331.028043 283.763903 
L 334.46718 286.325537 
L 337.906317 286.218802 
L 341.345455 284.724516 
L 344.784592 282.269617 
L 348.223729 280.455127 
L 351.662866 279.707984 
L 355.102003 279.707984 
L 361.980277 282.803291 
L 365.419414 282.269617 
L 368.858552 282.056148 
L 372.297689 282.483087 
L 375.736826 283.550434 
L 379.175963 284.084108 
L 382.6151 284.297577 
L 386.054237 283.657169 
L 389.493374 283.550434 
L 392.932512 284.084108 
L 396.371649 285.151455 
L 399.810786 286.005333 
L 403.249923 285.791863 
L 406.68906 286.752476 
L 413.567334 287.499619 
L 417.006471 288.353497 
L 423.884746 290.488192 
L 427.323883 290.167987 
L 430.76302 289.10064 
L 434.202157 287.499619 
L 437.641294 285.471659 
L 444.519569 284.084108 
L 447.958706 283.01676 
L 451.397843 282.162882 
L 454.83698 282.056148 
L 458.276117 282.483087 
L 461.715254 283.977373 
L 465.154391 285.791863 
L 468.593529 288.353497 
L 472.032666 289.10064 
L 475.471803 289.634314 
L 478.91094 287.819823 
L 482.350077 287.392884 
L 489.228351 284.724516 
L 492.667488 285.151455 
L 496.106626 285.364924 
L 499.545763 286.859211 
L 502.9849 288.673701 
L 506.424037 291.021865 
L 516.741448 295.824928 
L 520.180586 296.251867 
L 523.619723 296.99901 
L 527.05886 296.892276 
L 530.497997 296.145133 
L 533.937134 294.544112 
L 537.376271 293.583499 
L 540.815408 292.302682 
L 544.254545 290.594926 
L 547.693683 289.741048 
L 551.13282 288.460232 
L 554.571957 287.499619 
L 558.011094 286.112068 
L 561.450231 286.218802 
L 564.889368 285.791863 
L 571.767643 286.965945 
L 578.645917 288.673701 
L 582.085054 288.566966 
L 588.963328 289.847783 
L 592.402465 289.954518 
L 599.28074 290.701661 
L 602.719877 291.235335 
L 606.159014 290.915131 
L 609.598151 290.808396 
L 613.037288 289.31411 
L 619.915562 286.752476 
L 623.3547 285.898598 
L 626.793837 285.898598 
L 630.232974 285.151455 
L 633.672111 285.791863 
L 637.111248 285.471659 
L 640.550385 284.404312 
L 643.989522 284.084108 
L 647.428659 284.511047 
L 654.306934 283.977373 
L 657.746071 283.977373 
L 661.185208 282.589821 
L 664.624345 280.668596 
L 668.063482 278.106962 
L 671.502619 277.359819 
L 674.941757 277.14635 
L 681.820031 278.533901 
L 688.698305 278.854106 
L 692.137442 278.96084 
L 695.576579 279.814718 
L 699.015716 279.707984 
L 702.454854 279.921453 
L 716.211402 279.921453 
L 719.650539 281.309005 
L 723.089676 280.241657 
L 726.528814 281.522474 
L 729.967951 281.522474 
L 733.407088 282.589821 
L 740.285362 283.123495 
L 743.724499 284.084108 
L 747.163636 284.404312 
L 747.163636 284.404312 
" style="fill:none;stroke:#17becf;stroke-linecap:square;stroke-width:1.5;"/>
   </g>
   <g id="patch_3">
    <path d="M 108 378 
L 108 51.84 
" style="fill:none;stroke:#000000;stroke-linecap:square;stroke-linejoin:miter;stroke-width:0.8;"/>
   </g>
   <g id="patch_4">
    <path d="M 777.6 378 
L 777.6 51.84 
" style="fill:none;stroke:#000000;stroke-linecap:square;stroke-linejoin:miter;stroke-width:0.8;"/>
   </g>
   <g id="patch_5">
    <path d="M 108 378 
L 777.6 378 
" style="fill:none;stroke:#000000;stroke-linecap:square;stroke-linejoin:miter;stroke-width:0.8;"/>
   </g>
   <g id="patch_6">
    <path d="M 108 51.84 
L 777.6 51.84 
" style="fill:none;stroke:#000000;stroke-linecap:square;stroke-linejoin:miter;stroke-width:0.8;"/>
   </g>
   <g id="text_15">
    <!-- clase: 2 -->
    <defs>
     <path d="M 48.78125 52.59375 
L 48.78125 44.1875 
Q 44.96875 46.296875 41.140625 47.34375 
Q 37.3125 48.390625 33.40625 48.390625 
Q 24.65625 48.390625 19.8125 42.84375 
Q 14.984375 37.3125 14.984375 27.296875 
Q 14.984375 17.28125 19.8125 11.734375 
Q 24.65625 6.203125 33.40625 6.203125 
Q 37.3125 6.203125 41.140625 7.25 
Q 44.96875 8.296875 48.78125 10.40625 
L 48.78125 2.09375 
Q 45.015625 0.34375 40.984375 -0.53125 
Q 36.96875 -1.421875 32.421875 -1.421875 
Q 20.0625 -1.421875 12.78125 6.34375 
Q 5.515625 14.109375 5.515625 27.296875 
Q 5.515625 40.671875 12.859375 48.328125 
Q 20.21875 56 33.015625 56 
Q 37.15625 56 41.109375 55.140625 
Q 45.0625 54.296875 48.78125 52.59375 
z
" id="DejaVuSans-63"/>
     <path d="M 9.421875 75.984375 
L 18.40625 75.984375 
L 18.40625 0 
L 9.421875 0 
z
" id="DejaVuSans-6c"/>
     <path d="M 34.28125 27.484375 
Q 23.390625 27.484375 19.1875 25 
Q 14.984375 22.515625 14.984375 16.5 
Q 14.984375 11.71875 18.140625 8.90625 
Q 21.296875 6.109375 26.703125 6.109375 
Q 34.1875 6.109375 38.703125 11.40625 
Q 43.21875 16.703125 43.21875 25.484375 
L 43.21875 27.484375 
z
M 52.203125 31.203125 
L 52.203125 0 
L 43.21875 0 
L 43.21875 8.296875 
Q 40.140625 3.328125 35.546875 0.953125 
Q 30.953125 -1.421875 24.3125 -1.421875 
Q 15.921875 -1.421875 10.953125 3.296875 
Q 6 8.015625 6 15.921875 
Q 6 25.140625 12.171875 29.828125 
Q 18.359375 34.515625 30.609375 34.515625 
L 43.21875 34.515625 
L 43.21875 35.40625 
Q 43.21875 41.609375 39.140625 45 
Q 35.0625 48.390625 27.6875 48.390625 
Q 23 48.390625 18.546875 47.265625 
Q 14.109375 46.140625 10.015625 43.890625 
L 10.015625 52.203125 
Q 14.9375 54.109375 19.578125 55.046875 
Q 24.21875 56 28.609375 56 
Q 40.484375 56 46.34375 49.84375 
Q 52.203125 43.703125 52.203125 31.203125 
z
" id="DejaVuSans-61"/>
     <path d="M 44.28125 53.078125 
L 44.28125 44.578125 
Q 40.484375 46.53125 36.375 47.5 
Q 32.28125 48.484375 27.875 48.484375 
Q 21.1875 48.484375 17.84375 46.4375 
Q 14.5 44.390625 14.5 40.28125 
Q 14.5 37.15625 16.890625 35.375 
Q 19.28125 33.59375 26.515625 31.984375 
L 29.59375 31.296875 
Q 39.15625 29.25 43.1875 25.515625 
Q 47.21875 21.78125 47.21875 15.09375 
Q 47.21875 7.46875 41.1875 3.015625 
Q 35.15625 -1.421875 24.609375 -1.421875 
Q 20.21875 -1.421875 15.453125 -0.5625 
Q 10.6875 0.296875 5.421875 2 
L 5.421875 11.28125 
Q 10.40625 8.6875 15.234375 7.390625 
Q 20.0625 6.109375 24.8125 6.109375 
Q 31.15625 6.109375 34.5625 8.28125 
Q 37.984375 10.453125 37.984375 14.40625 
Q 37.984375 18.0625 35.515625 20.015625 
Q 33.0625 21.96875 24.703125 23.78125 
L 21.578125 24.515625 
Q 13.234375 26.265625 9.515625 29.90625 
Q 5.8125 33.546875 5.8125 39.890625 
Q 5.8125 47.609375 11.28125 51.796875 
Q 16.75 56 26.8125 56 
Q 31.78125 56 36.171875 55.265625 
Q 40.578125 54.546875 44.28125 53.078125 
z
" id="DejaVuSans-73"/>
     <path d="M 56.203125 29.59375 
L 56.203125 25.203125 
L 14.890625 25.203125 
Q 15.484375 15.921875 20.484375 11.0625 
Q 25.484375 6.203125 34.421875 6.203125 
Q 39.59375 6.203125 44.453125 7.46875 
Q 49.3125 8.734375 54.109375 11.28125 
L 54.109375 2.78125 
Q 49.265625 0.734375 44.1875 -0.34375 
Q 39.109375 -1.421875 33.890625 -1.421875 
Q 20.796875 -1.421875 13.15625 6.1875 
Q 5.515625 13.8125 5.515625 26.8125 
Q 5.515625 40.234375 12.765625 48.109375 
Q 20.015625 56 32.328125 56 
Q 43.359375 56 49.78125 48.890625 
Q 56.203125 41.796875 56.203125 29.59375 
z
M 47.21875 32.234375 
Q 47.125 39.59375 43.09375 43.984375 
Q 39.0625 48.390625 32.421875 48.390625 
Q 24.90625 48.390625 20.390625 44.140625 
Q 15.875 39.890625 15.1875 32.171875 
z
" id="DejaVuSans-65"/>
     <path d="M 11.71875 12.40625 
L 22.015625 12.40625 
L 22.015625 0 
L 11.71875 0 
z
M 11.71875 51.703125 
L 22.015625 51.703125 
L 22.015625 39.3125 
L 11.71875 39.3125 
z
" id="DejaVuSans-3a"/>
     <path id="DejaVuSans-20"/>
    </defs>
    <g transform="translate(419.594063 45.84)scale(0.12 -0.12)">
     <use xlink:href="#DejaVuSans-63"/>
     <use x="54.980469" xlink:href="#DejaVuSans-6c"/>
     <use x="82.763672" xlink:href="#DejaVuSans-61"/>
     <use x="144.042969" xlink:href="#DejaVuSans-73"/>
     <use x="196.142578" xlink:href="#DejaVuSans-65"/>
     <use x="257.666016" xlink:href="#DejaVuSans-3a"/>
     <use x="291.357422" xlink:href="#DejaVuSans-20"/>
     <use x="323.144531" xlink:href="#DejaVuSans-32"/>
    </g>
   </g>
  </g>
 </g>
 <defs>
  <clipPath id="p727ed706dc">
   <rect height="326.16" width="669.6" x="108" y="51.84"/>
  </clipPath>
 </defs>
</svg>
