<?xml version="1.0" encoding="utf-8" standalone="no"?>
<!DOCTYPE svg PUBLIC "-//W3C//DTD SVG 1.1//EN"
  "http://www.w3.org/Graphics/SVG/1.1/DTD/svg11.dtd">
<!-- Created with matplotlib (http://matplotlib.org/) -->
<svg height="288pt" version="1.1" viewBox="0 0 504 288" width="504pt" xmlns="http://www.w3.org/2000/svg" xmlns:xlink="http://www.w3.org/1999/xlink">
 <defs>
  <style type="text/css">
*{stroke-linecap:butt;stroke-linejoin:round;}
  </style>
 </defs>
 <g id="figure_1">
  <g id="patch_1">
   <path d="M 0 288 
L 504 288 
L 504 0 
L 0 0 
z
" style="fill:#ffffff;"/>
  </g>
  <g id="axes_1">
   <g id="patch_2">
    <path d="M 63 252 
L 453.6 252 
L 453.6 34.56 
L 63 34.56 
z
" style="fill:#ffffff;"/>
   </g>
   <g id="matplotlib.axis_1">
    <g id="xtick_1">
     <g id="line2d_1">
      <defs>
       <path d="M 0 0 
L 0 3.5 
" id="m3894980378" style="stroke:#000000;stroke-width:0.8;"/>
      </defs>
      <g>
       <use style="stroke:#000000;stroke-width:0.8;" x="80.754545" xlink:href="#m3894980378" y="252"/>
      </g>
     </g>
     <g id="text_1">
      <!-- 0 -->
      <defs>
       <path d="M 31.78125 66.40625 
Q 24.171875 66.40625 20.328125 58.90625 
Q 16.5 51.421875 16.5 36.375 
Q 16.5 21.390625 20.328125 13.890625 
Q 24.171875 6.390625 31.78125 6.390625 
Q 39.453125 6.390625 43.28125 13.890625 
Q 47.125 21.390625 47.125 36.375 
Q 47.125 51.421875 43.28125 58.90625 
Q 39.453125 66.40625 31.78125 66.40625 
z
M 31.78125 74.21875 
Q 44.046875 74.21875 50.515625 64.515625 
Q 56.984375 54.828125 56.984375 36.375 
Q 56.984375 17.96875 50.515625 8.265625 
Q 44.046875 -1.421875 31.78125 -1.421875 
Q 19.53125 -1.421875 13.0625 8.265625 
Q 6.59375 17.96875 6.59375 36.375 
Q 6.59375 54.828125 13.0625 64.515625 
Q 19.53125 74.21875 31.78125 74.21875 
z
" id="DejaVuSans-30"/>
      </defs>
      <g transform="translate(77.573295 266.598437)scale(0.1 -0.1)">
       <use xlink:href="#DejaVuSans-30"/>
      </g>
     </g>
    </g>
    <g id="xtick_2">
     <g id="line2d_2">
      <g>
       <use style="stroke:#000000;stroke-width:0.8;" x="130.908629" xlink:href="#m3894980378" y="252"/>
      </g>
     </g>
     <g id="text_2">
      <!-- 25 -->
      <defs>
       <path d="M 19.1875 8.296875 
L 53.609375 8.296875 
L 53.609375 0 
L 7.328125 0 
L 7.328125 8.296875 
Q 12.9375 14.109375 22.625 23.890625 
Q 32.328125 33.6875 34.8125 36.53125 
Q 39.546875 41.84375 41.421875 45.53125 
Q 43.3125 49.21875 43.3125 52.78125 
Q 43.3125 58.59375 39.234375 62.25 
Q 35.15625 65.921875 28.609375 65.921875 
Q 23.96875 65.921875 18.8125 64.3125 
Q 13.671875 62.703125 7.8125 59.421875 
L 7.8125 69.390625 
Q 13.765625 71.78125 18.9375 73 
Q 24.125 74.21875 28.421875 74.21875 
Q 39.75 74.21875 46.484375 68.546875 
Q 53.21875 62.890625 53.21875 53.421875 
Q 53.21875 48.921875 51.53125 44.890625 
Q 49.859375 40.875 45.40625 35.40625 
Q 44.1875 33.984375 37.640625 27.21875 
Q 31.109375 20.453125 19.1875 8.296875 
z
" id="DejaVuSans-32"/>
       <path d="M 10.796875 72.90625 
L 49.515625 72.90625 
L 49.515625 64.59375 
L 19.828125 64.59375 
L 19.828125 46.734375 
Q 21.96875 47.46875 24.109375 47.828125 
Q 26.265625 48.1875 28.421875 48.1875 
Q 40.625 48.1875 47.75 41.5 
Q 54.890625 34.8125 54.890625 23.390625 
Q 54.890625 11.625 47.5625 5.09375 
Q 40.234375 -1.421875 26.90625 -1.421875 
Q 22.3125 -1.421875 17.546875 -0.640625 
Q 12.796875 0.140625 7.71875 1.703125 
L 7.71875 11.625 
Q 12.109375 9.234375 16.796875 8.0625 
Q 21.484375 6.890625 26.703125 6.890625 
Q 35.15625 6.890625 40.078125 11.328125 
Q 45.015625 15.765625 45.015625 23.390625 
Q 45.015625 31 40.078125 35.4375 
Q 35.15625 39.890625 26.703125 39.890625 
Q 22.75 39.890625 18.8125 39.015625 
Q 14.890625 38.140625 10.796875 36.28125 
z
" id="DejaVuSans-35"/>
      </defs>
      <g transform="translate(124.546129 266.598437)scale(0.1 -0.1)">
       <use xlink:href="#DejaVuSans-32"/>
       <use x="63.623047" xlink:href="#DejaVuSans-35"/>
      </g>
     </g>
    </g>
    <g id="xtick_3">
     <g id="line2d_3">
      <g>
       <use style="stroke:#000000;stroke-width:0.8;" x="181.062712" xlink:href="#m3894980378" y="252"/>
      </g>
     </g>
     <g id="text_3">
      <!-- 50 -->
      <g transform="translate(174.700212 266.598437)scale(0.1 -0.1)">
       <use xlink:href="#DejaVuSans-35"/>
       <use x="63.623047" xlink:href="#DejaVuSans-30"/>
      </g>
     </g>
    </g>
    <g id="xtick_4">
     <g id="line2d_4">
      <g>
       <use style="stroke:#000000;stroke-width:0.8;" x="231.216795" xlink:href="#m3894980378" y="252"/>
      </g>
     </g>
     <g id="text_4">
      <!-- 75 -->
      <defs>
       <path d="M 8.203125 72.90625 
L 55.078125 72.90625 
L 55.078125 68.703125 
L 28.609375 0 
L 18.3125 0 
L 43.21875 64.59375 
L 8.203125 64.59375 
z
" id="DejaVuSans-37"/>
      </defs>
      <g transform="translate(224.854295 266.598437)scale(0.1 -0.1)">
       <use xlink:href="#DejaVuSans-37"/>
       <use x="63.623047" xlink:href="#DejaVuSans-35"/>
      </g>
     </g>
    </g>
    <g id="xtick_5">
     <g id="line2d_5">
      <g>
       <use style="stroke:#000000;stroke-width:0.8;" x="281.370878" xlink:href="#m3894980378" y="252"/>
      </g>
     </g>
     <g id="text_5">
      <!-- 100 -->
      <defs>
       <path d="M 12.40625 8.296875 
L 28.515625 8.296875 
L 28.515625 63.921875 
L 10.984375 60.40625 
L 10.984375 69.390625 
L 28.421875 72.90625 
L 38.28125 72.90625 
L 38.28125 8.296875 
L 54.390625 8.296875 
L 54.390625 0 
L 12.40625 0 
z
" id="DejaVuSans-31"/>
      </defs>
      <g transform="translate(271.827128 266.598437)scale(0.1 -0.1)">
       <use xlink:href="#DejaVuSans-31"/>
       <use x="63.623047" xlink:href="#DejaVuSans-30"/>
       <use x="127.246094" xlink:href="#DejaVuSans-30"/>
      </g>
     </g>
    </g>
    <g id="xtick_6">
     <g id="line2d_6">
      <g>
       <use style="stroke:#000000;stroke-width:0.8;" x="331.524961" xlink:href="#m3894980378" y="252"/>
      </g>
     </g>
     <g id="text_6">
      <!-- 125 -->
      <g transform="translate(321.981211 266.598437)scale(0.1 -0.1)">
       <use xlink:href="#DejaVuSans-31"/>
       <use x="63.623047" xlink:href="#DejaVuSans-32"/>
       <use x="127.246094" xlink:href="#DejaVuSans-35"/>
      </g>
     </g>
    </g>
    <g id="xtick_7">
     <g id="line2d_7">
      <g>
       <use style="stroke:#000000;stroke-width:0.8;" x="381.679045" xlink:href="#m3894980378" y="252"/>
      </g>
     </g>
     <g id="text_7">
      <!-- 150 -->
      <g transform="translate(372.135295 266.598437)scale(0.1 -0.1)">
       <use xlink:href="#DejaVuSans-31"/>
       <use x="63.623047" xlink:href="#DejaVuSans-35"/>
       <use x="127.246094" xlink:href="#DejaVuSans-30"/>
      </g>
     </g>
    </g>
    <g id="xtick_8">
     <g id="line2d_8">
      <g>
       <use style="stroke:#000000;stroke-width:0.8;" x="431.833128" xlink:href="#m3894980378" y="252"/>
      </g>
     </g>
     <g id="text_8">
      <!-- 175 -->
      <g transform="translate(422.289378 266.598437)scale(0.1 -0.1)">
       <use xlink:href="#DejaVuSans-31"/>
       <use x="63.623047" xlink:href="#DejaVuSans-37"/>
       <use x="127.246094" xlink:href="#DejaVuSans-35"/>
      </g>
     </g>
    </g>
   </g>
   <g id="matplotlib.axis_2">
    <g id="ytick_1">
     <g id="line2d_9">
      <defs>
       <path d="M 0 0 
L -3.5 0 
" id="m0bf53e72db" style="stroke:#000000;stroke-width:0.8;"/>
      </defs>
      <g>
       <use style="stroke:#000000;stroke-width:0.8;" x="63" xlink:href="#m0bf53e72db" y="217.212713"/>
      </g>
     </g>
     <g id="text_9">
      <!-- −50 -->
      <defs>
       <path d="M 10.59375 35.5 
L 73.1875 35.5 
L 73.1875 27.203125 
L 10.59375 27.203125 
z
" id="DejaVuSans-2212"/>
      </defs>
      <g transform="translate(34.895313 221.011932)scale(0.1 -0.1)">
       <use xlink:href="#DejaVuSans-2212"/>
       <use x="83.789062" xlink:href="#DejaVuSans-35"/>
       <use x="147.412109" xlink:href="#DejaVuSans-30"/>
      </g>
     </g>
    </g>
    <g id="ytick_2">
     <g id="line2d_10">
      <g>
       <use style="stroke:#000000;stroke-width:0.8;" x="63" xlink:href="#m0bf53e72db" y="178.300759"/>
      </g>
     </g>
     <g id="text_10">
      <!-- 0 -->
      <g transform="translate(49.6375 182.099978)scale(0.1 -0.1)">
       <use xlink:href="#DejaVuSans-30"/>
      </g>
     </g>
    </g>
    <g id="ytick_3">
     <g id="line2d_11">
      <g>
       <use style="stroke:#000000;stroke-width:0.8;" x="63" xlink:href="#m0bf53e72db" y="139.388805"/>
      </g>
     </g>
     <g id="text_11">
      <!-- 50 -->
      <g transform="translate(43.275 143.188023)scale(0.1 -0.1)">
       <use xlink:href="#DejaVuSans-35"/>
       <use x="63.623047" xlink:href="#DejaVuSans-30"/>
      </g>
     </g>
    </g>
    <g id="ytick_4">
     <g id="line2d_12">
      <g>
       <use style="stroke:#000000;stroke-width:0.8;" x="63" xlink:href="#m0bf53e72db" y="100.47685"/>
      </g>
     </g>
     <g id="text_12">
      <!-- 100 -->
      <g transform="translate(36.9125 104.276069)scale(0.1 -0.1)">
       <use xlink:href="#DejaVuSans-31"/>
       <use x="63.623047" xlink:href="#DejaVuSans-30"/>
       <use x="127.246094" xlink:href="#DejaVuSans-30"/>
      </g>
     </g>
    </g>
    <g id="ytick_5">
     <g id="line2d_13">
      <g>
       <use style="stroke:#000000;stroke-width:0.8;" x="63" xlink:href="#m0bf53e72db" y="61.564896"/>
      </g>
     </g>
     <g id="text_13">
      <!-- 150 -->
      <g transform="translate(36.9125 65.364115)scale(0.1 -0.1)">
       <use xlink:href="#DejaVuSans-31"/>
       <use x="63.623047" xlink:href="#DejaVuSans-35"/>
       <use x="127.246094" xlink:href="#DejaVuSans-30"/>
      </g>
     </g>
    </g>
   </g>
   <g id="line2d_14">
    <path clip-path="url(#p298939e2fa)" d="M 80.754545 140.167044 
L 84.766872 172.074846 
L 86.773035 194.64378 
L 88.779199 209.430322 
L 90.785362 231.999256 
L 92.791525 239.003407 
L 94.797689 242.116364 
L 96.803852 239.781646 
L 98.810015 238.225168 
L 100.816179 235.112212 
L 102.822342 235.890451 
L 104.828505 218.769191 
L 106.834669 196.978497 
L 110.846995 138.610565 
L 112.853159 116.819871 
L 114.859322 110.593958 
L 116.865485 116.041632 
L 118.871649 117.59811 
L 120.877812 115.263393 
L 122.883975 118.376349 
L 124.890139 118.376349 
L 126.896302 134.71937 
L 128.902465 144.058239 
L 130.908629 158.844782 
L 132.914792 166.627173 
L 134.920955 166.627173 
L 136.927119 179.078998 
L 138.933282 193.087301 
L 142.945609 183.748432 
L 144.951772 190.752584 
L 146.957935 182.970193 
L 150.970262 178.300759 
L 152.976425 161.957738 
L 154.982589 161.957738 
L 156.988752 161.179499 
L 158.994915 165.848933 
L 161.001079 172.853085 
L 163.007242 177.52252 
L 167.019569 182.191954 
L 169.025732 185.304911 
L 171.031895 205.539127 
L 173.038059 221.103908 
L 175.044222 225.773343 
L 177.050385 224.216865 
L 179.056549 210.9868 
L 181.062712 196.200258 
L 183.068875 173.631324 
L 185.075039 155.731825 
L 187.081202 158.844782 
L 189.087365 160.40126 
L 191.093529 155.731825 
L 193.099692 148.727674 
L 195.105855 133.941131 
L 197.112018 115.263393 
L 199.118182 112.150437 
L 201.124345 113.706915 
L 203.130508 110.593958 
L 205.136672 131.606414 
L 207.142835 142.501761 
L 209.148998 158.066543 
L 211.155162 171.296607 
L 213.161325 168.183651 
L 215.167488 174.409563 
L 217.173652 175.966042 
L 219.179815 175.966042 
L 221.185978 172.853085 
L 223.192142 175.187802 
L 225.198305 158.066543 
L 229.210632 136.275848 
L 231.216795 129.271696 
L 233.222958 123.824023 
L 235.229122 128.493457 
L 237.235285 120.711067 
L 239.241448 107.481002 
L 241.247612 98.920372 
L 243.253775 100.47685 
L 245.259938 112.150437 
L 247.266102 125.380501 
L 249.272265 150.284152 
L 253.284592 170.518368 
L 257.296918 140.167044 
L 259.303082 120.711067 
L 261.309245 107.481002 
L 263.315408 109.03748 
L 265.321572 107.481002 
L 267.327735 105.146285 
L 269.333898 105.924524 
L 271.340062 108.259241 
L 273.346225 122.267545 
L 275.352388 130.828175 
L 277.358552 153.397108 
L 279.364715 161.179499 
L 281.370878 164.292455 
L 283.377042 162.735977 
L 285.383205 168.96189 
L 287.389368 166.627173 
L 289.395532 163.514216 
L 291.401695 172.074846 
L 293.407858 174.409563 
L 295.414022 172.074846 
L 297.420185 154.175347 
L 299.426348 128.493457 
L 301.432512 96.585655 
L 303.438675 79.464395 
L 305.444838 75.5732 
L 307.451002 81.020873 
L 309.457165 85.690308 
L 313.469492 119.154588 
L 315.475655 139.388805 
L 317.481818 157.288304 
L 319.487982 179.078998 
L 321.494145 175.187802 
L 323.500308 186.861389 
L 325.506471 193.86554 
L 327.512635 209.430322 
L 329.518798 201.647931 
L 331.524961 206.317366 
L 333.531125 199.313214 
L 335.537288 190.752584 
L 337.543451 186.861389 
L 339.549615 172.853085 
L 341.555778 149.505913 
L 343.561941 116.041632 
L 345.568105 88.803264 
L 347.574268 60.008418 
L 349.580431 44.443636 
L 351.586595 49.113071 
L 353.592758 66.234331 
L 355.598921 89.581503 
L 357.605085 100.47685 
L 359.611248 125.380501 
L 361.617411 142.501761 
L 363.623575 176.744281 
L 365.629738 184.526671 
L 367.635901 198.534975 
L 369.642065 197.756736 
L 371.648228 182.191954 
L 373.654391 181.413715 
L 375.660555 169.740129 
L 377.666718 165.070694 
L 379.672881 151.84063 
L 381.679045 143.28 
L 383.685208 133.941131 
L 385.691371 116.041632 
L 387.697535 116.819871 
L 389.703698 112.150437 
L 391.709861 122.267545 
L 393.716025 124.602262 
L 395.722188 138.610565 
L 397.728351 149.505913 
L 399.734515 154.175347 
L 401.740678 151.84063 
L 403.746841 151.84063 
L 405.753005 147.171195 
L 407.759168 141.723522 
L 409.765331 144.058239 
L 411.771495 140.167044 
L 413.777658 137.832326 
L 415.783821 119.154588 
L 417.789985 111.372198 
L 419.796148 98.920372 
L 421.802311 94.250938 
L 423.808475 108.259241 
L 425.814638 105.924524 
L 427.820801 106.702763 
L 429.826965 102.033329 
L 431.833128 95.029177 
L 433.839291 84.13383 
L 435.845455 81.799112 
L 435.845455 81.799112 
" style="fill:none;stroke:#1f77b4;stroke-linecap:square;stroke-width:1.5;"/>
   </g>
   <g id="patch_3">
    <path d="M 63 252 
L 63 34.56 
" style="fill:none;stroke:#000000;stroke-linecap:square;stroke-linejoin:miter;stroke-width:0.8;"/>
   </g>
   <g id="patch_4">
    <path d="M 453.6 252 
L 453.6 34.56 
" style="fill:none;stroke:#000000;stroke-linecap:square;stroke-linejoin:miter;stroke-width:0.8;"/>
   </g>
   <g id="patch_5">
    <path d="M 63 252 
L 453.6 252 
" style="fill:none;stroke:#000000;stroke-linecap:square;stroke-linejoin:miter;stroke-width:0.8;"/>
   </g>
   <g id="patch_6">
    <path d="M 63 34.56 
L 453.6 34.56 
" style="fill:none;stroke:#000000;stroke-linecap:square;stroke-linejoin:miter;stroke-width:0.8;"/>
   </g>
  </g>
 </g>
 <defs>
  <clipPath id="p298939e2fa">
   <rect height="217.44" width="390.6" x="63" y="34.56"/>
  </clipPath>
 </defs>
</svg>
