<?xml version="1.0" encoding="utf-8" standalone="no"?>
<!DOCTYPE svg PUBLIC "-//W3C//DTD SVG 1.1//EN"
  "http://www.w3.org/Graphics/SVG/1.1/DTD/svg11.dtd">
<!-- Created with matplotlib (http://matplotlib.org/) -->
<svg height="288pt" version="1.1" viewBox="0 0 504 288" width="504pt" xmlns="http://www.w3.org/2000/svg" xmlns:xlink="http://www.w3.org/1999/xlink">
 <defs>
  <style type="text/css">
*{stroke-linecap:butt;stroke-linejoin:round;}
  </style>
 </defs>
 <g id="figure_1">
  <g id="patch_1">
   <path d="M 0 288 
L 504 288 
L 504 0 
L 0 0 
z
" style="fill:#ffffff;"/>
  </g>
  <g id="axes_1">
   <g id="patch_2">
    <path d="M 63 252 
L 453.6 252 
L 453.6 34.56 
L 63 34.56 
z
" style="fill:#ffffff;"/>
   </g>
   <g id="matplotlib.axis_1">
    <g id="xtick_1">
     <g id="line2d_1">
      <defs>
       <path d="M 0 0 
L 0 3.5 
" id="m3254b7c2aa" style="stroke:#000000;stroke-width:0.8;"/>
      </defs>
      <g>
       <use style="stroke:#000000;stroke-width:0.8;" x="80.754545" xlink:href="#m3254b7c2aa" y="252"/>
      </g>
     </g>
     <g id="text_1">
      <!-- 0 -->
      <defs>
       <path d="M 31.78125 66.40625 
Q 24.171875 66.40625 20.328125 58.90625 
Q 16.5 51.421875 16.5 36.375 
Q 16.5 21.390625 20.328125 13.890625 
Q 24.171875 6.390625 31.78125 6.390625 
Q 39.453125 6.390625 43.28125 13.890625 
Q 47.125 21.390625 47.125 36.375 
Q 47.125 51.421875 43.28125 58.90625 
Q 39.453125 66.40625 31.78125 66.40625 
z
M 31.78125 74.21875 
Q 44.046875 74.21875 50.515625 64.515625 
Q 56.984375 54.828125 56.984375 36.375 
Q 56.984375 17.96875 50.515625 8.265625 
Q 44.046875 -1.421875 31.78125 -1.421875 
Q 19.53125 -1.421875 13.0625 8.265625 
Q 6.59375 17.96875 6.59375 36.375 
Q 6.59375 54.828125 13.0625 64.515625 
Q 19.53125 74.21875 31.78125 74.21875 
z
" id="DejaVuSans-30"/>
      </defs>
      <g transform="translate(77.573295 266.598437)scale(0.1 -0.1)">
       <use xlink:href="#DejaVuSans-30"/>
      </g>
     </g>
    </g>
    <g id="xtick_2">
     <g id="line2d_2">
      <g>
       <use style="stroke:#000000;stroke-width:0.8;" x="130.908629" xlink:href="#m3254b7c2aa" y="252"/>
      </g>
     </g>
     <g id="text_2">
      <!-- 25 -->
      <defs>
       <path d="M 19.1875 8.296875 
L 53.609375 8.296875 
L 53.609375 0 
L 7.328125 0 
L 7.328125 8.296875 
Q 12.9375 14.109375 22.625 23.890625 
Q 32.328125 33.6875 34.8125 36.53125 
Q 39.546875 41.84375 41.421875 45.53125 
Q 43.3125 49.21875 43.3125 52.78125 
Q 43.3125 58.59375 39.234375 62.25 
Q 35.15625 65.921875 28.609375 65.921875 
Q 23.96875 65.921875 18.8125 64.3125 
Q 13.671875 62.703125 7.8125 59.421875 
L 7.8125 69.390625 
Q 13.765625 71.78125 18.9375 73 
Q 24.125 74.21875 28.421875 74.21875 
Q 39.75 74.21875 46.484375 68.546875 
Q 53.21875 62.890625 53.21875 53.421875 
Q 53.21875 48.921875 51.53125 44.890625 
Q 49.859375 40.875 45.40625 35.40625 
Q 44.1875 33.984375 37.640625 27.21875 
Q 31.109375 20.453125 19.1875 8.296875 
z
" id="DejaVuSans-32"/>
       <path d="M 10.796875 72.90625 
L 49.515625 72.90625 
L 49.515625 64.59375 
L 19.828125 64.59375 
L 19.828125 46.734375 
Q 21.96875 47.46875 24.109375 47.828125 
Q 26.265625 48.1875 28.421875 48.1875 
Q 40.625 48.1875 47.75 41.5 
Q 54.890625 34.8125 54.890625 23.390625 
Q 54.890625 11.625 47.5625 5.09375 
Q 40.234375 -1.421875 26.90625 -1.421875 
Q 22.3125 -1.421875 17.546875 -0.640625 
Q 12.796875 0.140625 7.71875 1.703125 
L 7.71875 11.625 
Q 12.109375 9.234375 16.796875 8.0625 
Q 21.484375 6.890625 26.703125 6.890625 
Q 35.15625 6.890625 40.078125 11.328125 
Q 45.015625 15.765625 45.015625 23.390625 
Q 45.015625 31 40.078125 35.4375 
Q 35.15625 39.890625 26.703125 39.890625 
Q 22.75 39.890625 18.8125 39.015625 
Q 14.890625 38.140625 10.796875 36.28125 
z
" id="DejaVuSans-35"/>
      </defs>
      <g transform="translate(124.546129 266.598437)scale(0.1 -0.1)">
       <use xlink:href="#DejaVuSans-32"/>
       <use x="63.623047" xlink:href="#DejaVuSans-35"/>
      </g>
     </g>
    </g>
    <g id="xtick_3">
     <g id="line2d_3">
      <g>
       <use style="stroke:#000000;stroke-width:0.8;" x="181.062712" xlink:href="#m3254b7c2aa" y="252"/>
      </g>
     </g>
     <g id="text_3">
      <!-- 50 -->
      <g transform="translate(174.700212 266.598437)scale(0.1 -0.1)">
       <use xlink:href="#DejaVuSans-35"/>
       <use x="63.623047" xlink:href="#DejaVuSans-30"/>
      </g>
     </g>
    </g>
    <g id="xtick_4">
     <g id="line2d_4">
      <g>
       <use style="stroke:#000000;stroke-width:0.8;" x="231.216795" xlink:href="#m3254b7c2aa" y="252"/>
      </g>
     </g>
     <g id="text_4">
      <!-- 75 -->
      <defs>
       <path d="M 8.203125 72.90625 
L 55.078125 72.90625 
L 55.078125 68.703125 
L 28.609375 0 
L 18.3125 0 
L 43.21875 64.59375 
L 8.203125 64.59375 
z
" id="DejaVuSans-37"/>
      </defs>
      <g transform="translate(224.854295 266.598437)scale(0.1 -0.1)">
       <use xlink:href="#DejaVuSans-37"/>
       <use x="63.623047" xlink:href="#DejaVuSans-35"/>
      </g>
     </g>
    </g>
    <g id="xtick_5">
     <g id="line2d_5">
      <g>
       <use style="stroke:#000000;stroke-width:0.8;" x="281.370878" xlink:href="#m3254b7c2aa" y="252"/>
      </g>
     </g>
     <g id="text_5">
      <!-- 100 -->
      <defs>
       <path d="M 12.40625 8.296875 
L 28.515625 8.296875 
L 28.515625 63.921875 
L 10.984375 60.40625 
L 10.984375 69.390625 
L 28.421875 72.90625 
L 38.28125 72.90625 
L 38.28125 8.296875 
L 54.390625 8.296875 
L 54.390625 0 
L 12.40625 0 
z
" id="DejaVuSans-31"/>
      </defs>
      <g transform="translate(271.827128 266.598437)scale(0.1 -0.1)">
       <use xlink:href="#DejaVuSans-31"/>
       <use x="63.623047" xlink:href="#DejaVuSans-30"/>
       <use x="127.246094" xlink:href="#DejaVuSans-30"/>
      </g>
     </g>
    </g>
    <g id="xtick_6">
     <g id="line2d_6">
      <g>
       <use style="stroke:#000000;stroke-width:0.8;" x="331.524961" xlink:href="#m3254b7c2aa" y="252"/>
      </g>
     </g>
     <g id="text_6">
      <!-- 125 -->
      <g transform="translate(321.981211 266.598437)scale(0.1 -0.1)">
       <use xlink:href="#DejaVuSans-31"/>
       <use x="63.623047" xlink:href="#DejaVuSans-32"/>
       <use x="127.246094" xlink:href="#DejaVuSans-35"/>
      </g>
     </g>
    </g>
    <g id="xtick_7">
     <g id="line2d_7">
      <g>
       <use style="stroke:#000000;stroke-width:0.8;" x="381.679045" xlink:href="#m3254b7c2aa" y="252"/>
      </g>
     </g>
     <g id="text_7">
      <!-- 150 -->
      <g transform="translate(372.135295 266.598437)scale(0.1 -0.1)">
       <use xlink:href="#DejaVuSans-31"/>
       <use x="63.623047" xlink:href="#DejaVuSans-35"/>
       <use x="127.246094" xlink:href="#DejaVuSans-30"/>
      </g>
     </g>
    </g>
    <g id="xtick_8">
     <g id="line2d_8">
      <g>
       <use style="stroke:#000000;stroke-width:0.8;" x="431.833128" xlink:href="#m3254b7c2aa" y="252"/>
      </g>
     </g>
     <g id="text_8">
      <!-- 175 -->
      <g transform="translate(422.289378 266.598437)scale(0.1 -0.1)">
       <use xlink:href="#DejaVuSans-31"/>
       <use x="63.623047" xlink:href="#DejaVuSans-37"/>
       <use x="127.246094" xlink:href="#DejaVuSans-35"/>
      </g>
     </g>
    </g>
   </g>
   <g id="matplotlib.axis_2">
    <g id="ytick_1">
     <g id="line2d_9">
      <defs>
       <path d="M 0 0 
L -3.5 0 
" id="mf14b9c194e" style="stroke:#000000;stroke-width:0.8;"/>
      </defs>
      <g>
       <use style="stroke:#000000;stroke-width:0.8;" x="63" xlink:href="#mf14b9c194e" y="235.300063"/>
      </g>
     </g>
     <g id="text_9">
      <!-- −75 -->
      <defs>
       <path d="M 10.59375 35.5 
L 73.1875 35.5 
L 73.1875 27.203125 
L 10.59375 27.203125 
z
" id="DejaVuSans-2212"/>
      </defs>
      <g transform="translate(34.895313 239.099281)scale(0.1 -0.1)">
       <use xlink:href="#DejaVuSans-2212"/>
       <use x="83.789062" xlink:href="#DejaVuSans-37"/>
       <use x="147.412109" xlink:href="#DejaVuSans-35"/>
      </g>
     </g>
    </g>
    <g id="ytick_2">
     <g id="line2d_10">
      <g>
       <use style="stroke:#000000;stroke-width:0.8;" x="63" xlink:href="#mf14b9c194e" y="206.898809"/>
      </g>
     </g>
     <g id="text_10">
      <!-- −50 -->
      <g transform="translate(34.895313 210.698028)scale(0.1 -0.1)">
       <use xlink:href="#DejaVuSans-2212"/>
       <use x="83.789062" xlink:href="#DejaVuSans-35"/>
       <use x="147.412109" xlink:href="#DejaVuSans-30"/>
      </g>
     </g>
    </g>
    <g id="ytick_3">
     <g id="line2d_11">
      <g>
       <use style="stroke:#000000;stroke-width:0.8;" x="63" xlink:href="#mf14b9c194e" y="178.497555"/>
      </g>
     </g>
     <g id="text_11">
      <!-- −25 -->
      <g transform="translate(34.895313 182.296774)scale(0.1 -0.1)">
       <use xlink:href="#DejaVuSans-2212"/>
       <use x="83.789062" xlink:href="#DejaVuSans-32"/>
       <use x="147.412109" xlink:href="#DejaVuSans-35"/>
      </g>
     </g>
    </g>
    <g id="ytick_4">
     <g id="line2d_12">
      <g>
       <use style="stroke:#000000;stroke-width:0.8;" x="63" xlink:href="#mf14b9c194e" y="150.096301"/>
      </g>
     </g>
     <g id="text_12">
      <!-- 0 -->
      <g transform="translate(49.6375 153.89552)scale(0.1 -0.1)">
       <use xlink:href="#DejaVuSans-30"/>
      </g>
     </g>
    </g>
    <g id="ytick_5">
     <g id="line2d_13">
      <g>
       <use style="stroke:#000000;stroke-width:0.8;" x="63" xlink:href="#mf14b9c194e" y="121.695047"/>
      </g>
     </g>
     <g id="text_13">
      <!-- 25 -->
      <g transform="translate(43.275 125.494266)scale(0.1 -0.1)">
       <use xlink:href="#DejaVuSans-32"/>
       <use x="63.623047" xlink:href="#DejaVuSans-35"/>
      </g>
     </g>
    </g>
    <g id="ytick_6">
     <g id="line2d_14">
      <g>
       <use style="stroke:#000000;stroke-width:0.8;" x="63" xlink:href="#mf14b9c194e" y="93.293793"/>
      </g>
     </g>
     <g id="text_14">
      <!-- 50 -->
      <g transform="translate(43.275 97.093012)scale(0.1 -0.1)">
       <use xlink:href="#DejaVuSans-35"/>
       <use x="63.623047" xlink:href="#DejaVuSans-30"/>
      </g>
     </g>
    </g>
    <g id="ytick_7">
     <g id="line2d_15">
      <g>
       <use style="stroke:#000000;stroke-width:0.8;" x="63" xlink:href="#mf14b9c194e" y="64.892539"/>
      </g>
     </g>
     <g id="text_15">
      <!-- 75 -->
      <g transform="translate(43.275 68.691758)scale(0.1 -0.1)">
       <use xlink:href="#DejaVuSans-37"/>
       <use x="63.623047" xlink:href="#DejaVuSans-35"/>
      </g>
     </g>
    </g>
    <g id="ytick_8">
     <g id="line2d_16">
      <g>
       <use style="stroke:#000000;stroke-width:0.8;" x="63" xlink:href="#mf14b9c194e" y="36.491285"/>
      </g>
     </g>
     <g id="text_16">
      <!-- 100 -->
      <g transform="translate(36.9125 40.290504)scale(0.1 -0.1)">
       <use xlink:href="#DejaVuSans-31"/>
       <use x="63.623047" xlink:href="#DejaVuSans-30"/>
       <use x="127.246094" xlink:href="#DejaVuSans-30"/>
      </g>
     </g>
    </g>
   </g>
   <g id="line2d_17">
    <path clip-path="url(#pb432dfe5db)" d="M 80.754545 231.891912 
L 82.760709 227.347712 
L 84.766872 219.395361 
L 86.773035 210.306959 
L 88.779199 190.994107 
L 90.785362 175.089404 
L 92.791525 154.640502 
L 96.803852 104.654295 
L 98.810015 104.654295 
L 100.816179 119.422947 
L 102.822342 137.599749 
L 104.828505 151.232351 
L 106.834669 156.912602 
L 108.840832 159.184702 
L 110.846995 156.912602 
L 112.853159 161.456803 
L 114.859322 147.824201 
L 116.865485 129.647398 
L 118.871649 127.375298 
L 122.883975 152.368401 
L 124.890139 156.912602 
L 128.902465 159.184702 
L 130.908629 158.048652 
L 132.914792 162.592853 
L 134.920955 178.497555 
L 136.927119 185.313856 
L 138.933282 200.082508 
L 140.939445 222.803511 
L 142.945609 238.708213 
L 144.951772 242.116364 
L 146.957935 226.211661 
L 148.964099 215.98721 
L 150.970262 192.130157 
L 152.976425 179.633605 
L 154.982589 176.225455 
L 156.988752 183.041755 
L 158.994915 184.177806 
L 161.001079 177.361505 
L 163.007242 168.273103 
L 165.013405 155.776552 
L 167.019569 158.048652 
L 169.025732 162.592853 
L 171.031895 163.728903 
L 173.038059 153.504451 
L 175.044222 145.5521 
L 177.050385 142.14395 
L 179.056549 148.960251 
L 181.062712 168.273103 
L 183.068875 189.858056 
L 185.075039 192.130157 
L 187.081202 170.545204 
L 189.087365 156.912602 
L 191.093529 152.368401 
L 193.099692 158.048652 
L 195.105855 169.409154 
L 197.112018 176.225455 
L 199.118182 162.592853 
L 203.130508 114.878746 
L 205.136672 87.613542 
L 207.142835 66.028589 
L 209.148998 55.804138 
L 211.155162 66.028589 
L 213.161325 92.157743 
L 215.167488 113.742696 
L 217.173652 146.68815 
L 219.179815 154.640502 
L 221.185978 144.41605 
L 223.192142 127.375298 
L 225.198305 127.375298 
L 227.204468 139.87185 
L 229.210632 154.640502 
L 231.216795 168.273103 
L 233.222958 156.912602 
L 235.229122 123.967147 
L 237.235285 93.293793 
L 239.241448 93.293793 
L 241.247612 110.334545 
L 243.253775 130.783448 
L 245.259938 158.048652 
L 247.266102 178.497555 
L 249.272265 192.130157 
L 251.278428 200.082508 
L 253.284592 204.626708 
L 255.290755 184.177806 
L 257.296918 158.048652 
L 259.303082 129.647398 
L 261.309245 103.518245 
L 263.315408 81.933292 
L 265.321572 69.43674 
L 267.327735 77.389091 
L 271.340062 97.837994 
L 273.346225 102.382194 
L 275.352388 93.293793 
L 277.358552 88.749592 
L 279.364715 96.701944 
L 281.370878 112.606646 
L 283.377042 110.334545 
L 285.383205 105.790345 
L 287.389368 95.565893 
L 289.395532 81.933292 
L 291.401695 73.98094 
L 293.407858 72.84489 
L 297.420185 104.654295 
L 299.426348 123.967147 
L 301.432512 144.41605 
L 303.438675 170.545204 
L 305.444838 194.402257 
L 307.451002 221.667461 
L 309.457165 231.891912 
L 311.463328 225.075611 
L 313.469492 217.12326 
L 315.475655 206.898809 
L 317.481818 189.858056 
L 319.487982 167.137053 
L 321.494145 150.096301 
L 323.500308 130.783448 
L 325.506471 122.831097 
L 327.512635 125.103197 
L 331.524961 143.28 
L 333.531125 142.14395 
L 335.537288 160.320752 
L 337.543451 189.858056 
L 339.549615 215.98721 
L 341.555778 236.436113 
L 343.561941 242.116364 
L 345.568105 226.211661 
L 347.574268 190.994107 
L 349.580431 152.368401 
L 351.586595 118.286897 
L 353.592758 89.885643 
L 355.598921 64.892539 
L 357.605085 52.395987 
L 359.611248 47.851787 
L 361.617411 46.715737 
L 365.629738 87.613542 
L 367.635901 112.606646 
L 369.642065 133.055549 
L 371.648228 155.776552 
L 373.654391 170.545204 
L 375.660555 177.361505 
L 377.666718 181.905705 
L 379.672881 167.137053 
L 381.679045 136.463699 
L 383.685208 112.606646 
L 385.691371 95.565893 
L 387.697535 96.701944 
L 389.703698 109.198495 
L 391.709861 128.511348 
L 393.716025 131.919498 
L 395.722188 114.878746 
L 397.728351 86.477492 
L 399.734515 71.70884 
L 401.740678 64.892539 
L 403.746841 73.98094 
L 405.753005 75.116991 
L 407.759168 63.756489 
L 409.765331 44.443636 
L 411.771495 50.123887 
L 413.777658 76.253041 
L 415.783821 86.477492 
L 417.789985 84.205392 
L 419.796148 78.525141 
L 421.802311 95.565893 
L 423.808475 117.150846 
L 425.814638 146.68815 
L 427.820801 169.409154 
L 429.826965 166.001003 
L 431.833128 173.953354 
L 433.839291 183.041755 
L 435.845455 194.402257 
L 435.845455 194.402257 
" style="fill:none;stroke:#1f77b4;stroke-linecap:square;stroke-width:1.5;"/>
   </g>
   <g id="patch_3">
    <path d="M 63 252 
L 63 34.56 
" style="fill:none;stroke:#000000;stroke-linecap:square;stroke-linejoin:miter;stroke-width:0.8;"/>
   </g>
   <g id="patch_4">
    <path d="M 453.6 252 
L 453.6 34.56 
" style="fill:none;stroke:#000000;stroke-linecap:square;stroke-linejoin:miter;stroke-width:0.8;"/>
   </g>
   <g id="patch_5">
    <path d="M 63 252 
L 453.6 252 
" style="fill:none;stroke:#000000;stroke-linecap:square;stroke-linejoin:miter;stroke-width:0.8;"/>
   </g>
   <g id="patch_6">
    <path d="M 63 34.56 
L 453.6 34.56 
" style="fill:none;stroke:#000000;stroke-linecap:square;stroke-linejoin:miter;stroke-width:0.8;"/>
   </g>
  </g>
 </g>
 <defs>
  <clipPath id="pb432dfe5db">
   <rect height="217.44" width="390.6" x="63" y="34.56"/>
  </clipPath>
 </defs>
</svg>
