<?xml version="1.0" encoding="utf-8" standalone="no"?>
<!DOCTYPE svg PUBLIC "-//W3C//DTD SVG 1.1//EN"
  "http://www.w3.org/Graphics/SVG/1.1/DTD/svg11.dtd">
<!-- Created with matplotlib (http://matplotlib.org/) -->
<svg height="288pt" version="1.1" viewBox="0 0 504 288" width="504pt" xmlns="http://www.w3.org/2000/svg" xmlns:xlink="http://www.w3.org/1999/xlink">
 <defs>
  <style type="text/css">
*{stroke-linecap:butt;stroke-linejoin:round;}
  </style>
 </defs>
 <g id="figure_1">
  <g id="patch_1">
   <path d="M 0 288 
L 504 288 
L 504 0 
L 0 0 
z
" style="fill:#ffffff;"/>
  </g>
  <g id="axes_1">
   <g id="patch_2">
    <path d="M 63 252 
L 453.6 252 
L 453.6 34.56 
L 63 34.56 
z
" style="fill:#ffffff;"/>
   </g>
   <g id="matplotlib.axis_1">
    <g id="xtick_1">
     <g id="line2d_1">
      <defs>
       <path d="M 0 0 
L 0 3.5 
" id="m86129a28b4" style="stroke:#000000;stroke-width:0.8;"/>
      </defs>
      <g>
       <use style="stroke:#000000;stroke-width:0.8;" x="80.754545" xlink:href="#m86129a28b4" y="252"/>
      </g>
     </g>
     <g id="text_1">
      <!-- 0 -->
      <defs>
       <path d="M 31.78125 66.40625 
Q 24.171875 66.40625 20.328125 58.90625 
Q 16.5 51.421875 16.5 36.375 
Q 16.5 21.390625 20.328125 13.890625 
Q 24.171875 6.390625 31.78125 6.390625 
Q 39.453125 6.390625 43.28125 13.890625 
Q 47.125 21.390625 47.125 36.375 
Q 47.125 51.421875 43.28125 58.90625 
Q 39.453125 66.40625 31.78125 66.40625 
z
M 31.78125 74.21875 
Q 44.046875 74.21875 50.515625 64.515625 
Q 56.984375 54.828125 56.984375 36.375 
Q 56.984375 17.96875 50.515625 8.265625 
Q 44.046875 -1.421875 31.78125 -1.421875 
Q 19.53125 -1.421875 13.0625 8.265625 
Q 6.59375 17.96875 6.59375 36.375 
Q 6.59375 54.828125 13.0625 64.515625 
Q 19.53125 74.21875 31.78125 74.21875 
z
" id="DejaVuSans-30"/>
      </defs>
      <g transform="translate(77.573295 266.598437)scale(0.1 -0.1)">
       <use xlink:href="#DejaVuSans-30"/>
      </g>
     </g>
    </g>
    <g id="xtick_2">
     <g id="line2d_2">
      <g>
       <use style="stroke:#000000;stroke-width:0.8;" x="130.908629" xlink:href="#m86129a28b4" y="252"/>
      </g>
     </g>
     <g id="text_2">
      <!-- 25 -->
      <defs>
       <path d="M 19.1875 8.296875 
L 53.609375 8.296875 
L 53.609375 0 
L 7.328125 0 
L 7.328125 8.296875 
Q 12.9375 14.109375 22.625 23.890625 
Q 32.328125 33.6875 34.8125 36.53125 
Q 39.546875 41.84375 41.421875 45.53125 
Q 43.3125 49.21875 43.3125 52.78125 
Q 43.3125 58.59375 39.234375 62.25 
Q 35.15625 65.921875 28.609375 65.921875 
Q 23.96875 65.921875 18.8125 64.3125 
Q 13.671875 62.703125 7.8125 59.421875 
L 7.8125 69.390625 
Q 13.765625 71.78125 18.9375 73 
Q 24.125 74.21875 28.421875 74.21875 
Q 39.75 74.21875 46.484375 68.546875 
Q 53.21875 62.890625 53.21875 53.421875 
Q 53.21875 48.921875 51.53125 44.890625 
Q 49.859375 40.875 45.40625 35.40625 
Q 44.1875 33.984375 37.640625 27.21875 
Q 31.109375 20.453125 19.1875 8.296875 
z
" id="DejaVuSans-32"/>
       <path d="M 10.796875 72.90625 
L 49.515625 72.90625 
L 49.515625 64.59375 
L 19.828125 64.59375 
L 19.828125 46.734375 
Q 21.96875 47.46875 24.109375 47.828125 
Q 26.265625 48.1875 28.421875 48.1875 
Q 40.625 48.1875 47.75 41.5 
Q 54.890625 34.8125 54.890625 23.390625 
Q 54.890625 11.625 47.5625 5.09375 
Q 40.234375 -1.421875 26.90625 -1.421875 
Q 22.3125 -1.421875 17.546875 -0.640625 
Q 12.796875 0.140625 7.71875 1.703125 
L 7.71875 11.625 
Q 12.109375 9.234375 16.796875 8.0625 
Q 21.484375 6.890625 26.703125 6.890625 
Q 35.15625 6.890625 40.078125 11.328125 
Q 45.015625 15.765625 45.015625 23.390625 
Q 45.015625 31 40.078125 35.4375 
Q 35.15625 39.890625 26.703125 39.890625 
Q 22.75 39.890625 18.8125 39.015625 
Q 14.890625 38.140625 10.796875 36.28125 
z
" id="DejaVuSans-35"/>
      </defs>
      <g transform="translate(124.546129 266.598437)scale(0.1 -0.1)">
       <use xlink:href="#DejaVuSans-32"/>
       <use x="63.623047" xlink:href="#DejaVuSans-35"/>
      </g>
     </g>
    </g>
    <g id="xtick_3">
     <g id="line2d_3">
      <g>
       <use style="stroke:#000000;stroke-width:0.8;" x="181.062712" xlink:href="#m86129a28b4" y="252"/>
      </g>
     </g>
     <g id="text_3">
      <!-- 50 -->
      <g transform="translate(174.700212 266.598437)scale(0.1 -0.1)">
       <use xlink:href="#DejaVuSans-35"/>
       <use x="63.623047" xlink:href="#DejaVuSans-30"/>
      </g>
     </g>
    </g>
    <g id="xtick_4">
     <g id="line2d_4">
      <g>
       <use style="stroke:#000000;stroke-width:0.8;" x="231.216795" xlink:href="#m86129a28b4" y="252"/>
      </g>
     </g>
     <g id="text_4">
      <!-- 75 -->
      <defs>
       <path d="M 8.203125 72.90625 
L 55.078125 72.90625 
L 55.078125 68.703125 
L 28.609375 0 
L 18.3125 0 
L 43.21875 64.59375 
L 8.203125 64.59375 
z
" id="DejaVuSans-37"/>
      </defs>
      <g transform="translate(224.854295 266.598437)scale(0.1 -0.1)">
       <use xlink:href="#DejaVuSans-37"/>
       <use x="63.623047" xlink:href="#DejaVuSans-35"/>
      </g>
     </g>
    </g>
    <g id="xtick_5">
     <g id="line2d_5">
      <g>
       <use style="stroke:#000000;stroke-width:0.8;" x="281.370878" xlink:href="#m86129a28b4" y="252"/>
      </g>
     </g>
     <g id="text_5">
      <!-- 100 -->
      <defs>
       <path d="M 12.40625 8.296875 
L 28.515625 8.296875 
L 28.515625 63.921875 
L 10.984375 60.40625 
L 10.984375 69.390625 
L 28.421875 72.90625 
L 38.28125 72.90625 
L 38.28125 8.296875 
L 54.390625 8.296875 
L 54.390625 0 
L 12.40625 0 
z
" id="DejaVuSans-31"/>
      </defs>
      <g transform="translate(271.827128 266.598437)scale(0.1 -0.1)">
       <use xlink:href="#DejaVuSans-31"/>
       <use x="63.623047" xlink:href="#DejaVuSans-30"/>
       <use x="127.246094" xlink:href="#DejaVuSans-30"/>
      </g>
     </g>
    </g>
    <g id="xtick_6">
     <g id="line2d_6">
      <g>
       <use style="stroke:#000000;stroke-width:0.8;" x="331.524961" xlink:href="#m86129a28b4" y="252"/>
      </g>
     </g>
     <g id="text_6">
      <!-- 125 -->
      <g transform="translate(321.981211 266.598437)scale(0.1 -0.1)">
       <use xlink:href="#DejaVuSans-31"/>
       <use x="63.623047" xlink:href="#DejaVuSans-32"/>
       <use x="127.246094" xlink:href="#DejaVuSans-35"/>
      </g>
     </g>
    </g>
    <g id="xtick_7">
     <g id="line2d_7">
      <g>
       <use style="stroke:#000000;stroke-width:0.8;" x="381.679045" xlink:href="#m86129a28b4" y="252"/>
      </g>
     </g>
     <g id="text_7">
      <!-- 150 -->
      <g transform="translate(372.135295 266.598437)scale(0.1 -0.1)">
       <use xlink:href="#DejaVuSans-31"/>
       <use x="63.623047" xlink:href="#DejaVuSans-35"/>
       <use x="127.246094" xlink:href="#DejaVuSans-30"/>
      </g>
     </g>
    </g>
    <g id="xtick_8">
     <g id="line2d_8">
      <g>
       <use style="stroke:#000000;stroke-width:0.8;" x="431.833128" xlink:href="#m86129a28b4" y="252"/>
      </g>
     </g>
     <g id="text_8">
      <!-- 175 -->
      <g transform="translate(422.289378 266.598437)scale(0.1 -0.1)">
       <use xlink:href="#DejaVuSans-31"/>
       <use x="63.623047" xlink:href="#DejaVuSans-37"/>
       <use x="127.246094" xlink:href="#DejaVuSans-35"/>
      </g>
     </g>
    </g>
   </g>
   <g id="matplotlib.axis_2">
    <g id="ytick_1">
     <g id="line2d_9">
      <defs>
       <path d="M 0 0 
L -3.5 0 
" id="m85c71fc15f" style="stroke:#000000;stroke-width:0.8;"/>
      </defs>
      <g>
       <use style="stroke:#000000;stroke-width:0.8;" x="63" xlink:href="#m85c71fc15f" y="251.18392"/>
      </g>
     </g>
     <g id="text_9">
      <!-- −150 -->
      <defs>
       <path d="M 10.59375 35.5 
L 73.1875 35.5 
L 73.1875 27.203125 
L 10.59375 27.203125 
z
" id="DejaVuSans-2212"/>
      </defs>
      <g transform="translate(28.532812 254.983139)scale(0.1 -0.1)">
       <use xlink:href="#DejaVuSans-2212"/>
       <use x="83.789062" xlink:href="#DejaVuSans-31"/>
       <use x="147.412109" xlink:href="#DejaVuSans-35"/>
       <use x="211.035156" xlink:href="#DejaVuSans-30"/>
      </g>
     </g>
    </g>
    <g id="ytick_2">
     <g id="line2d_10">
      <g>
       <use style="stroke:#000000;stroke-width:0.8;" x="63" xlink:href="#m85c71fc15f" y="205.846138"/>
      </g>
     </g>
     <g id="text_10">
      <!-- −100 -->
      <g transform="translate(28.532812 209.645357)scale(0.1 -0.1)">
       <use xlink:href="#DejaVuSans-2212"/>
       <use x="83.789062" xlink:href="#DejaVuSans-31"/>
       <use x="147.412109" xlink:href="#DejaVuSans-30"/>
       <use x="211.035156" xlink:href="#DejaVuSans-30"/>
      </g>
     </g>
    </g>
    <g id="ytick_3">
     <g id="line2d_11">
      <g>
       <use style="stroke:#000000;stroke-width:0.8;" x="63" xlink:href="#m85c71fc15f" y="160.508357"/>
      </g>
     </g>
     <g id="text_11">
      <!-- −50 -->
      <g transform="translate(34.895313 164.307576)scale(0.1 -0.1)">
       <use xlink:href="#DejaVuSans-2212"/>
       <use x="83.789062" xlink:href="#DejaVuSans-35"/>
       <use x="147.412109" xlink:href="#DejaVuSans-30"/>
      </g>
     </g>
    </g>
    <g id="ytick_4">
     <g id="line2d_12">
      <g>
       <use style="stroke:#000000;stroke-width:0.8;" x="63" xlink:href="#m85c71fc15f" y="115.170575"/>
      </g>
     </g>
     <g id="text_12">
      <!-- 0 -->
      <g transform="translate(49.6375 118.969794)scale(0.1 -0.1)">
       <use xlink:href="#DejaVuSans-30"/>
      </g>
     </g>
    </g>
    <g id="ytick_5">
     <g id="line2d_13">
      <g>
       <use style="stroke:#000000;stroke-width:0.8;" x="63" xlink:href="#m85c71fc15f" y="69.832794"/>
      </g>
     </g>
     <g id="text_13">
      <!-- 50 -->
      <g transform="translate(43.275 73.632013)scale(0.1 -0.1)">
       <use xlink:href="#DejaVuSans-35"/>
       <use x="63.623047" xlink:href="#DejaVuSans-30"/>
      </g>
     </g>
    </g>
   </g>
   <g id="line2d_14">
    <path clip-path="url(#pc2efd7e934)" d="M 80.754545 241.209608 
L 82.760709 242.116364 
L 84.766872 236.67583 
L 86.773035 236.67583 
L 88.779199 233.048807 
L 92.791525 213.100183 
L 94.797689 208.566405 
L 96.803852 202.219116 
L 98.810015 191.338048 
L 100.816179 186.80427 
L 102.822342 181.363736 
L 104.828505 170.482669 
L 106.834669 163.228624 
L 108.840832 154.161068 
L 112.853159 123.331376 
L 114.859322 112.450309 
L 116.865485 107.009775 
L 118.871649 96.128707 
L 120.877812 97.035463 
L 124.890139 87.967907 
L 126.896302 74.366572 
L 128.902465 72.553061 
L 130.908629 71.646305 
L 132.914792 64.39226 
L 134.920955 58.951726 
L 136.927119 57.138215 
L 138.933282 54.417948 
L 140.939445 54.417948 
L 142.945609 56.23146 
L 144.951772 61.671993 
L 146.957935 63.485505 
L 148.964099 56.23146 
L 150.970262 53.511193 
L 152.976425 44.443636 
L 154.982589 47.163903 
L 156.988752 61.671993 
L 158.994915 74.366572 
L 161.001079 82.527373 
L 163.007242 86.154395 
L 165.013405 91.594929 
L 167.019569 87.967907 
L 169.025732 97.035463 
L 171.031895 103.382752 
L 173.038059 116.077331 
L 177.050385 134.212444 
L 179.056549 142.373244 
L 181.062712 132.398932 
L 183.068875 131.492177 
L 185.075039 126.958399 
L 187.081202 126.958399 
L 191.093529 119.704354 
L 193.099692 132.398932 
L 195.105855 133.305688 
L 197.112018 136.025955 
L 199.118182 136.025955 
L 201.124345 129.678666 
L 203.130508 122.424621 
L 205.136672 126.051643 
L 207.142835 136.932711 
L 209.148998 139.652977 
L 211.155162 147.813778 
L 213.161325 146.907023 
L 215.167488 141.466489 
L 217.173652 139.652977 
L 219.179815 133.305688 
L 221.185978 138.746222 
L 223.192142 129.678666 
L 225.198305 118.797598 
L 227.204468 109.730042 
L 229.210632 108.823286 
L 231.216795 106.103019 
L 233.222958 109.730042 
L 235.229122 107.91653 
L 237.235285 108.823286 
L 239.241448 107.91653 
L 241.247612 113.357064 
L 243.253775 124.238132 
L 245.259938 124.238132 
L 247.266102 138.746222 
L 249.272265 143.28 
L 251.278428 145.093511 
L 253.284592 149.627289 
L 257.296918 165.948891 
L 259.303082 163.228624 
L 261.309245 154.161068 
L 263.315408 141.466489 
L 265.321572 125.144887 
L 267.327735 116.984087 
L 269.333898 107.91653 
L 271.340062 97.942219 
L 275.352388 92.501685 
L 277.358552 95.221952 
L 279.364715 89.781418 
L 281.370878 80.713862 
L 283.377042 73.459817 
L 285.383205 64.39226 
L 287.389368 71.646305 
L 289.395532 80.713862 
L 291.401695 86.154395 
L 293.407858 88.874662 
L 295.414022 87.967907 
L 297.420185 95.221952 
L 299.426348 98.848974 
L 301.432512 105.196264 
L 303.438675 102.475997 
L 305.444838 103.382752 
L 307.451002 102.475997 
L 309.457165 100.662485 
L 311.463328 108.823286 
L 313.469492 103.382752 
L 315.475655 102.475997 
L 317.481818 97.942219 
L 319.487982 94.315196 
L 321.494145 88.874662 
L 323.500308 87.967907 
L 325.506471 89.781418 
L 327.512635 82.527373 
L 329.518798 77.993595 
L 331.524961 74.366572 
L 335.537288 79.807106 
L 337.543451 89.781418 
L 339.549615 95.221952 
L 341.555778 88.874662 
L 343.561941 90.688173 
L 345.568105 97.942219 
L 347.574268 109.730042 
L 349.580431 111.543553 
L 351.586595 119.704354 
L 353.592758 122.424621 
L 355.598921 126.051643 
L 357.605085 131.492177 
L 359.611248 137.839466 
L 361.617411 136.932711 
L 363.623575 131.492177 
L 365.629738 128.77191 
L 367.635901 122.424621 
L 371.648228 113.357064 
L 373.654391 124.238132 
L 375.660555 134.212444 
L 377.666718 137.839466 
L 379.672881 145.093511 
L 381.679045 142.373244 
L 383.685208 135.119199 
L 385.691371 139.652977 
L 387.697535 143.28 
L 389.703698 147.813778 
L 391.709861 149.627289 
L 393.716025 147.813778 
L 395.722188 146.907023 
L 397.728351 140.559733 
L 399.734515 141.466489 
L 401.740678 141.466489 
L 403.746841 144.186756 
L 405.753005 138.746222 
L 407.759168 139.652977 
L 409.765331 134.212444 
L 411.771495 132.398932 
L 413.777658 129.678666 
L 415.783821 128.77191 
L 417.789985 123.331376 
L 419.796148 116.984087 
L 423.808475 109.730042 
L 425.814638 104.289508 
L 427.820801 103.382752 
L 429.826965 108.823286 
L 431.833128 116.077331 
L 433.839291 134.212444 
L 435.845455 150.534045 
L 435.845455 150.534045 
" style="fill:none;stroke:#1f77b4;stroke-linecap:square;stroke-width:1.5;"/>
   </g>
   <g id="patch_3">
    <path d="M 63 252 
L 63 34.56 
" style="fill:none;stroke:#000000;stroke-linecap:square;stroke-linejoin:miter;stroke-width:0.8;"/>
   </g>
   <g id="patch_4">
    <path d="M 453.6 252 
L 453.6 34.56 
" style="fill:none;stroke:#000000;stroke-linecap:square;stroke-linejoin:miter;stroke-width:0.8;"/>
   </g>
   <g id="patch_5">
    <path d="M 63 252 
L 453.6 252 
" style="fill:none;stroke:#000000;stroke-linecap:square;stroke-linejoin:miter;stroke-width:0.8;"/>
   </g>
   <g id="patch_6">
    <path d="M 63 34.56 
L 453.6 34.56 
" style="fill:none;stroke:#000000;stroke-linecap:square;stroke-linejoin:miter;stroke-width:0.8;"/>
   </g>
  </g>
 </g>
 <defs>
  <clipPath id="pc2efd7e934">
   <rect height="217.44" width="390.6" x="63" y="34.56"/>
  </clipPath>
 </defs>
</svg>
