<?xml version="1.0" encoding="UTF-8" standalone="no"?>
<!-- Created with Inkscape (http://www.inkscape.org/) -->

<svg
   xmlns:dc="http://purl.org/dc/elements/1.1/"
   xmlns:cc="http://creativecommons.org/ns#"
   xmlns:rdf="http://www.w3.org/1999/02/22-rdf-syntax-ns#"
   xmlns:svg="http://www.w3.org/2000/svg"
   xmlns="http://www.w3.org/2000/svg"
   xmlns:sodipodi="http://sodipodi.sourceforge.net/DTD/sodipodi-0.dtd"
   xmlns:inkscape="http://www.inkscape.org/namespaces/inkscape"
   id="svg2"
   version="1.1"
   inkscape:version="0.91 r13725"
   xml:space="preserve"
   width="77.943497"
   height="34.184223"
   viewBox="0 0 77.943495 34.184223"
   sodipodi:docname="LogosRojos.svg"><metadata
     id="metadata8"><rdf:RDF><cc:Work
         rdf:about=""><dc:format>image/svg+xml</dc:format><dc:type
           rdf:resource="http://purl.org/dc/dcmitype/StillImage" /><dc:title></dc:title></cc:Work></rdf:RDF></metadata><defs
     id="defs6"><clipPath
       clipPathUnits="userSpaceOnUse"
       id="clipPath16"><path
         d="m 127,99.999 155.131,0 0,95.94 -155.131,0 0,-95.94 z"
         id="path18"
         inkscape:connector-curvature="0" /></clipPath></defs><sodipodi:namedview
     pagecolor="#ffffff"
     bordercolor="#666666"
     borderopacity="1"
     objecttolerance="10"
     gridtolerance="10"
     guidetolerance="10"
     inkscape:pageopacity="0"
     inkscape:pageshadow="2"
     inkscape:window-width="1855"
     inkscape:window-height="1056"
     id="namedview4"
     showgrid="false"
     inkscape:zoom="5.4626534"
     inkscape:cx="67.593946"
     inkscape:cy="54.816658"
     inkscape:window-x="65"
     inkscape:window-y="24"
     inkscape:window-maximized="1"
     inkscape:current-layer="g10"
     fit-margin-top="0"
     fit-margin-left="0"
     fit-margin-right="0"
     fit-margin-bottom="0" /><g
     id="g10"
     inkscape:groupmode="layer"
     inkscape:label="UCLM_simbolo_Color"
     transform="matrix(1.25,0,0,-1.25,-139.34055,115.22379)"><path
       style="fill:#800000"
       d="m 134.24102,64.896471 c -7.80297,0.305529 -13.32078,3.263429 -15.44645,8.280286 -0.9355,2.207865 -1.21318,4.938404 -0.75178,7.392263 0.8884,4.72466 4.24932,8.542594 9.09736,10.334396 3.31695,1.225915 7.47936,1.581996 11.31,0.967537 1.85026,-0.29679 4.09433,-1.086925 5.35213,-1.884473 0.24253,-0.153784 0.28955,-0.166597 0.39294,-0.107105 1.89714,1.091684 3.80584,1.729037 6.20228,2.071078 1.34304,0.191691 2.38537,0.245604 4.11245,0.212716 3.03171,-0.05772 5.76102,-0.494155 8.12321,-1.298931 0.52043,-0.177307 0.59516,-0.218006 0.56902,-0.309908 -0.0165,-0.05818 -0.41397,-1.31574 -0.88315,-2.794571 l -0.85307,-2.688782 -0.64774,0.236644 c -2.42702,0.886698 -5.52421,1.386695 -7.45945,1.20422 -1.62626,-0.153337 -2.69539,-0.681244 -3.02223,-1.492284 -0.15336,-0.380585 -0.10771,-1.007927 0.0957,-1.315869 0.23461,-0.355113 0.39219,-0.499476 0.82724,-0.757928 0.76718,-0.455751 1.76963,-0.810998 4.38289,-1.553214 2.23987,-0.636165 3.41246,-1.079876 4.81714,-1.822805 0.86908,-0.459656 1.97938,-1.298023 2.54736,-1.92346 l 0.44088,-0.485469 0.0163,7.509111 0.0163,7.509113 5.17283,0 5.17283,0 0,-2.309683 0,-2.309687 -0.24098,0.150662 c -0.40142,0.250951 -2.56821,1.248262 -3.38979,1.560209 -1.50043,0.569706 -3.48755,1.005986 -5.46221,1.199232 -0.31809,0.03114 -0.69403,0.06791 -0.8354,0.08174 -0.21496,0.02102 -0.0835,-0.05007 0.80328,-0.434476 2.76925,-1.200392 4.83544,-2.36102 6.4609,-3.629252 1.01135,-0.789066 1.58068,-1.373319 2.05466,-2.10848 0.66677,-1.034194 0.60954,-0.08232 0.60954,-10.137698 l 0,-8.792438 -2.61865,1.341732 c -1.44026,0.737955 -2.65109,1.357111 -2.69074,1.375903 -0.0402,0.01904 -1.16383,-0.574315 -2.53833,-1.340405 l -2.46622,-1.374583 -0.0321,1.978436 -0.0321,1.978431 -0.38557,-0.464425 c -0.5509,-0.663569 -1.779,-1.616825 -2.69344,-2.090654 -1.56315,-0.80998 -3.30507,-1.348532 -5.43562,-1.680534 -1.56217,-0.243441 -2.3598,-0.291937 -5.22122,-0.317469 l -2.68291,-0.02394 0,2.839339 0,2.839327 1.5262,0.0011 c 3.74736,0.0017 5.0724,0.262536 5.78585,1.138419 0.25964,0.318752 0.35111,0.607832 0.34581,1.092913 -0.0146,1.329522 -1.03087,1.969361 -4.70185,2.960109 -3.31054,0.893468 -5.4672,1.836888 -7.12663,3.117511 -0.33365,0.257475 -0.61407,0.468138 -0.62317,0.468138 -0.009,0 0.0516,-0.197506 0.13497,-0.438892 0.30658,-0.888107 0.89495,-2.066712 1.32712,-2.658427 l 0.19233,-0.263346 -8.07875,0 -8.07874,0 0.0408,-0.338571 c 0.25741,-2.136661 2.71636,-4.023674 6.12102,-4.697318 1.29198,-0.255629 1.73798,-0.291683 3.92962,-0.317667 l 2.07242,-0.0246 0,-2.853513 0,-2.853514 -2.32947,0.0076 c -1.28122,0.0044 -2.7777,0.0251 -3.32553,0.04655 z m 5.75329,17.037569 c -0.10502,1.014529 -0.37063,1.804396 -0.85311,2.537035 -0.5846,0.88771 -1.32553,1.47217 -2.36185,1.863062 -0.98171,0.370296 -2.1397,0.519794 -3.29932,0.425941 -0.84139,-0.0681 -1.27649,-0.165345 -2.03437,-0.454653 -1.40638,-0.536868 -2.50384,-1.533357 -3.18384,-2.890908 -0.27155,-0.542109 -0.57383,-1.465643 -0.57487,-1.756354 l -4.8e-4,-0.163011 6.17668,0 6.17669,0 -0.0454,0.438888 z"
       id="path4330"
       inkscape:connector-curvature="0" /><g
       clip-path="url(#clipPath16)"
       id="g14"
       transform="matrix(0,0.17614582,-0.26196642,0,146.00721,42.065306)"
       style="fill:#800000"><path
         inkscape:connector-curvature="0"
         id="path20"
         style="fill:#800000;fill-opacity:1;fill-rule:nonzero;stroke:none"
         d="m 146.369,116.681 0,0.906 c -0.249,0.203 -0.454,0.459 -0.596,0.752 -0.143,0.293 -0.223,0.621 -0.223,0.967 10e-4,1.224 0.995,2.216 2.22,2.216 1.225,0 2.218,-0.992 2.218,-2.216 0,-0.7 -0.326,-1.325 -0.835,-1.731 l 0,-0.894 c 0.425,-0.004 0.769,-0.348 0.769,-0.774 l 0,-4.363 -2.163,-2.143 -2.168,2.143 0.001,4.363 c 0.003,0.428 0.349,0.774 0.777,0.774 m -2.493,-3.422 0.001,7.199 0.006,0 c 0.114,2.039 1.806,3.658 3.877,3.658 2.144,0 3.882,-1.736 3.882,-3.877 l -0.001,-6.98 -0.809,-0.807 0,3.455 c 0,0.582 -0.295,1.096 -0.745,1.397 0.466,0.537 0.747,1.238 0.747,2.002 0,1.691 -1.371,3.062 -3.064,3.062 -1.692,-0.002 -3.065,-1.371 -3.065,-3.062 0,-0.76 0.278,-1.457 0.739,-1.993 -0.457,-0.302 -0.759,-0.818 -0.759,-1.406 l 0.001,-3.457 z m -1.881,1.873 0.001,4.806 c 0,3.616 2.428,6.666 5.744,7.614 3.336,-0.922 5.782,-3.983 5.781,-7.612 l -10e-4,-4.806 -0.953,-0.951 0.001,6.056 c 0,2.651 -2.152,4.801 -4.808,4.801 -2.582,0 -4.688,-2.033 -4.804,-4.582 l -0.006,-6.277 z m 16.819,5.308 -4.448,-4.441 10e-4,3.941 c 0,4.1 -2.819,7.541 -6.627,8.498 -3.728,-0.966 -6.499,-4.304 -6.591,-8.304 l 0,-4.141 -4.451,4.445 11.059,11.045 z m 27.097,-3.945 c 0,-1.678 -0.496,-4.012 -2.234,-5.34 -2.075,-1.588 -5.403,-1.98 -8.994,-1.98 -3.884,0 -7.225,0.361 -9.432,2.154 -1.65,1.342 -2.059,3.688 -2.059,5.15 l 0,15.006 7.272,0 0,-12.759 c 0,-0.842 0.161,-1.723 0.822,-2.508 0.73,-0.865 1.908,-0.887 3.27,-0.887 1.233,0 2.179,0.068 3.079,0.719 0.805,0.582 1.031,2.138 1.031,2.855 l 0,12.58 7.245,0 z m 11.938,3.875 c 0,-3.668 2.842,-5.994 7.046,-5.994 3.214,0 8.673,2.004 8.673,2.004 l -0.188,-5.672 c 0,0 -3.087,-1.551 -9.773,-1.551 -5.227,0 -13.219,1.985 -13.219,11.289 0,10.873 10.228,11.383 13.219,11.383 4.678,0 8.845,-1.229 8.845,-1.229 l 0.435,-5.747 c 0,0 -3.749,1.757 -8.029,1.757 -4.999,0 -7.009,-2.584 -7.009,-6.24 m 39.63,-10.906 -19.433,0 0,22.021 7.665,0 0,-15.722 11.768,0 z m 34.955,0 -7.01,0 0,12.539 -6.511,-12.539 -3.425,0 -6.547,12.539 0,-12.539 -6.988,0 0,22.021 7.639,0 7.592,-12.75 7.625,12.75 7.625,0 z"
         sodipodi:nodetypes="ccccssccsccccccccscccscscscccccccccccsccccccccccccscscsccscscsccscsccsssccscccccccccccccccccccccc" /></g></g></svg>