<?xml version="1.0" encoding="UTF-8" standalone="no"?>
<!-- Created with Inkscape (http://www.inkscape.org/) -->

<svg
   xmlns:dc="http://purl.org/dc/elements/1.1/"
   xmlns:cc="http://creativecommons.org/ns#"
   xmlns:rdf="http://www.w3.org/1999/02/22-rdf-syntax-ns#"
   xmlns:svg="http://www.w3.org/2000/svg"
   xmlns="http://www.w3.org/2000/svg"
   xmlns:sodipodi="http://sodipodi.sourceforge.net/DTD/sodipodi-0.dtd"
   xmlns:inkscape="http://www.inkscape.org/namespaces/inkscape"
   width="51.790947mm"
   height="17.132074mm"
   viewBox="0 0 183.51123 60.7042"
   id="svg2"
   version="1.1"
   inkscape:version="0.91 r13725"
   sodipodi:docname="LogoPablo2.svg">
  <defs
     id="defs4" />
  <sodipodi:namedview
     id="base"
     pagecolor="#ffffff"
     bordercolor="#666666"
     borderopacity="1.0"
     inkscape:pageopacity="0.0"
     inkscape:pageshadow="2"
     inkscape:zoom="1.7786306"
     inkscape:cx="65.312684"
     inkscape:cy="-78.653371"
     inkscape:document-units="px"
     inkscape:current-layer="layer1"
     showgrid="false"
     fit-margin-top="0"
     fit-margin-left="0"
     fit-margin-right="0"
     fit-margin-bottom="0"
     inkscape:window-width="1855"
     inkscape:window-height="1056"
     inkscape:window-x="65"
     inkscape:window-y="24"
     inkscape:window-maximized="1" />
  <metadata
     id="metadata7">
    <rdf:RDF>
      <cc:Work
         rdf:about="">
        <dc:format>image/svg+xml</dc:format>
        <dc:type
           rdf:resource="http://purl.org/dc/dcmitype/StillImage" />
        <dc:title></dc:title>
      </cc:Work>
    </rdf:RDF>
  </metadata>
  <g
     inkscape:label="Capa 1"
     inkscape:groupmode="layer"
     id="layer1"
     transform="translate(-310.78645,-391.43689)">
    <text
       xml:space="preserve"
       style="font-style:normal;font-variant:normal;font-weight:normal;font-stretch:normal;font-size:52.68262863px;line-height:125%;font-family:Dyuthi;-inkscape-font-specification:'Dyuthi, Normal';text-align:start;letter-spacing:0px;word-spacing:0px;writing-mode:lr-tb;text-anchor:start;fill:#000000;fill-opacity:1;stroke:none;stroke-width:1px;stroke-linecap:butt;stroke-linejoin:miter;stroke-opacity:1"
       x="386.37228"
       y="358.09808"
       id="text3336"
       sodipodi:linespacing="125%"
       transform="scale(0.79200521,1.262618)"><tspan
         sodipodi:role="line"
         id="tspan3338"
         x="386.37228"
         y="358.09808"
         style="font-style:normal;font-variant:normal;font-weight:normal;font-stretch:normal;font-size:92.19459534px;font-family:Dyuthi;-inkscape-font-specification:Dyuthi;fill:#000000">AG</tspan></text>
    <text
       xml:space="preserve"
       style="font-style:normal;font-variant:normal;font-weight:normal;font-stretch:normal;font-size:39.35290909px;line-height:125%;font-family:Dyuthi;-inkscape-font-specification:'Dyuthi, Normal';text-align:start;letter-spacing:0px;word-spacing:0px;writing-mode:lr-tb;text-anchor:start;fill:#000000;fill-opacity:1;stroke:none;stroke-width:1px;stroke-linecap:butt;stroke-linejoin:miter;stroke-opacity:1"
       x="406.08029"
       y="428.12241"
       id="text3340"
       sodipodi:linespacing="125%"
       transform="scale(0.94884773,1.0539099)"><tspan
         sodipodi:role="line"
         id="tspan3342"
         x="406.08029"
         y="428.12241"
         style="fill:#000000">-Costane</tspan></text>
    <path
       style="fill:#000000"
       d="m 486.81344,430.76074 c -1.17362,0.39752 -2.80865,0.67799 -4.1877,0.71833 -4.38682,0.12836 -9.36702,-1.76914 -14.03418,-5.34715 -2.1021,-1.61154 -3.99547,-3.33625 -6.81389,-6.20693 -0.66408,-0.67638 -1.38092,-1.40279 -1.593,-1.61422 -0.21206,-0.21145 -0.41377,-0.4265 -0.44822,-0.4779 -0.0344,-0.0514 -0.0721,-0.0892 -0.0838,-0.084 -0.0116,0.006 -0.31492,0.25519 -0.674,0.55552 -2.53121,2.11711 -4.15041,3.33575 -5.79183,4.35906 -3.54982,2.21307 -7.20636,3.29812 -10.82176,3.21125 -3.55057,-0.0853 -7.39131,-1.42009 -11.14752,-3.87411 -2.70666,-1.76833 -4.97503,-3.72072 -8.70744,-7.49452 -0.29748,-0.30077 -0.54795,-0.55 -0.5566,-0.55384 -0.009,-0.003 -0.22649,0.17333 -0.48408,0.39371 -3.50014,2.99456 -5.58346,4.48672 -8.03827,5.75733 -3.13547,1.6229 -6.55679,2.37852 -9.76875,2.15747 -6.57445,-0.45246 -12.66709,-4.21318 -15.80704,-9.75699 -0.42789,-0.75548 -0.91677,-1.81978 -0.88772,-1.93262 0.0111,-0.0433 0.25047,-0.29738 0.53183,-0.56451 0.28135,-0.26713 0.6494,-0.61866 0.81788,-0.78116 l 0.30636,-0.29546 0.24086,0.4395 c 0.13248,0.24172 0.61552,0.99613 1.07345,1.67645 0.71544,1.06314 0.90796,1.31857 1.36859,1.81757 1.62385,1.75896 3.35112,3.09013 5.33945,4.11498 0.68058,0.35078 1.91079,0.89863 2.13945,0.95274 0.0875,0.0207 0.16844,-0.29257 0.43511,-1.68451 0.18018,-0.94047 0.45434,-2.36422 0.60923,-3.16389 0.15489,-0.79966 0.47516,-2.46225 0.7117,-3.69463 0.23654,-1.23239 0.60106,-3.12822 0.81004,-4.21296 0.20897,-1.08474 0.44856,-2.32977 0.53243,-2.76673 0.0839,-0.43696 0.20244,-1.05307 0.2635,-1.36915 0.061,-0.31608 0.0815,-0.59095 0.0455,-0.61083 -0.036,-0.0199 -0.33772,-0.0714 -0.67046,-0.11451 -2.18986,-0.28368 -4.36296,-0.0994 -6.30776,0.53485 -0.73069,0.23831 -2.36349,1.00778 -2.88365,1.35892 -0.18993,0.1282 -0.3616,0.22788 -0.38154,0.22147 -0.0199,-0.006 -0.2142,-0.56937 -0.43172,-1.25103 l -0.3955,-1.23938 0.24637,-0.18207 c 0.67921,-0.50194 1.87112,-1.0943 2.96673,-1.47443 4.91881,-1.70658 10.68069,-0.56701 16.46345,3.25609 2.89175,1.91182 5.39775,4.13159 9.91636,8.7838 0.48176,0.49601 0.88407,0.90582 0.894,0.91071 0.01,0.005 0.31326,-0.23801 0.67403,-0.53975 3.23388,-2.70481 5.14365,-4.07215 7.30118,-5.22739 3.6733,-1.96687 7.51913,-2.71527 11.21921,-2.18326 4.16656,0.59909 8.50034,2.75484 12.81374,6.37394 1.55103,1.30136 3.70198,3.34048 5.55304,5.26434 0.10344,0.10754 0.15691,0.12961 0.20647,0.0852 0.56004,-0.50202 2.67764,-2.25154 3.50857,-2.8987 4.12361,-3.21162 7.86252,-4.89785 11.76025,-5.30382 4.78523,-0.49841 9.84027,0.99318 13.88637,4.09743 0.96742,0.74222 2.12634,1.86035 3.05937,2.95166 0.47327,0.55358 1.75744,2.47073 2.08188,3.10801 0.36608,0.71917 0.64501,1.37448 0.62306,1.46372 -0.0107,0.0431 -0.24948,0.29694 -0.53083,0.56407 -0.28136,0.26713 -0.64961,0.61885 -0.81835,0.78158 l -0.3068,0.2959 -0.12415,-0.23947 c -0.30424,-0.58696 -1.51608,-2.43956 -1.92554,-2.94363 -1.51232,-1.86191 -3.5057,-3.53174 -5.51863,-4.62291 -0.70373,-0.38148 -1.61832,-0.82166 -1.66434,-0.80104 -0.0188,0.008 -0.10513,0.59409 -0.19209,1.30157 -0.0869,0.70748 -0.20867,1.6926 -0.27051,2.18913 -0.0618,0.49655 -0.41242,3.36719 -0.77907,6.37922 -0.36667,3.01203 -0.72288,5.92667 -0.79159,6.47698 l -0.12494,1.00057 0.2435,0.01 c 1.3072,0.0537 3.18374,-0.22226 4.55712,-0.67016 0.73068,-0.2383 2.36348,-1.00776 2.88364,-1.35892 0.18993,-0.12819 0.36129,-0.22798 0.38083,-0.22171 0.0195,0.006 0.21311,0.56956 0.43014,1.25173 l 0.39462,1.24031 -0.2448,0.18137 c -0.65835,0.48775 -2.03319,1.16674 -3.08134,1.52176 z m -8.84452,-3.2729 c 0.0695,-0.75284 0.81277,-8.5673 1.33035,-13.98715 0.29142,-3.05176 0.30414,-3.22797 0.23586,-3.26566 -0.1829,-0.10093 -3.05004,-0.4155 -3.05456,-0.33514 -0.005,0.0805 -0.69007,6.13738 -0.75934,6.70889 -0.0467,0.38559 -0.13662,1.16463 -0.19974,1.73121 -0.15106,1.35596 -0.8746,7.67327 -0.95522,8.34013 l -0.063,0.5211 0.34129,0.14182 c 0.57841,0.24035 1.56975,0.57981 2.31368,0.79226 0.39046,0.1115 0.71514,0.2004 0.72151,0.19754 0.007,-0.003 0.0466,-0.3831 0.0891,-0.845 z m -6.60344,-2.43904 c 0.0314,-0.26583 0.15776,-1.30987 0.28092,-2.32008 0.12316,-1.01023 0.46962,-3.86482 0.76992,-6.34355 0.3003,-2.47872 0.59232,-4.88271 0.64895,-5.34219 0.0566,-0.45947 0.0947,-0.84827 0.0845,-0.86398 -0.0187,-0.0289 -0.89749,0.14887 -1.50186,0.30384 -0.57734,0.14805 -2.10627,0.67992 -2.1151,0.7358 -0.005,0.0296 -0.13804,1.51834 -0.29635,3.30832 -0.292,3.30191 -0.37002,4.1749 -0.65327,7.31072 l -0.15839,1.75343 0.19319,0.15679 c 0.47562,0.38599 2.61697,1.81715 2.67799,1.78981 0.007,-0.003 0.0381,-0.22308 0.0695,-0.48891 z m -5.18505,-6.97375 c 0.1172,-1.82366 0.24529,-3.78078 0.28462,-4.34916 0.0393,-0.56837 0.0573,-1.03796 0.0401,-1.04351 -0.0413,-0.0133 -1.09764,0.63177 -1.63159,0.99639 -1.00627,0.68714 -2.21494,1.59537 -3.41433,2.56561 l -0.55156,0.44618 0.13211,0.14138 c 0.83969,0.89859 3.06028,3.06982 4.20519,4.1117 0.54271,0.49388 0.69126,0.60691 0.70498,0.53643 0.01,-0.0491 0.1133,-1.58137 0.2305,-3.40502 z m -13.58066,2.07885 c 1.0646,-0.64172 2.37221,-1.55287 3.46741,-2.41611 0.70449,-0.5553 1.55018,-1.24153 1.74253,-1.41398 l 0.21238,-0.19041 -0.15145,-0.16387 c -0.288,-0.31153 -2.22376,-2.14268 -2.86102,-2.7064 -0.80445,-0.71162 -1.78406,-1.52234 -2.55996,-2.11859 -0.99052,-0.76119 -0.87343,-0.80886 -0.99091,0.40347 -0.34842,3.59601 -0.90345,9.5419 -0.89981,9.63963 0.003,0.0746 0.0958,0.04 0.62079,-0.23112 0.33964,-0.17535 0.97866,-0.53654 1.42007,-0.80261 z m -4.99035,-0.59064 c 0.11775,-1.60685 0.23762,-3.21623 0.26637,-3.5764 0.0287,-0.36015 0.14049,-1.85935 0.24832,-3.33152 0.10783,-1.47217 0.22133,-2.99717 0.25224,-3.38887 0.0309,-0.39172 0.0421,-0.73306 0.0251,-0.75855 -0.0469,-0.0701 -1.49974,-0.7915 -2.17028,-1.07775 -0.62749,-0.26786 -1.85239,-0.7235 -1.93334,-0.71916 -0.0266,0.001 -0.13478,1.05861 -0.24044,2.3493 -0.10566,1.29068 -0.2704,3.30524 -0.3661,4.47679 -0.0957,1.17154 -0.18906,2.30732 -0.20748,2.52394 -0.26233,3.08551 -0.57753,7.12403 -0.55648,7.13016 0.0669,0.0195 0.82649,-0.0229 1.26236,-0.0704 0.97503,-0.10625 2.58944,-0.41952 3.11683,-0.60482 0.0597,-0.0211 0.15876,-0.98604 0.30289,-2.95275 z m -7.94911,2.80162 c 0.0414,-0.58886 0.39248,-5.37991 0.66837,-9.12024 0.35532,-4.81684 0.48027,-6.52889 0.50523,-6.92221 l 0.0263,-0.41338 -0.3953,-0.0413 c -0.93526,-0.0977 -2.85636,-0.0956 -3.27377,0.003 -0.14931,0.0355 -0.16379,0.12586 -0.30199,1.88649 -0.18947,2.4137 -0.33676,4.2345 -0.90682,11.2099 -0.12606,1.54248 -0.21609,2.83719 -0.20007,2.87712 0.0623,0.1552 3.64656,1.1942 3.80798,1.10382 0.0167,-0.009 0.0482,-0.27209 0.0701,-0.58392 z m -6.05835,-8.93788 c 0.37049,-3.84233 0.65507,-6.99202 0.63238,-6.99931 -0.12467,-0.04 -1.36764,0.39352 -2.48472,0.86674 l -1.27883,0.54172 -0.34166,2.85306 c -0.1879,1.5692 -0.46856,3.88515 -0.62368,5.14657 -0.15511,1.26142 -0.26879,2.31326 -0.25261,2.3374 0.0162,0.0241 0.33386,0.25778 0.70596,0.51918 1.22891,0.86331 2.93714,1.88982 2.95857,1.77784 0.006,-0.0315 0.31408,-3.2009 0.68457,-7.04323 z m -6.67673,-0.36298 c 0.1913,-1.57905 0.36352,-2.97335 0.38271,-3.09846 0.0192,-0.12512 0.0236,-0.23082 0.01,-0.2349 -0.13205,-0.0392 -4.00878,2.96102 -4.05043,3.13459 -0.0211,0.0881 3.23572,3.15498 3.28746,3.09565 0.0124,-0.0143 0.1791,-1.31783 0.37041,-2.89688 z m -12.5436,3.47832 c 0.0283,-0.037 0.35467,-1.99292 0.72524,-4.34646 0.61166,-3.88488 0.66318,-4.29318 0.55916,-4.43137 -0.22138,-0.2941 -2.80815,-2.42124 -3.40386,-2.79906 -0.14969,-0.0949 -0.001,-0.75489 -2.31299,10.27209 -0.67749,3.2314 -0.69655,3.3483 -0.54183,3.32384 0.13427,-0.0212 0.97836,-0.27976 1.85754,-0.56893 0.34498,-0.11347 3.06097,-1.37686 3.11672,-1.45014 z m 3.32045,-2.15498 c 0.32277,-0.22647 1.28438,-0.97473 2.10532,-1.6382 0.51729,-0.41807 0.54716,-0.45335 0.45867,-0.54165 -0.0521,-0.0519 -0.50268,-0.50826 -1.00137,-1.01404 -0.49869,-0.50578 -0.96432,-0.97266 -1.03474,-1.03751 -0.12309,-0.11339 -0.14322,-0.0391 -0.52328,1.93339 -0.53266,2.76434 -0.52079,2.68633 -0.39262,2.58193 0.0569,-0.0463 0.23146,-0.17408 0.38802,-0.28392 z m -10.31006,-0.11314 c 1.6659,-7.94565 2.21692,-10.57744 2.25714,-10.78052 l 0.0438,-0.22148 -0.71762,-0.3921 c -1.07461,-0.58713 -2.9613,-1.44955 -3.39646,-1.55253 -0.0803,-0.019 -0.16936,0.32601 -0.41719,1.61668 -0.37045,1.92912 -0.87481,4.55181 -1.5911,8.27394 -1.29682,6.73868 -1.45556,7.58036 -1.43524,7.61068 0.0324,0.0484 1.52045,0.22681 2.18797,0.26237 0.3214,0.0171 0.91482,0.02 1.31874,0.006 l 0.73439,-0.0247 0.19739,-0.919 c 0.10857,-0.50544 0.47672,-2.25128 0.81812,-3.87963 z"
       id="path4212"
       inkscape:connector-curvature="0" />
  </g>
</svg>
