<?xml version="1.0" encoding="UTF-8" standalone="no"?>
<!-- Created with Inkscape (http://www.inkscape.org/) -->

<svg
   xmlns:dc="http://purl.org/dc/elements/1.1/"
   xmlns:cc="http://creativecommons.org/ns#"
   xmlns:rdf="http://www.w3.org/1999/02/22-rdf-syntax-ns#"
   xmlns:svg="http://www.w3.org/2000/svg"
   xmlns="http://www.w3.org/2000/svg"
   xmlns:sodipodi="http://sodipodi.sourceforge.net/DTD/sodipodi-0.dtd"
   xmlns:inkscape="http://www.inkscape.org/namespaces/inkscape"
   width="74.322983mm"
   height="24.642748mm"
   viewBox="0 0 263.34915 87.316823"
   id="svg2"
   version="1.1"
   inkscape:version="0.91 r13725"
   sodipodi:docname="LogoPablo.svg">
  <defs
     id="defs4" />
  <sodipodi:namedview
     id="base"
     pagecolor="#ffffff"
     bordercolor="#666666"
     borderopacity="1.0"
     inkscape:pageopacity="0.0"
     inkscape:pageshadow="2"
     inkscape:zoom="0.74784138"
     inkscape:cx="141.09868"
     inkscape:cy="-74.040043"
     inkscape:document-units="px"
     inkscape:current-layer="layer1"
     showgrid="false"
     fit-margin-top="0"
     fit-margin-left="0"
     fit-margin-right="0"
     fit-margin-bottom="0"
     inkscape:window-width="1280"
     inkscape:window-height="971"
     inkscape:window-x="0"
     inkscape:window-y="0"
     inkscape:window-maximized="1" />
  <metadata
     id="metadata7">
    <rdf:RDF>
      <cc:Work
         rdf:about="">
        <dc:format>image/svg+xml</dc:format>
        <dc:type
           rdf:resource="http://purl.org/dc/dcmitype/StillImage" />
        <dc:title></dc:title>
      </cc:Work>
    </rdf:RDF>
  </metadata>
  <g
     inkscape:label="Capa 1"
     inkscape:groupmode="layer"
     id="layer1"
     transform="translate(-230.94856,-364.82423)">
    <text
       xml:space="preserve"
       style="font-style:normal;font-variant:normal;font-weight:normal;font-stretch:normal;font-size:75.69054413px;line-height:125%;font-family:Dyuthi;-inkscape-font-specification:'Dyuthi, Normal';text-align:start;letter-spacing:0px;word-spacing:0px;writing-mode:lr-tb;text-anchor:start;fill:#000000;fill-opacity:1;stroke:none;stroke-width:1px;stroke-linecap:butt;stroke-linejoin:miter;stroke-opacity:1"
       x="283.27237"
       y="357.68192"
       id="text3336"
       sodipodi:linespacing="125%"
       transform="scale(0.79108476,1.264087)"><tspan
         sodipodi:role="line"
         id="tspan3338"
         x="283.27237"
         y="357.68192"
         style="font-style:normal;font-variant:normal;font-weight:normal;font-stretch:normal;font-size:132.45845032px;font-family:Dyuthi;-inkscape-font-specification:Dyuthi;fill:#800000">AG</tspan></text>
    <text
       xml:space="preserve"
       style="font-style:normal;font-variant:normal;font-weight:normal;font-stretch:normal;font-size:56.53938293px;line-height:125%;font-family:Dyuthi;-inkscape-font-specification:'Dyuthi, Normal';text-align:start;letter-spacing:0px;word-spacing:0px;writing-mode:lr-tb;text-anchor:start;fill:#000000;fill-opacity:1;stroke:none;stroke-width:1px;stroke-linecap:butt;stroke-linejoin:miter;stroke-opacity:1"
       x="356.52182"
       y="427.23486"
       id="text3340"
       sodipodi:linespacing="125%"
       transform="scale(0.94774499,1.0551361)"><tspan
         sodipodi:role="line"
         id="tspan3342"
         x="356.52182"
         y="427.23486"
         style="fill:#800000">-Costane</tspan></text>
    <path
       style="fill:#800000"
       d="m 483.55735,421.38764 c -1.68421,0.5718 -4.03057,0.97522 -6.00958,1.03325 -6.29534,0.18463 -13.44221,-2.54473 -20.13986,-7.69134 -3.01662,-2.31803 -5.73372,-4.79886 -9.77832,-8.92803 -0.95298,-0.97291 -1.9817,-2.01777 -2.28604,-2.3219 -0.30432,-0.30415 -0.59378,-0.61347 -0.64322,-0.6874 -0.0494,-0.0739 -0.10352,-0.12827 -0.12021,-0.12078 -0.0166,0.008 -0.45194,0.36707 -0.96723,0.79907 -3.63244,3.04524 -5.95608,4.79813 -8.31161,6.27006 -5.0942,3.18328 -10.34154,4.74401 -15.52984,4.61905 -5.09528,-0.12272 -10.60695,-2.04265 -15.99733,-5.57251 -3.88422,-2.54356 -7.13945,-5.35187 -12.49567,-10.7801 -0.42691,-0.43263 -0.78635,-0.79112 -0.79876,-0.79665 -0.0124,-0.005 -0.32502,0.24932 -0.69468,0.56632 -5.0229,4.30737 -8.01258,6.45368 -11.53538,8.28133 -4.49957,2.33438 -9.40936,3.42126 -14.01871,3.1033 -9.43471,-0.65081 -18.178,-6.06023 -22.68401,-14.03444 -0.61405,-1.08668 -1.31561,-2.61756 -1.27393,-2.77988 0.016,-0.0623 0.35945,-0.42775 0.76321,-0.81199 0.40375,-0.38424 0.93192,-0.88987 1.17371,-1.12362 l 0.43964,-0.42499 0.34565,0.63218 c 0.19012,0.34769 0.8833,1.43283 1.54046,2.41141 1.02669,1.52922 1.30297,1.89662 1.96401,2.61439 2.33031,2.53008 4.80904,4.44483 7.66241,5.91897 0.97667,0.50457 2.74209,1.29259 3.07023,1.37043 0.12558,0.0298 0.24172,-0.42083 0.62441,-2.423 0.25857,-1.35277 0.652,-3.40069 0.87428,-4.55093 0.22228,-1.15023 0.68188,-3.5417 1.02133,-5.31436 0.33945,-1.77266 0.86256,-4.49962 1.16245,-6.05991 0.29989,-1.56029 0.64372,-3.35114 0.76407,-3.97966 0.12035,-0.62852 0.29051,-1.51474 0.37814,-1.96938 0.0876,-0.45465 0.11703,-0.85002 0.0653,-0.87862 -0.0517,-0.0286 -0.48466,-0.1027 -0.96215,-0.16471 -3.14258,-0.40805 -6.2611,-0.143 -9.052,0.76933 -1.04858,0.34278 -3.39174,1.44958 -4.1382,1.95467 -0.27256,0.18439 -0.51892,0.32777 -0.54753,0.31855 -0.0286,-0.009 -0.30739,-0.81897 -0.61954,-1.79947 l -0.56757,-1.78273 0.35356,-0.26188 c 0.9747,-0.72199 2.68516,-1.57404 4.25742,-2.12082 7.05877,-2.45475 15.3274,-0.81559 23.62599,4.68355 4.14983,2.74996 7.74608,5.94288 14.23054,12.63461 0.69136,0.71346 1.26869,1.30293 1.28295,1.30996 0.0144,0.007 0.44954,-0.34235 0.96727,-0.77638 4.6408,-3.89059 7.38143,-5.85737 10.4776,-7.51907 5.2714,-2.82914 10.79038,-3.90563 16.10021,-3.14039 5.97925,0.86172 12.19848,3.96256 18.38845,9.16826 2.22582,1.87188 5.31255,4.80495 7.96893,7.57222 0.14844,0.15468 0.22518,0.18643 0.2963,0.12254 0.80369,-0.72211 3.84256,-3.23862 5.03499,-4.16949 5.91762,-4.61959 11.28317,-7.04506 16.87664,-7.629 6.86708,-0.71692 14.12135,1.42858 19.92773,5.89373 1.3883,1.06761 3.05142,2.67593 4.39037,4.24567 0.67917,0.79627 2.52202,3.55389 2.98762,4.47055 0.52534,1.03446 0.92563,1.97705 0.89412,2.10542 -0.0153,0.062 -0.35801,0.42711 -0.76177,0.81135 -0.40376,0.38424 -0.93222,0.89015 -1.17437,1.12423 l -0.44028,0.42562 -0.17816,-0.34446 c -0.43661,-0.84427 -2.17566,-3.50906 -2.76326,-4.23411 -2.17027,-2.67816 -5.03089,-5.08004 -7.91956,-6.64958 -1.00989,-0.54872 -2.32238,-1.18188 -2.38842,-1.15222 -0.0269,0.0121 -0.15087,0.85454 -0.27565,1.87218 -0.12477,1.01764 -0.29946,2.43463 -0.3882,3.14884 -0.0887,0.71423 -0.59185,4.84336 -1.11802,9.17586 -0.52618,4.3325 -1.03737,8.52491 -1.13597,9.31648 l -0.17929,1.43922 0.34943,0.0144 c 1.87591,0.0772 4.56885,-0.31971 6.53972,-0.96396 1.04858,-0.34278 3.39174,-1.44957 4.13819,-1.95467 0.27256,-0.18439 0.51848,-0.32793 0.54652,-0.31891 0.028,0.009 0.30583,0.81925 0.61728,1.80049 l 0.56629,1.78406 -0.35129,0.26088 c -0.94478,0.70158 -2.91775,1.67824 -4.4219,2.1889 z m -12.69239,-4.70774 c 0.0998,-1.08287 1.16638,-12.32318 1.90913,-20.11909 0.4182,-4.38965 0.43646,-4.64311 0.33847,-4.69732 -0.26247,-0.14517 -4.37698,-0.59765 -4.38346,-0.48206 -0.007,0.11582 -0.99029,8.828 -1.0897,9.65005 -0.067,0.55463 -0.19606,1.67521 -0.28664,2.49017 -0.21678,1.95041 -1.2551,11.03722 -1.37079,11.99643 l -0.0904,0.74955 0.48978,0.204 c 0.83005,0.34572 2.25267,0.834 3.32025,1.13958 0.56034,0.16038 1.02628,0.28826 1.03542,0.28415 0.01,-0.004 0.0668,-0.55106 0.12792,-1.21546 z m -9.47631,-3.50831 c 0.045,-0.38237 0.2264,-1.88411 0.40314,-3.3372 0.17674,-1.45311 0.67393,-5.55915 1.10487,-9.12455 0.43095,-3.56539 0.85002,-7.02328 0.93128,-7.68419 0.0813,-0.66091 0.13585,-1.22015 0.12133,-1.24275 -0.0268,-0.0416 -1.28796,0.21413 -2.15526,0.43704 -0.82852,0.21295 -3.02261,0.978 -3.03529,1.05837 -0.007,0.0426 -0.1981,2.18398 -0.42527,4.75868 -0.41905,4.74947 -0.531,6.00517 -0.93749,10.51573 l -0.22729,2.52214 0.27724,0.22553 c 0.68253,0.5552 3.7555,2.61378 3.84306,2.57445 0.01,-0.005 0.0547,-0.32088 0.0997,-0.70325 z m -7.44084,-10.03103 c 0.16819,-2.62314 0.352,-5.43826 0.40845,-6.25582 0.0564,-0.81755 0.0823,-1.493 0.0576,-1.50099 -0.0593,-0.0191 -1.57518,0.90875 -2.34143,1.43321 -1.44405,0.98838 -3.17856,2.29478 -4.89975,3.69037 l -0.79153,0.64179 0.18959,0.20335 c 1.205,1.29254 4.39168,4.41563 6.03468,5.91427 0.77883,0.7104 0.992,0.87298 1.0117,0.7716 0.0138,-0.0706 0.16258,-2.27464 0.33078,-4.89778 z m -19.48902,2.99022 c 1.52776,-0.92305 3.40425,-2.23364 4.97592,-3.47533 1.01099,-0.79874 2.22461,-1.78582 2.50063,-2.03386 l 0.30478,-0.27389 -0.21734,-0.23571 c -0.41329,-0.4481 -3.19122,-3.08203 -4.10572,-3.89289 -1.15443,-1.02359 -2.56023,-2.18972 -3.67369,-3.04737 -1.42146,-1.09489 -1.25342,-1.16347 -1.42201,0.58035 -0.50001,5.17249 -1.2965,13.72506 -1.29128,13.86563 0.004,0.10725 0.13743,0.0575 0.89086,-0.33245 0.48741,-0.25221 1.40444,-0.77175 2.03789,-1.15447 z m -7.16144,-0.84957 c 0.16898,-2.3113 0.341,-4.62623 0.38226,-5.14429 0.0412,-0.51805 0.20161,-2.67449 0.35635,-4.79206 0.15474,-2.11757 0.31762,-4.31112 0.36197,-4.87455 0.0444,-0.56344 0.0605,-1.05443 0.0361,-1.09109 -0.0673,-0.10076 -2.15221,-1.13849 -3.11448,-1.55023 -0.90048,-0.38529 -2.65829,-1.04069 -2.77445,-1.03445 -0.0382,0.002 -0.19342,1.52271 -0.34504,3.37923 -0.15163,1.85652 -0.38804,4.75426 -0.52538,6.43941 -0.13733,1.68515 -0.27131,3.31885 -0.29774,3.63044 -0.37647,4.43819 -0.82879,10.24719 -0.79859,10.256 0.096,0.028 1.18606,-0.0329 1.81156,-0.10121 1.39922,-0.15283 3.71599,-0.60344 4.47283,-0.86997 0.0857,-0.0304 0.22783,-1.41832 0.43467,-4.24723 z m -11.40743,4.02984 c 0.0594,-0.84702 0.56323,-7.73846 0.95915,-13.11854 0.5099,-6.92853 0.68921,-9.39114 0.72503,-9.95689 l 0.0377,-0.59461 -0.56728,-0.0594 c -1.34215,-0.14058 -4.09903,-0.13743 -4.69804,0.005 -0.21427,0.0511 -0.23505,0.18104 -0.43338,2.71352 -0.2719,3.47187 -0.48327,6.0909 -1.30133,16.12431 -0.1809,2.2187 -0.31011,4.081 -0.28712,4.13844 0.0894,0.22324 5.23302,1.71773 5.46468,1.58774 0.0239,-0.0134 0.0692,-0.39138 0.10065,-0.83991 z m -8.69408,-12.85624 c 0.53168,-5.52679 0.94006,-10.05731 0.9075,-10.06779 -0.1789,-0.0576 -1.96263,0.56604 -3.56571,1.24672 l -1.83519,0.7792 -0.4903,4.10385 c -0.26966,2.25713 -0.67242,5.58839 -0.89502,7.40281 -0.2226,1.81443 -0.38573,3.32739 -0.36251,3.36212 0.0232,0.0347 0.47911,0.37079 1.01309,0.74678 1.76355,1.24179 4.21496,2.71831 4.24572,2.55725 0.009,-0.0453 0.45072,-4.60418 0.9824,-10.13097 z m -9.58149,-0.5221 c 0.27453,-2.2713 0.52168,-4.27687 0.54922,-4.45683 0.0275,-0.17996 0.0339,-0.33201 0.0142,-0.33788 -0.1895,-0.0564 -5.75283,4.25914 -5.81259,4.5088 -0.0303,0.12678 4.64343,4.53812 4.71769,4.45277 0.0178,-0.0205 0.25702,-1.89556 0.53156,-4.16686 z m -18.00078,5.0032 c 0.0406,-0.0532 0.50898,-2.8666 1.04076,-6.25193 0.87777,-5.58801 0.9517,-6.17531 0.80243,-6.37408 -0.3177,-0.42303 -4.02985,-3.48271 -4.88474,-4.02617 -0.21481,-0.13655 -0.002,-1.08582 -3.31927,14.77536 -0.97224,4.64804 -0.99959,4.8162 -0.77756,4.78101 0.19269,-0.0305 1.40401,-0.4024 2.66568,-0.81835 0.49507,-0.16321 4.39267,-1.98047 4.47268,-2.08587 z m 4.76504,-3.09972 c 0.46319,-0.32575 1.84315,-1.40204 3.02125,-2.35638 0.74234,-0.60135 0.78521,-0.6521 0.65822,-0.7791 -0.0747,-0.0747 -0.72137,-0.73109 -1.43702,-1.4586 -0.71565,-0.72751 -1.38386,-1.39907 -1.48492,-1.49235 -0.17664,-0.1631 -0.20552,-0.0562 -0.75093,2.78098 -0.7644,3.97623 -0.74737,3.86401 -0.56343,3.71384 0.0816,-0.0666 0.33216,-0.25039 0.55683,-0.40839 z m -14.79552,-0.16273 c 2.39066,-11.42902 3.1814,-15.21457 3.23912,-15.50668 l 0.0629,-0.31859 -1.02983,-0.56399 c -1.54212,-0.84453 -4.24964,-2.08503 -4.87411,-2.23315 -0.11523,-0.0274 -0.24304,0.46893 -0.5987,2.32543 -0.53161,2.77483 -1.25539,6.54731 -2.28331,11.90121 -1.86102,9.69291 -2.08881,10.90358 -2.05965,10.9472 0.0465,0.0696 2.18193,0.32624 3.13986,0.37739 0.46122,0.0246 1.31282,0.0288 1.89246,0.009 l 1.05389,-0.0356 0.28327,-1.32188 c 0.1558,-0.72703 0.68412,-3.23824 1.17405,-5.58046 z"
       id="path4212"
       inkscape:connector-curvature="0" />
  </g>
</svg>
